%TF.GenerationSoftware,KiCad,Pcbnew,(7.0.0)*%
%TF.CreationDate,2024-01-04T11:39:15-05:00*%
%TF.ProjectId,MAGFest2023SolderingClass_variant1,4d414746-6573-4743-9230-3233536f6c64,rev?*%
%TF.SameCoordinates,Original*%
%TF.FileFunction,Copper,L1,Top*%
%TF.FilePolarity,Positive*%
%FSLAX46Y46*%
G04 Gerber Fmt 4.6, Leading zero omitted, Abs format (unit mm)*
G04 Created by KiCad (PCBNEW (7.0.0)) date 2024-01-04 11:39:15*
%MOMM*%
%LPD*%
G01*
G04 APERTURE LIST*
G04 Aperture macros list*
%AMRoundRect*
0 Rectangle with rounded corners*
0 $1 Rounding radius*
0 $2 $3 $4 $5 $6 $7 $8 $9 X,Y pos of 4 corners*
0 Add a 4 corners polygon primitive as box body*
4,1,4,$2,$3,$4,$5,$6,$7,$8,$9,$2,$3,0*
0 Add four circle primitives for the rounded corners*
1,1,$1+$1,$2,$3*
1,1,$1+$1,$4,$5*
1,1,$1+$1,$6,$7*
1,1,$1+$1,$8,$9*
0 Add four rect primitives between the rounded corners*
20,1,$1+$1,$2,$3,$4,$5,0*
20,1,$1+$1,$4,$5,$6,$7,0*
20,1,$1+$1,$6,$7,$8,$9,0*
20,1,$1+$1,$8,$9,$2,$3,0*%
G04 Aperture macros list end*
%TA.AperFunction,ComponentPad*%
%ADD10RoundRect,0.381000X-0.016563X1.181968X-0.708143X-0.946497X0.016563X-1.181968X0.708143X0.946497X0*%
%TD*%
%TA.AperFunction,ComponentPad*%
%ADD11RoundRect,0.381000X-0.419820X1.105022X-0.341715X-1.131615X0.419820X-1.105022X0.341715X1.131615X0*%
%TD*%
%TA.AperFunction,ComponentPad*%
%ADD12RoundRect,0.381000X-0.708143X0.946497X-0.016563X-1.181968X0.708143X-0.946497X0.016563X1.181968X0*%
%TD*%
%TA.AperFunction,ComponentPad*%
%ADD13RoundRect,0.381000X0.558543X1.041802X-1.078226X-0.484510X-0.558543X-1.041802X1.078226X0.484510X0*%
%TD*%
%TA.AperFunction,ComponentPad*%
%ADD14R,1.700000X1.700000*%
%TD*%
%TA.AperFunction,ComponentPad*%
%ADD15O,1.700000X1.700000*%
%TD*%
%TA.AperFunction,ComponentPad*%
%ADD16RoundRect,0.381000X-1.078226X0.484510X0.558543X-1.041802X1.078226X-0.484510X-0.558543X1.041802X0*%
%TD*%
%TA.AperFunction,ComponentPad*%
%ADD17RoundRect,0.381000X-0.361413X1.125479X-0.400471X-1.112180X0.361413X-1.125479X0.400471X1.112180X0*%
%TD*%
%TA.AperFunction,ViaPad*%
%ADD18C,0.800000*%
%TD*%
%TA.AperFunction,Conductor*%
%ADD19C,0.400000*%
%TD*%
%TA.AperFunction,Conductor*%
%ADD20C,0.250000*%
%TD*%
G04 APERTURE END LIST*
D10*
%TO.P,D4,1,K*%
%TO.N,Net-(D4-K)*%
X167262221Y-70941265D03*
%TO.P,D4,2,A*%
%TO.N,Net-(D4-A)*%
X159227779Y-95668735D03*
%TD*%
D11*
%TO.P,D3,1,K*%
%TO.N,Net-(D3-K)*%
X154651307Y-66862919D03*
%TO.P,D3,2,A*%
%TO.N,Net-(D3-A)*%
X155558693Y-92847081D03*
%TD*%
D12*
%TO.P,D1,1,K*%
%TO.N,Net-(D1-K)*%
X126797779Y-70941265D03*
%TO.P,D1,2,A*%
%TO.N,Net-(D1-A)*%
X134832221Y-95668735D03*
%TD*%
D13*
%TO.P,D6,1,K*%
%TO.N,Net-(D6-K)*%
X138920022Y-55396515D03*
%TO.P,D6,2,A*%
%TO.N,Net-(D6-A)*%
X125389978Y-68013485D03*
%TD*%
D14*
%TO.P,J1,1,Pin_1*%
%TO.N,+3V3*%
X144144999Y-91861764D03*
D15*
%TO.P,J1,2,Pin_2*%
%TO.N,GND*%
X144144999Y-94401764D03*
%TO.P,J1,3,Pin_3*%
%TO.N,unconnected-(J1-Pin_3-Pad3)*%
X146684999Y-91861764D03*
%TO.P,J1,4,Pin_4*%
%TO.N,unconnected-(J1-Pin_4-Pad4)*%
X146684999Y-94401764D03*
%TO.P,J1,5,Pin_5*%
%TO.N,/SWIO*%
X149224999Y-91861764D03*
%TO.P,J1,6,Pin_6*%
%TO.N,unconnected-(J1-Pin_6-Pad6)*%
X149224999Y-94401764D03*
%TD*%
D16*
%TO.P,D5,1,K*%
%TO.N,Net-(D5-K)*%
X155257590Y-55396515D03*
%TO.P,D5,2,A*%
%TO.N,Net-(D5-A)*%
X168787634Y-68013485D03*
%TD*%
D17*
%TO.P,D2,1,K*%
%TO.N,Net-(D2-K)*%
X139331881Y-66856980D03*
%TO.P,D2,2,A*%
%TO.N,Net-(D2-A)*%
X138878119Y-92853020D03*
%TD*%
D18*
%TO.N,+3V3*%
X141605000Y-88265000D03*
X164055000Y-76495000D03*
X158445194Y-77419500D03*
%TO.N,Net-(D4-K)*%
X158645000Y-72115000D03*
%TO.N,Net-(D5-K)*%
X144495000Y-75105000D03*
%TO.N,Net-(D6-K)*%
X137965000Y-78345000D03*
%TO.N,Net-(U1-I1)*%
X153625000Y-88365000D03*
X151035000Y-86275000D03*
%TO.N,Net-(U1-I2)*%
X152185000Y-88685000D03*
X150835000Y-87425000D03*
%TD*%
D19*
%TO.N,+3V3*%
X163130500Y-77419500D02*
X164055000Y-76495000D01*
X158445194Y-77419500D02*
X163130500Y-77419500D01*
D20*
X141605000Y-88265000D02*
X144145000Y-90805000D01*
X144145000Y-90805000D02*
X144145000Y-91861765D01*
D19*
X145415000Y-89535000D02*
X144145000Y-90805000D01*
X154305000Y-89535000D02*
X145415000Y-89535000D01*
X164055000Y-76495000D02*
X164055000Y-79785000D01*
X164055000Y-79785000D02*
X154305000Y-89535000D01*
D20*
%TO.N,Net-(D4-K)*%
X158645000Y-72115000D02*
X165851265Y-72115000D01*
X165851265Y-72115000D02*
X167025000Y-70941265D01*
%TO.N,Net-(D5-K)*%
X152935000Y-60125000D02*
X152935000Y-57719105D01*
X152935000Y-57719105D02*
X155257590Y-55396515D01*
X144495000Y-68565000D02*
X152935000Y-60125000D01*
X144495000Y-75105000D02*
X144495000Y-68565000D01*
%TO.N,Net-(D6-K)*%
X137965000Y-78345000D02*
X139305000Y-77005000D01*
X141925000Y-68565000D02*
X141925000Y-58401493D01*
X141925000Y-58401493D02*
X138920022Y-55396515D01*
X139305000Y-71185000D02*
X141925000Y-68565000D01*
X139305000Y-77005000D02*
X139305000Y-71185000D01*
%TO.N,Net-(U1-I1)*%
X151535000Y-86275000D02*
X151035000Y-86275000D01*
X153625000Y-88365000D02*
X151535000Y-86275000D01*
%TO.N,Net-(U1-I2)*%
X150835000Y-87425000D02*
X150925000Y-87425000D01*
X150925000Y-87425000D02*
X152185000Y-88685000D01*
%TD*%
%TA.AperFunction,Conductor*%
%TO.N,+3V3*%
G36*
X141979206Y-88122239D02*
G01*
X142255747Y-88734928D01*
X142256592Y-88741844D01*
X142253356Y-88748014D01*
X142088014Y-88913356D01*
X142081844Y-88916592D01*
X142074928Y-88915747D01*
X141462239Y-88639206D01*
X141456179Y-88632862D01*
X141456232Y-88624090D01*
X141602437Y-88268801D01*
X141604983Y-88264983D01*
X141608801Y-88262437D01*
X141964090Y-88116231D01*
X141972862Y-88116179D01*
X141979206Y-88122239D01*
G37*
%TD.AperFunction*%
%TD*%
%TA.AperFunction,Conductor*%
%TO.N,+3V3*%
G36*
X143786670Y-90267872D02*
G01*
X144767876Y-91004777D01*
X144772429Y-91012452D01*
X144770245Y-91021106D01*
X144153787Y-91851585D01*
X144148510Y-91855562D01*
X144141920Y-91856047D01*
X144136119Y-91852884D01*
X143301139Y-91017904D01*
X143297838Y-91011345D01*
X143299095Y-91004112D01*
X143600962Y-90440073D01*
X143602999Y-90437329D01*
X143771374Y-90268954D01*
X143778820Y-90265557D01*
X143786670Y-90267872D01*
G37*
%TD.AperFunction*%
%TD*%
%TA.AperFunction,Conductor*%
%TO.N,+3V3*%
G36*
X164059497Y-76495875D02*
G01*
X164415155Y-76644155D01*
X164421138Y-76649763D01*
X164421971Y-76657920D01*
X164257289Y-77286266D01*
X164253119Y-77292563D01*
X164245971Y-77295000D01*
X163864029Y-77295000D01*
X163856881Y-77292563D01*
X163852711Y-77286266D01*
X163837585Y-77228553D01*
X163688028Y-76657917D01*
X163688861Y-76649763D01*
X163694842Y-76644156D01*
X164050502Y-76495875D01*
X164055000Y-76494975D01*
X164059497Y-76495875D01*
G37*
%TD.AperFunction*%
%TD*%
%TA.AperFunction,Conductor*%
%TO.N,Net-(D4-K)*%
G36*
X158825696Y-71755890D02*
G01*
X159437437Y-71987141D01*
X159442925Y-71991433D01*
X159445000Y-71998085D01*
X159445000Y-72231915D01*
X159442925Y-72238567D01*
X159437437Y-72242859D01*
X158808655Y-72480551D01*
X158799884Y-72480350D01*
X158793719Y-72474109D01*
X158645875Y-72119497D01*
X158644975Y-72115000D01*
X158645875Y-72110502D01*
X158793719Y-71755889D01*
X158799884Y-71749649D01*
X158808654Y-71749448D01*
X158825696Y-71755890D01*
G37*
%TD.AperFunction*%
%TD*%
%TA.AperFunction,Conductor*%
%TO.N,Net-(D4-K)*%
G36*
X166626388Y-70469516D02*
G01*
X167255543Y-70935577D01*
X167259920Y-70942101D01*
X167259183Y-70949923D01*
X166627794Y-72303950D01*
X166623140Y-72309079D01*
X166616402Y-72310678D01*
X165580804Y-72240737D01*
X165573045Y-72237054D01*
X165569892Y-72229064D01*
X165569892Y-71993624D01*
X165571940Y-71987011D01*
X166282522Y-70949923D01*
X166609773Y-70472302D01*
X166614502Y-70468303D01*
X166620612Y-70467277D01*
X166626388Y-70469516D01*
G37*
%TD.AperFunction*%
%TD*%
%TA.AperFunction,Conductor*%
%TO.N,Net-(D5-K)*%
G36*
X155252465Y-55397483D02*
G01*
X155256825Y-55401693D01*
X155258493Y-55407521D01*
X155275896Y-56444959D01*
X155272963Y-56452905D01*
X155265435Y-56456789D01*
X154273576Y-56562270D01*
X154268440Y-56561667D01*
X154264066Y-56558909D01*
X154095022Y-56389865D01*
X154092332Y-56385680D01*
X154091625Y-56380755D01*
X154160050Y-55426326D01*
X154163671Y-55418672D01*
X154171506Y-55415465D01*
X155246586Y-55396019D01*
X155252465Y-55397483D01*
G37*
%TD.AperFunction*%
%TD*%
%TA.AperFunction,Conductor*%
%TO.N,Net-(D5-K)*%
G36*
X144618567Y-74307075D02*
G01*
X144622859Y-74312563D01*
X144860551Y-74941344D01*
X144860350Y-74950115D01*
X144854109Y-74956280D01*
X144499502Y-75104123D01*
X144495000Y-75105024D01*
X144490498Y-75104123D01*
X144135890Y-74956280D01*
X144129649Y-74950115D01*
X144129448Y-74941345D01*
X144367141Y-74312562D01*
X144371433Y-74307075D01*
X144378085Y-74305000D01*
X144611915Y-74305000D01*
X144618567Y-74307075D01*
G37*
%TD.AperFunction*%
%TD*%
%TA.AperFunction,Conductor*%
%TO.N,Net-(D6-K)*%
G36*
X138448014Y-77696643D02*
G01*
X138613356Y-77861985D01*
X138616592Y-77868155D01*
X138615747Y-77875071D01*
X138339206Y-78487760D01*
X138332862Y-78493820D01*
X138324090Y-78493767D01*
X137968804Y-78347563D01*
X137964983Y-78345016D01*
X137962436Y-78341195D01*
X137816232Y-77985909D01*
X137816179Y-77977137D01*
X137822237Y-77970794D01*
X138434928Y-77694251D01*
X138441844Y-77693407D01*
X138448014Y-77696643D01*
G37*
%TD.AperFunction*%
%TD*%
%TA.AperFunction,Conductor*%
%TO.N,Net-(D6-K)*%
G36*
X140006103Y-55415465D02*
G01*
X140013939Y-55418672D01*
X140017560Y-55426326D01*
X140085986Y-56380755D01*
X140085279Y-56385680D01*
X140082589Y-56389865D01*
X139913545Y-56558909D01*
X139909171Y-56561667D01*
X139904035Y-56562270D01*
X138912175Y-56456789D01*
X138904647Y-56452905D01*
X138901714Y-56444959D01*
X138919118Y-55407519D01*
X138920786Y-55401693D01*
X138925146Y-55397483D01*
X138931024Y-55396019D01*
X140006103Y-55415465D01*
G37*
%TD.AperFunction*%
%TD*%
%TA.AperFunction,Conductor*%
%TO.N,Net-(U1-I1)*%
G36*
X151325984Y-85998551D02*
G01*
X151825148Y-86390597D01*
X151828944Y-86395877D01*
X151829333Y-86402371D01*
X151826193Y-86408069D01*
X151661426Y-86572836D01*
X151654996Y-86576117D01*
X151048518Y-86672843D01*
X151041930Y-86671984D01*
X151036872Y-86667676D01*
X151034975Y-86661312D01*
X151034301Y-86279164D01*
X151035193Y-86274666D01*
X151037746Y-86270856D01*
X151310505Y-85999457D01*
X151318072Y-85996072D01*
X151325984Y-85998551D01*
G37*
%TD.AperFunction*%
%TD*%
%TA.AperFunction,Conductor*%
%TO.N,Net-(U1-I1)*%
G36*
X153155071Y-87714252D02*
G01*
X153767760Y-87990793D01*
X153773820Y-87997137D01*
X153773767Y-88005909D01*
X153627563Y-88361195D01*
X153625016Y-88365016D01*
X153621195Y-88367563D01*
X153265909Y-88513767D01*
X153257137Y-88513820D01*
X153250793Y-88507760D01*
X153186676Y-88365707D01*
X153020320Y-87997137D01*
X152974252Y-87895071D01*
X152973407Y-87888155D01*
X152976641Y-87881987D01*
X153141987Y-87716641D01*
X153148155Y-87713407D01*
X153155071Y-87714252D01*
G37*
%TD.AperFunction*%
%TD*%
%TA.AperFunction,Conductor*%
%TO.N,Net-(U1-I2)*%
G36*
X151715071Y-88034252D02*
G01*
X152327760Y-88310793D01*
X152333820Y-88317137D01*
X152333767Y-88325909D01*
X152187563Y-88681195D01*
X152185016Y-88685016D01*
X152181195Y-88687563D01*
X151825909Y-88833767D01*
X151817137Y-88833820D01*
X151810793Y-88827760D01*
X151746676Y-88685707D01*
X151580320Y-88317137D01*
X151534252Y-88215071D01*
X151533407Y-88208155D01*
X151536641Y-88201987D01*
X151701987Y-88036641D01*
X151708155Y-88033407D01*
X151715071Y-88034252D01*
G37*
%TD.AperFunction*%
%TD*%
%TA.AperFunction,Conductor*%
%TO.N,Net-(U1-I2)*%
G36*
X151209608Y-87281018D02*
G01*
X151520831Y-87840629D01*
X151522193Y-87847936D01*
X151518879Y-87854589D01*
X151353524Y-88019944D01*
X151347874Y-88023073D01*
X151341425Y-88022728D01*
X150693636Y-87798603D01*
X150688476Y-87795039D01*
X150685897Y-87789321D01*
X150686642Y-87783094D01*
X150832437Y-87428801D01*
X150834983Y-87424983D01*
X150838801Y-87422437D01*
X151194934Y-87275884D01*
X151203245Y-87275661D01*
X151209608Y-87281018D01*
G37*
%TD.AperFunction*%
%TD*%
M02*
