%TF.GenerationSoftware,KiCad,Pcbnew,(7.0.0)*%
%TF.CreationDate,2023-12-18T14:13:41-05:00*%
%TF.ProjectId,MAGFest2023SolderingClass_variant1,4d414746-6573-4743-9230-3233536f6c64,rev?*%
%TF.SameCoordinates,Original*%
%TF.FileFunction,Paste,Bot*%
%TF.FilePolarity,Positive*%
%FSLAX46Y46*%
G04 Gerber Fmt 4.6, Leading zero omitted, Abs format (unit mm)*
G04 Created by KiCad (PCBNEW (7.0.0)) date 2023-12-18 14:13:41*
%MOMM*%
%LPD*%
G01*
G04 APERTURE LIST*
G04 Aperture macros list*
%AMRoundRect*
0 Rectangle with rounded corners*
0 $1 Rounding radius*
0 $2 $3 $4 $5 $6 $7 $8 $9 X,Y pos of 4 corners*
0 Add a 4 corners polygon primitive as box body*
4,1,4,$2,$3,$4,$5,$6,$7,$8,$9,$2,$3,0*
0 Add four circle primitives for the rounded corners*
1,1,$1+$1,$2,$3*
1,1,$1+$1,$4,$5*
1,1,$1+$1,$6,$7*
1,1,$1+$1,$8,$9*
0 Add four rect primitives between the rounded corners*
20,1,$1+$1,$2,$3,$4,$5,0*
20,1,$1+$1,$4,$5,$6,$7,0*
20,1,$1+$1,$6,$7,$8,$9,0*
20,1,$1+$1,$8,$9,$2,$3,0*%
G04 Aperture macros list end*
%ADD10RoundRect,0.250000X0.412500X0.650000X-0.412500X0.650000X-0.412500X-0.650000X0.412500X-0.650000X0*%
%ADD11RoundRect,0.250000X0.400000X0.625000X-0.400000X0.625000X-0.400000X-0.625000X0.400000X-0.625000X0*%
%ADD12RoundRect,0.150000X-0.825000X-0.150000X0.825000X-0.150000X0.825000X0.150000X-0.825000X0.150000X0*%
%ADD13RoundRect,0.150000X-0.150000X0.725000X-0.150000X-0.725000X0.150000X-0.725000X0.150000X0.725000X0*%
G04 APERTURE END LIST*
D10*
%TO.C,C2*%
X163720000Y-66295000D03*
X160595000Y-66295000D03*
%TD*%
D11*
%TO.C,R4*%
X134425000Y-73665000D03*
X131325000Y-73665000D03*
%TD*%
D10*
%TO.C,C4*%
X163720000Y-74285000D03*
X160595000Y-74285000D03*
%TD*%
D11*
%TO.C,R3*%
X134525000Y-69685000D03*
X131425000Y-69685000D03*
%TD*%
D12*
%TO.C,U1*%
X155095000Y-86885000D03*
X155095000Y-85615000D03*
X155095000Y-84345000D03*
X155095000Y-83075000D03*
X155095000Y-81805000D03*
X155095000Y-80535000D03*
X155095000Y-79265000D03*
X155095000Y-77995000D03*
X160045000Y-77995000D03*
X160045000Y-79265000D03*
X160045000Y-80535000D03*
X160045000Y-81805000D03*
X160045000Y-83075000D03*
X160045000Y-84345000D03*
X160045000Y-85615000D03*
X160045000Y-86885000D03*
%TD*%
D10*
%TO.C,C1*%
X163720000Y-62025000D03*
X160595000Y-62025000D03*
%TD*%
D11*
%TO.C,R5*%
X134425000Y-77645000D03*
X131325000Y-77645000D03*
%TD*%
%TO.C,R1*%
X134465000Y-61455000D03*
X131365000Y-61455000D03*
%TD*%
%TO.C,R2*%
X134525000Y-65705000D03*
X131425000Y-65705000D03*
%TD*%
%TO.C,R6*%
X134425000Y-81625000D03*
X131325000Y-81625000D03*
%TD*%
D13*
%TO.C,U2*%
X140235000Y-81245000D03*
X141505000Y-81245000D03*
X142775000Y-81245000D03*
X144045000Y-81245000D03*
X145315000Y-81245000D03*
X146585000Y-81245000D03*
X147855000Y-81245000D03*
X149125000Y-81245000D03*
X149125000Y-86395000D03*
X147855000Y-86395000D03*
X146585000Y-86395000D03*
X145315000Y-86395000D03*
X144045000Y-86395000D03*
X142775000Y-86395000D03*
X141505000Y-86395000D03*
X140235000Y-86395000D03*
%TD*%
D10*
%TO.C,C3*%
X163720000Y-70290000D03*
X160595000Y-70290000D03*
%TD*%
M02*
