%TF.GenerationSoftware,KiCad,Pcbnew,(7.0.0)*%
%TF.CreationDate,2023-12-18T14:13:41-05:00*%
%TF.ProjectId,MAGFest2023SolderingClass_variant1,4d414746-6573-4743-9230-3233536f6c64,rev?*%
%TF.SameCoordinates,Original*%
%TF.FileFunction,Legend,Bot*%
%TF.FilePolarity,Positive*%
%FSLAX46Y46*%
G04 Gerber Fmt 4.6, Leading zero omitted, Abs format (unit mm)*
G04 Created by KiCad (PCBNEW (7.0.0)) date 2023-12-18 14:13:41*
%MOMM*%
%LPD*%
G01*
G04 APERTURE LIST*
G04 Aperture macros list*
%AMRoundRect*
0 Rectangle with rounded corners*
0 $1 Rounding radius*
0 $2 $3 $4 $5 $6 $7 $8 $9 X,Y pos of 4 corners*
0 Add a 4 corners polygon primitive as box body*
4,1,4,$2,$3,$4,$5,$6,$7,$8,$9,$2,$3,0*
0 Add four circle primitives for the rounded corners*
1,1,$1+$1,$2,$3*
1,1,$1+$1,$4,$5*
1,1,$1+$1,$6,$7*
1,1,$1+$1,$8,$9*
0 Add four rect primitives between the rounded corners*
20,1,$1+$1,$2,$3,$4,$5,0*
20,1,$1+$1,$4,$5,$6,$7,0*
20,1,$1+$1,$6,$7,$8,$9,0*
20,1,$1+$1,$8,$9,$2,$3,0*%
G04 Aperture macros list end*
%ADD10C,0.187500*%
%ADD11C,0.500000*%
%ADD12C,0.150000*%
%ADD13C,0.120000*%
%ADD14RoundRect,0.381000X-0.016563X1.181968X-0.708143X-0.946497X0.016563X-1.181968X0.708143X0.946497X0*%
%ADD15RoundRect,0.381000X-0.419820X1.105022X-0.341715X-1.131615X0.419820X-1.105022X0.341715X1.131615X0*%
%ADD16RoundRect,0.381000X-0.708143X0.946497X-0.016563X-1.181968X0.708143X-0.946497X0.016563X1.181968X0*%
%ADD17RoundRect,0.381000X0.558543X1.041802X-1.078226X-0.484510X-0.558543X-1.041802X1.078226X0.484510X0*%
%ADD18R,1.700000X1.700000*%
%ADD19O,1.700000X1.700000*%
%ADD20RoundRect,0.381000X-1.078226X0.484510X0.558543X-1.041802X1.078226X-0.484510X-0.558543X1.041802X0*%
%ADD21RoundRect,0.381000X-0.361413X1.125479X-0.400471X-1.112180X0.361413X-1.125479X0.400471X1.112180X0*%
%ADD22RoundRect,0.250000X0.412500X0.650000X-0.412500X0.650000X-0.412500X-0.650000X0.412500X-0.650000X0*%
%ADD23RoundRect,0.250000X0.400000X0.625000X-0.400000X0.625000X-0.400000X-0.625000X0.400000X-0.625000X0*%
%ADD24RoundRect,0.150000X-0.825000X-0.150000X0.825000X-0.150000X0.825000X0.150000X-0.825000X0.150000X0*%
%ADD25RoundRect,0.150000X-0.150000X0.725000X-0.150000X-0.725000X0.150000X-0.725000X0.150000X0.725000X0*%
G04 APERTURE END LIST*
D10*
G36*
X155639232Y-73725317D02*
G01*
X155634058Y-73697048D01*
X155630536Y-73669853D01*
X155628666Y-73643731D01*
X155628447Y-73618682D01*
X155629879Y-73594707D01*
X155632963Y-73571805D01*
X155637699Y-73549976D01*
X155644086Y-73529221D01*
X155652124Y-73509538D01*
X155661814Y-73490930D01*
X155673156Y-73473394D01*
X155686149Y-73456932D01*
X155700794Y-73441544D01*
X155717090Y-73427228D01*
X155735037Y-73413986D01*
X155754636Y-73401817D01*
X155770957Y-73394084D01*
X155788410Y-73386819D01*
X155802245Y-73381679D01*
X155816716Y-73376803D01*
X155831826Y-73372191D01*
X155847573Y-73367843D01*
X155863957Y-73363759D01*
X155880979Y-73359939D01*
X155898639Y-73356383D01*
X155916936Y-73353091D01*
X155935906Y-73350079D01*
X155955584Y-73347364D01*
X155975971Y-73344944D01*
X155997066Y-73342821D01*
X156018870Y-73340994D01*
X156033799Y-73339941D01*
X156049044Y-73339020D01*
X156064603Y-73338230D01*
X156080477Y-73337571D01*
X156096665Y-73337045D01*
X156113169Y-73336650D01*
X156129987Y-73336386D01*
X156147120Y-73336255D01*
X156155805Y-73336238D01*
X156171256Y-73336238D01*
X156185939Y-73336238D01*
X156201234Y-73336238D01*
X156216164Y-73336719D01*
X156232375Y-73338162D01*
X156247612Y-73340213D01*
X156263831Y-73343000D01*
X156268645Y-73343932D01*
X156295024Y-73343932D01*
X156309409Y-73347017D01*
X156311510Y-73347962D01*
X156325432Y-73351992D01*
X156340447Y-73353795D01*
X156358427Y-73355711D01*
X156375531Y-73357251D01*
X156391758Y-73358416D01*
X156407108Y-73359205D01*
X156424372Y-73359655D01*
X156429846Y-73359685D01*
X156446796Y-73359685D01*
X156462063Y-73359685D01*
X156477450Y-73359685D01*
X156492133Y-73359685D01*
X156493593Y-73359685D01*
X156517530Y-73359518D01*
X156540614Y-73359016D01*
X156562844Y-73358179D01*
X156584222Y-73357006D01*
X156604747Y-73355499D01*
X156624419Y-73353658D01*
X156643238Y-73351481D01*
X156661205Y-73348969D01*
X156678318Y-73346123D01*
X156694578Y-73342941D01*
X156709985Y-73339425D01*
X156724540Y-73335574D01*
X156744772Y-73329170D01*
X156763085Y-73322011D01*
X156774228Y-73316821D01*
X156792332Y-73306828D01*
X156808175Y-73295535D01*
X156821758Y-73282940D01*
X156833081Y-73269045D01*
X156842143Y-73253848D01*
X156848945Y-73237351D01*
X156853486Y-73219553D01*
X156855767Y-73200454D01*
X156855787Y-73180055D01*
X156853547Y-73158354D01*
X156850798Y-73143164D01*
X156847435Y-73127966D01*
X156843757Y-73113420D01*
X156837650Y-73092825D01*
X156830834Y-73073698D01*
X156823310Y-73056040D01*
X156815078Y-73039849D01*
X156806137Y-73025128D01*
X156796488Y-73011874D01*
X156786130Y-73000089D01*
X156775064Y-72989772D01*
X156763289Y-72980923D01*
X156759207Y-72978300D01*
X156746094Y-72970762D01*
X156731438Y-72963855D01*
X156717648Y-72958436D01*
X156702724Y-72953482D01*
X156686667Y-72948991D01*
X156672331Y-72945719D01*
X156657029Y-72943002D01*
X156640761Y-72940839D01*
X156623526Y-72939231D01*
X156605326Y-72938177D01*
X156590071Y-72937734D01*
X156578223Y-72937634D01*
X155949908Y-72937634D01*
X155932719Y-72937778D01*
X155916140Y-72938212D01*
X155900170Y-72938935D01*
X155884810Y-72939947D01*
X155870060Y-72941247D01*
X155849077Y-72943741D01*
X155829466Y-72946885D01*
X155811227Y-72950679D01*
X155794360Y-72955123D01*
X155778864Y-72960219D01*
X155764740Y-72965964D01*
X155748042Y-72974637D01*
X155735434Y-72982642D01*
X155722382Y-72993736D01*
X155711597Y-73006453D01*
X155703079Y-73020792D01*
X155696828Y-73036755D01*
X155694553Y-73045345D01*
X155691760Y-73060288D01*
X155690023Y-73076035D01*
X155689341Y-73092588D01*
X155689715Y-73109945D01*
X155691145Y-73128108D01*
X155693048Y-73143217D01*
X155694919Y-73154888D01*
X155691627Y-73169686D01*
X155682096Y-73172107D01*
X155548740Y-73172107D01*
X155535030Y-73165524D01*
X155530788Y-73155254D01*
X155526348Y-73131768D01*
X155522921Y-73109026D01*
X155520506Y-73087031D01*
X155519104Y-73065781D01*
X155518714Y-73045277D01*
X155519337Y-73025518D01*
X155520973Y-73006505D01*
X155523621Y-72988238D01*
X155527281Y-72970716D01*
X155531954Y-72953940D01*
X155537639Y-72937909D01*
X155544337Y-72922624D01*
X155552048Y-72908085D01*
X155560771Y-72894291D01*
X155570506Y-72881243D01*
X155581254Y-72868941D01*
X155593015Y-72857384D01*
X155605788Y-72846572D01*
X155619573Y-72836507D01*
X155634371Y-72827186D01*
X155650182Y-72818612D01*
X155667005Y-72810783D01*
X155684841Y-72803700D01*
X155703689Y-72797362D01*
X155723549Y-72791770D01*
X155744422Y-72786924D01*
X155766308Y-72782823D01*
X155789206Y-72779468D01*
X155813117Y-72776858D01*
X155838040Y-72774994D01*
X155863976Y-72773875D01*
X155890924Y-72773503D01*
X156540488Y-72773503D01*
X156565176Y-72773864D01*
X156589233Y-72774947D01*
X156612657Y-72776752D01*
X156635450Y-72779279D01*
X156657611Y-72782528D01*
X156679141Y-72786499D01*
X156700038Y-72791192D01*
X156720304Y-72796606D01*
X156739938Y-72802743D01*
X156758939Y-72809602D01*
X156777310Y-72817183D01*
X156795048Y-72825486D01*
X156812154Y-72834511D01*
X156828629Y-72844258D01*
X156844472Y-72854727D01*
X156859683Y-72865918D01*
X156874262Y-72877831D01*
X156888209Y-72890466D01*
X156901524Y-72903823D01*
X156914208Y-72917902D01*
X156926260Y-72932703D01*
X156937679Y-72948225D01*
X156948468Y-72964470D01*
X156958624Y-72981437D01*
X156968148Y-72999126D01*
X156977041Y-73017537D01*
X156985301Y-73036670D01*
X156992930Y-73056525D01*
X156999927Y-73077102D01*
X157006293Y-73098400D01*
X157012026Y-73120421D01*
X157017128Y-73143164D01*
X157022371Y-73171492D01*
X157026012Y-73198680D01*
X157028050Y-73224729D01*
X157028485Y-73249639D01*
X157027317Y-73273410D01*
X157024546Y-73296041D01*
X157020173Y-73317534D01*
X157014197Y-73337887D01*
X157006617Y-73357101D01*
X156997435Y-73375176D01*
X156986651Y-73392112D01*
X156974263Y-73407908D01*
X156960272Y-73422566D01*
X156944679Y-73436084D01*
X156927483Y-73448463D01*
X156908684Y-73459703D01*
X156893593Y-73467467D01*
X156877354Y-73474730D01*
X156859967Y-73481492D01*
X156841433Y-73487753D01*
X156821751Y-73493513D01*
X156800921Y-73498772D01*
X156778944Y-73503531D01*
X156755818Y-73507788D01*
X156731545Y-73511545D01*
X156706124Y-73514801D01*
X156679556Y-73517556D01*
X156651839Y-73519810D01*
X156622975Y-73521563D01*
X156608113Y-73522251D01*
X156592964Y-73522815D01*
X156577527Y-73523253D01*
X156561804Y-73523566D01*
X156545794Y-73523754D01*
X156529497Y-73523817D01*
X156513920Y-73523817D01*
X156498985Y-73523817D01*
X156484056Y-73523817D01*
X156476008Y-73523817D01*
X156461038Y-73523449D01*
X156444982Y-73522344D01*
X156430355Y-73520811D01*
X156414929Y-73518738D01*
X156398705Y-73516123D01*
X156371594Y-73516123D01*
X156357009Y-73512341D01*
X156356573Y-73512093D01*
X156345215Y-73508063D01*
X156308213Y-73508063D01*
X156275606Y-73508063D01*
X156259212Y-73505065D01*
X156244010Y-73502804D01*
X156228096Y-73501121D01*
X156212054Y-73500377D01*
X156210393Y-73500369D01*
X156195668Y-73500369D01*
X156180055Y-73500369D01*
X156165229Y-73500369D01*
X156160934Y-73500369D01*
X156142688Y-73500447D01*
X156124905Y-73500678D01*
X156107585Y-73501065D01*
X156090730Y-73501606D01*
X156074338Y-73502301D01*
X156058409Y-73503151D01*
X156042945Y-73504156D01*
X156027944Y-73505315D01*
X156008664Y-73507101D01*
X155990208Y-73509162D01*
X155972663Y-73511566D01*
X155956114Y-73514383D01*
X155940560Y-73517611D01*
X155926003Y-73521252D01*
X155909207Y-73526383D01*
X155893968Y-73532157D01*
X155880285Y-73538576D01*
X155877735Y-73539937D01*
X155859581Y-73549754D01*
X155843727Y-73561073D01*
X155830172Y-73573892D01*
X155818916Y-73588211D01*
X155809959Y-73604031D01*
X155803301Y-73621351D01*
X155798942Y-73640172D01*
X155796883Y-73660493D01*
X155797122Y-73682315D01*
X155798559Y-73697697D01*
X155801017Y-73713745D01*
X155802630Y-73722020D01*
X155806128Y-73737682D01*
X155810026Y-73752794D01*
X155814325Y-73767357D01*
X155819025Y-73781371D01*
X155825463Y-73798115D01*
X155832527Y-73814000D01*
X155840218Y-73829027D01*
X155841831Y-73831929D01*
X155850461Y-73845766D01*
X155860092Y-73858655D01*
X155870725Y-73870596D01*
X155882360Y-73881589D01*
X155894997Y-73891633D01*
X155908635Y-73900730D01*
X155914371Y-73904103D01*
X155927951Y-73911213D01*
X155942587Y-73917704D01*
X155958279Y-73923577D01*
X155975027Y-73928832D01*
X155989791Y-73932739D01*
X155999001Y-73934877D01*
X156014949Y-73938044D01*
X156031881Y-73940673D01*
X156049797Y-73942766D01*
X156064838Y-73944054D01*
X156080508Y-73944999D01*
X156096809Y-73945600D01*
X156113739Y-73945858D01*
X156118070Y-73945868D01*
X156707550Y-73945868D01*
X156725267Y-73945708D01*
X156742331Y-73945227D01*
X156758743Y-73944426D01*
X156774503Y-73943304D01*
X156789610Y-73941861D01*
X156807575Y-73939607D01*
X156824522Y-73936852D01*
X156831014Y-73935610D01*
X156846401Y-73932138D01*
X156860732Y-73928362D01*
X156876535Y-73923428D01*
X156890819Y-73918058D01*
X156905563Y-73911238D01*
X156911248Y-73908133D01*
X156923874Y-73900410D01*
X156936995Y-73889797D01*
X156947900Y-73877716D01*
X156956589Y-73864166D01*
X156963064Y-73849148D01*
X156965470Y-73841088D01*
X156968819Y-73823807D01*
X156970429Y-73808403D01*
X156970966Y-73792087D01*
X156970429Y-73774858D01*
X156968819Y-73756717D01*
X156966758Y-73741547D01*
X156965470Y-73733743D01*
X156967885Y-73718878D01*
X156980491Y-73714692D01*
X157109818Y-73714692D01*
X157123716Y-73720069D01*
X157129968Y-73733743D01*
X157134437Y-73757503D01*
X157137770Y-73780512D01*
X157139967Y-73802772D01*
X157141027Y-73824281D01*
X157140952Y-73845041D01*
X157139739Y-73865051D01*
X157137391Y-73884311D01*
X157133906Y-73902821D01*
X157129285Y-73920581D01*
X157123528Y-73937591D01*
X157116634Y-73953851D01*
X157108604Y-73969361D01*
X157099438Y-73984122D01*
X157089135Y-73998132D01*
X157077696Y-74011393D01*
X157065121Y-74023904D01*
X157053587Y-74034330D01*
X157041239Y-74044083D01*
X157028078Y-74053163D01*
X157014105Y-74061571D01*
X156999319Y-74069306D01*
X156983720Y-74076368D01*
X156967308Y-74082758D01*
X156950083Y-74088476D01*
X156932045Y-74093520D01*
X156913195Y-74097892D01*
X156893531Y-74101592D01*
X156873055Y-74104619D01*
X156851766Y-74106973D01*
X156829664Y-74108654D01*
X156806749Y-74109663D01*
X156783021Y-74110000D01*
X156146280Y-74110000D01*
X156126044Y-74109842D01*
X156106279Y-74109368D01*
X156086983Y-74108579D01*
X156068158Y-74107475D01*
X156049803Y-74106055D01*
X156031918Y-74104319D01*
X156014503Y-74102268D01*
X155997559Y-74099902D01*
X155981084Y-74097219D01*
X155965080Y-74094222D01*
X155954671Y-74092048D01*
X155939365Y-74088485D01*
X155924498Y-74084530D01*
X155910068Y-74080182D01*
X155896076Y-74075441D01*
X155878101Y-74068509D01*
X155860905Y-74060878D01*
X155844487Y-74052549D01*
X155828848Y-74043522D01*
X155813987Y-74033796D01*
X155798020Y-74021471D01*
X155782726Y-74008219D01*
X155768104Y-73994039D01*
X155754155Y-73978933D01*
X155740879Y-73962899D01*
X155728275Y-73945937D01*
X155716344Y-73928048D01*
X155705086Y-73909232D01*
X155694500Y-73889488D01*
X155684586Y-73868817D01*
X155675346Y-73847219D01*
X155666778Y-73824693D01*
X155658882Y-73801240D01*
X155651659Y-73776860D01*
X155645109Y-73751552D01*
X155639232Y-73725317D01*
G37*
G36*
X154971613Y-72984776D02*
G01*
X154987379Y-72985520D01*
X155002894Y-72986760D01*
X155018158Y-72988495D01*
X155033171Y-72990727D01*
X155047932Y-72993454D01*
X155062443Y-72996678D01*
X155076702Y-73000397D01*
X155095324Y-73006127D01*
X155113499Y-73012739D01*
X155131216Y-73020077D01*
X155148647Y-73028172D01*
X155165792Y-73037022D01*
X155182650Y-73046627D01*
X155199222Y-73056988D01*
X155211464Y-73065255D01*
X155223544Y-73073947D01*
X155235463Y-73083064D01*
X155247222Y-73092606D01*
X155261689Y-73107272D01*
X155275598Y-73122785D01*
X155288949Y-73139146D01*
X155301741Y-73156353D01*
X155313976Y-73174408D01*
X155325652Y-73193310D01*
X155336771Y-73213060D01*
X155347331Y-73233656D01*
X155357333Y-73255100D01*
X155366777Y-73277391D01*
X155375662Y-73300529D01*
X155383990Y-73324515D01*
X155391760Y-73349347D01*
X155398971Y-73375027D01*
X155405624Y-73401554D01*
X155411719Y-73428928D01*
X155461178Y-73667798D01*
X155466481Y-73695004D01*
X155470894Y-73721346D01*
X155474418Y-73746824D01*
X155477052Y-73771439D01*
X155478797Y-73795190D01*
X155479653Y-73818077D01*
X155479619Y-73840101D01*
X155478695Y-73861261D01*
X155476882Y-73881557D01*
X155474180Y-73900990D01*
X155470588Y-73919559D01*
X155466107Y-73937264D01*
X155460737Y-73954106D01*
X155454477Y-73970084D01*
X155447327Y-73985198D01*
X155439288Y-73999449D01*
X155430360Y-74012836D01*
X155420542Y-74025359D01*
X155409835Y-74037019D01*
X155398238Y-74047815D01*
X155385752Y-74057747D01*
X155372377Y-74066816D01*
X155358112Y-74075021D01*
X155342957Y-74082362D01*
X155326913Y-74088839D01*
X155309980Y-74094453D01*
X155292158Y-74099204D01*
X155273445Y-74103090D01*
X155253844Y-74106113D01*
X155233353Y-74108272D01*
X155211972Y-74109568D01*
X155189703Y-74110000D01*
X154873164Y-74110000D01*
X154852337Y-74109566D01*
X154831896Y-74108265D01*
X154811842Y-74106097D01*
X154792174Y-74103061D01*
X154772893Y-74099159D01*
X154753998Y-74094389D01*
X154735490Y-74088752D01*
X154717367Y-74082247D01*
X154699632Y-74074876D01*
X154682282Y-74066637D01*
X154665319Y-74057531D01*
X154648743Y-74047557D01*
X154632553Y-74036717D01*
X154616749Y-74025009D01*
X154601332Y-74012434D01*
X154586301Y-73998991D01*
X154571748Y-73984689D01*
X154557764Y-73969533D01*
X154544350Y-73953525D01*
X154531506Y-73936663D01*
X154519232Y-73918949D01*
X154507527Y-73900382D01*
X154496391Y-73880962D01*
X154485825Y-73860689D01*
X154475829Y-73839563D01*
X154466402Y-73817584D01*
X154457545Y-73794752D01*
X154449257Y-73771067D01*
X154441539Y-73746529D01*
X154434391Y-73721138D01*
X154427812Y-73694894D01*
X154421803Y-73667798D01*
X154372344Y-73428928D01*
X154368267Y-73408555D01*
X154364693Y-73388653D01*
X154361621Y-73369220D01*
X154359052Y-73350257D01*
X154356984Y-73331765D01*
X154356877Y-73330537D01*
X154507147Y-73330537D01*
X154508878Y-73359594D01*
X154510562Y-73374930D01*
X154512792Y-73390804D01*
X154515568Y-73407216D01*
X154518890Y-73424166D01*
X154569448Y-73668164D01*
X154573226Y-73685250D01*
X154577325Y-73701792D01*
X154581744Y-73717793D01*
X154586484Y-73733251D01*
X154591544Y-73748167D01*
X154596925Y-73762540D01*
X154602627Y-73776371D01*
X154614992Y-73802406D01*
X154628639Y-73826271D01*
X154643568Y-73847967D01*
X154659780Y-73867493D01*
X154677273Y-73884849D01*
X154696050Y-73900036D01*
X154716108Y-73913054D01*
X154737449Y-73923901D01*
X154760072Y-73932580D01*
X154783977Y-73939088D01*
X154809165Y-73943428D01*
X154835634Y-73945597D01*
X154849350Y-73945868D01*
X155143174Y-73945868D01*
X155169789Y-73944784D01*
X155194219Y-73941529D01*
X155216466Y-73936105D01*
X155236528Y-73928512D01*
X155254407Y-73918749D01*
X155270102Y-73906816D01*
X155283613Y-73892714D01*
X155294941Y-73876442D01*
X155304084Y-73858001D01*
X155311044Y-73837390D01*
X155315819Y-73814610D01*
X155318411Y-73789660D01*
X155318819Y-73762540D01*
X155317043Y-73733251D01*
X155315336Y-73717793D01*
X155313083Y-73701792D01*
X155310284Y-73685250D01*
X155306939Y-73668164D01*
X155256747Y-73426364D01*
X155252969Y-73409278D01*
X155248872Y-73392736D01*
X155244454Y-73376735D01*
X155239717Y-73361277D01*
X155234660Y-73346361D01*
X155229283Y-73331988D01*
X155223586Y-73318157D01*
X155211233Y-73292122D01*
X155197600Y-73268257D01*
X155182688Y-73246561D01*
X155166496Y-73227035D01*
X155149025Y-73209679D01*
X155130275Y-73194492D01*
X155110245Y-73181474D01*
X155088936Y-73170626D01*
X155066347Y-73161948D01*
X155042479Y-73155440D01*
X155017331Y-73151100D01*
X154990905Y-73148931D01*
X154977211Y-73148660D01*
X154683387Y-73148660D01*
X154656727Y-73149736D01*
X154632251Y-73152964D01*
X154609958Y-73158345D01*
X154589850Y-73165879D01*
X154571925Y-73175565D01*
X154556184Y-73187403D01*
X154542627Y-73201393D01*
X154531254Y-73217536D01*
X154522065Y-73235831D01*
X154515060Y-73256279D01*
X154510239Y-73278879D01*
X154507601Y-73303632D01*
X154507147Y-73330537D01*
X154356877Y-73330537D01*
X154355420Y-73313743D01*
X154354357Y-73296190D01*
X154353797Y-73279108D01*
X154353739Y-73262496D01*
X154354183Y-73246354D01*
X154354758Y-73235854D01*
X154356020Y-73220480D01*
X154357880Y-73205543D01*
X154360339Y-73191045D01*
X154364549Y-73172395D01*
X154369824Y-73154523D01*
X154376164Y-73137430D01*
X154383568Y-73121115D01*
X154392038Y-73105579D01*
X154399088Y-73094438D01*
X154408655Y-73081128D01*
X154418947Y-73068678D01*
X154429962Y-73057086D01*
X154441701Y-73046352D01*
X154454165Y-73036478D01*
X154467352Y-73027462D01*
X154481264Y-73019304D01*
X154495900Y-73012006D01*
X154511260Y-73005566D01*
X154527345Y-72999984D01*
X154544153Y-72995262D01*
X154561686Y-72991398D01*
X154579942Y-72988392D01*
X154598923Y-72986246D01*
X154618628Y-72984958D01*
X154639057Y-72984528D01*
X154955596Y-72984528D01*
X154971613Y-72984776D01*
G37*
G36*
X154273059Y-74110000D02*
G01*
X154259402Y-74103283D01*
X154254375Y-74090949D01*
X153930875Y-72534633D01*
X153931866Y-72519768D01*
X153941499Y-72515582D01*
X154027595Y-72515582D01*
X154041892Y-72519768D01*
X154049749Y-72532326D01*
X154050310Y-72534633D01*
X154373809Y-74090949D01*
X154371681Y-74105814D01*
X154359155Y-74110000D01*
X154273059Y-74110000D01*
G37*
G36*
X152970098Y-72520959D02*
G01*
X152976130Y-72534633D01*
X153082375Y-73044979D01*
X153085872Y-73039817D01*
X153097379Y-73025315D01*
X153110413Y-73012288D01*
X153124972Y-73000736D01*
X153141058Y-72990658D01*
X153158671Y-72982056D01*
X153177809Y-72974927D01*
X153198474Y-72969274D01*
X153213099Y-72966325D01*
X153228401Y-72964031D01*
X153244383Y-72962392D01*
X153261042Y-72961409D01*
X153278380Y-72961081D01*
X153588324Y-72961081D01*
X153608441Y-72961536D01*
X153628218Y-72962902D01*
X153647654Y-72965177D01*
X153666749Y-72968363D01*
X153685504Y-72972458D01*
X153703918Y-72977464D01*
X153721991Y-72983381D01*
X153739724Y-72990207D01*
X153757117Y-72997944D01*
X153774168Y-73006590D01*
X153790879Y-73016147D01*
X153807250Y-73026615D01*
X153823280Y-73037992D01*
X153838969Y-73050279D01*
X153854318Y-73063477D01*
X153869326Y-73077585D01*
X153883879Y-73092509D01*
X153897862Y-73108245D01*
X153911276Y-73124794D01*
X153924120Y-73142157D01*
X153936395Y-73160332D01*
X153948100Y-73179320D01*
X153959235Y-73199121D01*
X153969801Y-73219734D01*
X153979797Y-73241161D01*
X153989224Y-73263400D01*
X153998081Y-73286453D01*
X154006369Y-73310318D01*
X154014087Y-73334996D01*
X154021235Y-73360487D01*
X154027814Y-73386791D01*
X154033823Y-73413907D01*
X154084748Y-73659371D01*
X154090175Y-73687096D01*
X154094733Y-73713940D01*
X154098421Y-73739904D01*
X154101240Y-73764987D01*
X154103190Y-73789191D01*
X154104270Y-73812515D01*
X154104480Y-73834958D01*
X154103822Y-73856521D01*
X154102294Y-73877204D01*
X154099896Y-73897007D01*
X154096629Y-73915930D01*
X154092493Y-73933973D01*
X154087487Y-73951136D01*
X154081612Y-73967418D01*
X154074868Y-73982820D01*
X154067254Y-73997342D01*
X154058771Y-74010985D01*
X154049418Y-74023746D01*
X154039196Y-74035628D01*
X154028105Y-74046630D01*
X154016144Y-74056751D01*
X154003313Y-74065993D01*
X153989614Y-74074354D01*
X153975045Y-74081835D01*
X153959606Y-74088436D01*
X153943298Y-74094157D01*
X153926121Y-74098998D01*
X153908074Y-74102958D01*
X153889158Y-74106039D01*
X153869373Y-74108239D01*
X153848718Y-74109559D01*
X153827194Y-74110000D01*
X153516883Y-74110000D01*
X153512026Y-74109974D01*
X153492540Y-74109364D01*
X153477866Y-74108374D01*
X153463139Y-74106926D01*
X153448362Y-74105021D01*
X153433533Y-74102658D01*
X153418652Y-74099839D01*
X153403720Y-74096562D01*
X153388736Y-74092828D01*
X153373701Y-74088636D01*
X153358614Y-74083988D01*
X153348623Y-74080530D01*
X153333954Y-74074743D01*
X153319665Y-74068234D01*
X153305756Y-74061004D01*
X153292226Y-74053053D01*
X153279077Y-74044380D01*
X153266307Y-74034986D01*
X153253918Y-74024871D01*
X153241908Y-74014035D01*
X153230279Y-74002477D01*
X153219029Y-73990198D01*
X153207947Y-73979620D01*
X153197414Y-73968766D01*
X153187430Y-73957638D01*
X153177996Y-73946235D01*
X153176853Y-73944785D01*
X153167837Y-73932672D01*
X153159050Y-73919643D01*
X153150492Y-73905698D01*
X153143192Y-73892745D01*
X153136984Y-73880922D01*
X153129676Y-73866411D01*
X153122298Y-73851129D01*
X153115918Y-73837416D01*
X153109486Y-73823136D01*
X153108387Y-73820694D01*
X153101793Y-73805392D01*
X153096297Y-73791795D01*
X153090802Y-73777428D01*
X153085306Y-73762293D01*
X153079811Y-73746388D01*
X153074315Y-73729713D01*
X152993075Y-73338851D01*
X153149205Y-73338851D01*
X153149947Y-73360556D01*
X153151239Y-73375677D01*
X153153169Y-73391319D01*
X153155738Y-73407482D01*
X153158945Y-73424166D01*
X153209504Y-73668164D01*
X153211410Y-73676977D01*
X153215528Y-73694173D01*
X153220056Y-73710797D01*
X153224994Y-73726848D01*
X153230340Y-73742327D01*
X153236096Y-73757234D01*
X153242261Y-73771568D01*
X153248836Y-73785329D01*
X153255820Y-73798518D01*
X153267063Y-73817229D01*
X153279227Y-73834651D01*
X153292312Y-73850785D01*
X153306318Y-73865632D01*
X153321245Y-73879190D01*
X153333733Y-73889206D01*
X153346239Y-73898417D01*
X153358763Y-73906823D01*
X153371305Y-73914424D01*
X153386379Y-73922483D01*
X153401479Y-73929382D01*
X153417055Y-73934985D01*
X153433558Y-73939428D01*
X153448020Y-73942246D01*
X153463125Y-73944258D01*
X153478874Y-73945466D01*
X153495268Y-73945868D01*
X153750257Y-73945868D01*
X153765326Y-73945641D01*
X153786731Y-73944446D01*
X153806700Y-73942228D01*
X153825234Y-73938985D01*
X153842331Y-73934719D01*
X153857992Y-73929428D01*
X153872217Y-73923114D01*
X153888949Y-73913102D01*
X153903129Y-73901269D01*
X153914755Y-73887616D01*
X153924679Y-73875354D01*
X153933019Y-73861371D01*
X153939774Y-73845669D01*
X153944946Y-73828248D01*
X153948533Y-73809107D01*
X153950536Y-73788247D01*
X153950991Y-73773385D01*
X153950742Y-73757759D01*
X153949788Y-73741368D01*
X153948131Y-73724214D01*
X153945770Y-73706295D01*
X153942704Y-73687612D01*
X153938935Y-73668164D01*
X153888377Y-73424166D01*
X153884597Y-73407216D01*
X153880448Y-73390804D01*
X153875930Y-73374930D01*
X153871043Y-73359594D01*
X153865787Y-73344796D01*
X153860161Y-73330537D01*
X153847802Y-73303632D01*
X153833966Y-73278879D01*
X153818653Y-73256279D01*
X153801863Y-73235831D01*
X153783596Y-73217536D01*
X153763853Y-73201393D01*
X153742632Y-73187403D01*
X153719935Y-73175565D01*
X153695761Y-73165879D01*
X153670109Y-73158345D01*
X153642981Y-73152964D01*
X153614376Y-73149736D01*
X153599520Y-73148929D01*
X153584294Y-73148660D01*
X153329305Y-73148660D01*
X153323224Y-73148734D01*
X153305651Y-73149850D01*
X153289083Y-73152306D01*
X153273520Y-73156101D01*
X153258961Y-73161236D01*
X153245407Y-73167711D01*
X153241047Y-73170103D01*
X153228394Y-73177969D01*
X153216386Y-73186865D01*
X153205021Y-73196791D01*
X153194301Y-73207747D01*
X153184225Y-73219734D01*
X153174913Y-73233235D01*
X153167038Y-73247907D01*
X153160599Y-73263752D01*
X153155597Y-73280768D01*
X153152030Y-73298957D01*
X153149899Y-73318318D01*
X153149205Y-73338851D01*
X152993075Y-73338851D01*
X152825920Y-72534633D01*
X152826742Y-72521610D01*
X152840575Y-72515582D01*
X152957811Y-72515582D01*
X152970098Y-72520959D01*
G37*
G36*
X152434496Y-72984991D02*
G01*
X152452555Y-72986377D01*
X152470503Y-72988689D01*
X152488339Y-72991924D01*
X152506063Y-72996085D01*
X152523675Y-73001169D01*
X152541177Y-73007179D01*
X152558566Y-73014112D01*
X152575844Y-73021971D01*
X152593010Y-73030753D01*
X152610064Y-73040461D01*
X152627007Y-73051092D01*
X152643839Y-73062648D01*
X152660558Y-73075129D01*
X152677166Y-73088534D01*
X152693663Y-73102864D01*
X152708907Y-73118719D01*
X152723499Y-73135144D01*
X152737438Y-73152139D01*
X152750724Y-73169703D01*
X152763358Y-73187836D01*
X152775339Y-73206539D01*
X152786668Y-73225812D01*
X152797344Y-73245655D01*
X152807367Y-73266067D01*
X152816738Y-73287048D01*
X152825457Y-73308599D01*
X152833522Y-73330720D01*
X152840936Y-73353410D01*
X152847696Y-73376670D01*
X152853804Y-73400499D01*
X152859259Y-73424898D01*
X152913848Y-73686482D01*
X152918910Y-73712539D01*
X152923106Y-73737768D01*
X152926435Y-73762170D01*
X152928897Y-73785744D01*
X152930493Y-73808492D01*
X152931223Y-73830412D01*
X152931086Y-73851505D01*
X152930082Y-73871771D01*
X152928212Y-73891210D01*
X152925475Y-73909821D01*
X152921872Y-73927606D01*
X152917403Y-73944563D01*
X152912066Y-73960693D01*
X152905864Y-73975996D01*
X152898794Y-73990472D01*
X152890858Y-74004120D01*
X152882056Y-74016942D01*
X152872387Y-74028936D01*
X152861852Y-74040103D01*
X152850450Y-74050442D01*
X152838181Y-74059955D01*
X152825046Y-74068640D01*
X152811044Y-74076499D01*
X152796176Y-74083530D01*
X152780441Y-74089734D01*
X152763840Y-74095110D01*
X152746372Y-74099660D01*
X152728038Y-74103382D01*
X152708837Y-74106277D01*
X152688770Y-74108345D01*
X152667836Y-74109586D01*
X152646035Y-74110000D01*
X152260254Y-74110000D01*
X152244477Y-74109672D01*
X152228930Y-74108689D01*
X152213611Y-74107050D01*
X152198521Y-74104756D01*
X152183661Y-74101806D01*
X152169029Y-74098201D01*
X152154626Y-74093941D01*
X152140453Y-74089025D01*
X152126508Y-74083454D01*
X152112792Y-74077227D01*
X152099305Y-74070345D01*
X152086048Y-74062807D01*
X152073019Y-74054614D01*
X152060219Y-74045766D01*
X152047648Y-74036262D01*
X152035306Y-74026102D01*
X152021453Y-74014298D01*
X152008287Y-74001968D01*
X151995808Y-73989111D01*
X151984015Y-73975727D01*
X151972910Y-73961817D01*
X151962491Y-73947380D01*
X151952760Y-73932416D01*
X151943715Y-73916926D01*
X151935294Y-73900788D01*
X151927435Y-73884067D01*
X151920136Y-73866762D01*
X151913398Y-73848873D01*
X151907222Y-73830401D01*
X151902957Y-73816163D01*
X151899009Y-73801597D01*
X151895375Y-73786702D01*
X151892058Y-73771479D01*
X151864580Y-73639221D01*
X151868307Y-73624946D01*
X151881861Y-73619338D01*
X151895355Y-73618339D01*
X151927961Y-73618339D01*
X151943250Y-73618686D01*
X151956904Y-73619438D01*
X151972234Y-73620814D01*
X151988228Y-73622735D01*
X152001601Y-73624567D01*
X152020285Y-73714692D01*
X152023643Y-73730160D01*
X152027212Y-73745055D01*
X152030993Y-73759377D01*
X152037061Y-73779788D01*
X152043607Y-73798910D01*
X152050628Y-73816745D01*
X152058127Y-73833291D01*
X152066102Y-73848550D01*
X152074553Y-73862520D01*
X152083481Y-73875203D01*
X152092885Y-73886597D01*
X152099420Y-73893478D01*
X152113279Y-73905757D01*
X152128294Y-73916399D01*
X152144466Y-73925403D01*
X152161793Y-73932771D01*
X152180278Y-73938501D01*
X152194900Y-73941724D01*
X152210172Y-73944026D01*
X152226095Y-73945408D01*
X152242668Y-73945868D01*
X152616360Y-73945868D01*
X152640261Y-73944745D01*
X152662138Y-73941375D01*
X152681992Y-73935758D01*
X152699822Y-73927894D01*
X152715629Y-73917783D01*
X152729412Y-73905425D01*
X152741171Y-73890821D01*
X152750907Y-73873969D01*
X152758619Y-73854871D01*
X152764308Y-73833526D01*
X152767973Y-73809934D01*
X152769615Y-73784096D01*
X152769233Y-73756010D01*
X152768283Y-73741125D01*
X152766827Y-73725678D01*
X152764865Y-73709669D01*
X152762398Y-73693098D01*
X152759424Y-73675966D01*
X152755945Y-73658272D01*
X152732864Y-73547264D01*
X151864214Y-73547264D01*
X151849837Y-73542836D01*
X151841738Y-73529554D01*
X151841133Y-73527114D01*
X151808893Y-73372508D01*
X151805726Y-73355863D01*
X151803093Y-73339450D01*
X151801420Y-73326554D01*
X151954556Y-73326554D01*
X151955067Y-73344660D01*
X151956582Y-73363520D01*
X151959102Y-73383133D01*
X152698792Y-73383133D01*
X152693773Y-73364604D01*
X152688059Y-73346661D01*
X152681649Y-73329304D01*
X152674543Y-73312533D01*
X152666742Y-73296348D01*
X152658246Y-73280750D01*
X152649054Y-73265737D01*
X152639166Y-73251310D01*
X152628583Y-73237470D01*
X152617304Y-73224215D01*
X152609399Y-73215704D01*
X152597206Y-73203723D01*
X152584807Y-73192920D01*
X152572202Y-73183295D01*
X152559390Y-73174849D01*
X152546373Y-73167581D01*
X152528696Y-73159725D01*
X152510652Y-73153963D01*
X152492243Y-73150296D01*
X152473466Y-73148725D01*
X152468715Y-73148660D01*
X152105282Y-73148660D01*
X152090582Y-73149223D01*
X152072055Y-73151728D01*
X152054753Y-73156236D01*
X152038676Y-73162747D01*
X152023824Y-73171262D01*
X152010197Y-73181781D01*
X151997795Y-73194303D01*
X151986618Y-73208829D01*
X151984015Y-73212773D01*
X151974650Y-73229380D01*
X151967071Y-73247326D01*
X151962559Y-73261665D01*
X151959051Y-73276757D01*
X151956548Y-73292603D01*
X151955050Y-73309202D01*
X151954556Y-73326554D01*
X151801420Y-73326554D01*
X151800994Y-73323268D01*
X151799431Y-73307318D01*
X151798401Y-73291600D01*
X151797906Y-73276114D01*
X151797946Y-73260860D01*
X151798520Y-73245838D01*
X151799629Y-73231047D01*
X151801939Y-73211687D01*
X151802665Y-73206912D01*
X151806100Y-73188227D01*
X151810542Y-73170275D01*
X151815991Y-73153056D01*
X151822449Y-73136570D01*
X151829913Y-73120816D01*
X151838385Y-73105795D01*
X151847865Y-73091507D01*
X151858352Y-73077951D01*
X151868668Y-73067098D01*
X151879464Y-73056885D01*
X151890741Y-73047314D01*
X151902499Y-73038384D01*
X151914738Y-73030095D01*
X151927458Y-73022447D01*
X151940658Y-73015440D01*
X151954340Y-73009075D01*
X151968491Y-73003322D01*
X151983282Y-72998336D01*
X151998716Y-72994117D01*
X152014790Y-72990665D01*
X152031505Y-72987980D01*
X152048862Y-72986063D01*
X152066859Y-72984912D01*
X152085498Y-72984528D01*
X152416325Y-72984528D01*
X152434496Y-72984991D01*
G37*
G36*
X150664005Y-73446880D02*
G01*
X150649627Y-73442292D01*
X150641874Y-73429729D01*
X150640924Y-73425997D01*
X150635670Y-73398842D01*
X150631358Y-73372514D01*
X150627988Y-73347013D01*
X150625559Y-73322339D01*
X150624072Y-73298493D01*
X150623527Y-73275473D01*
X150623924Y-73253281D01*
X150625262Y-73231916D01*
X150627541Y-73211378D01*
X150630763Y-73191667D01*
X150634926Y-73172784D01*
X150640031Y-73154728D01*
X150646077Y-73137498D01*
X150653065Y-73121096D01*
X150660995Y-73105522D01*
X150669867Y-73090774D01*
X150679471Y-73077908D01*
X150689782Y-73065873D01*
X150700800Y-73054667D01*
X150712525Y-73044292D01*
X150724957Y-73034746D01*
X150738096Y-73026031D01*
X150751942Y-73018145D01*
X150766495Y-73011090D01*
X150781755Y-73004865D01*
X150797722Y-72999469D01*
X150814396Y-72994904D01*
X150831777Y-72991169D01*
X150849864Y-72988264D01*
X150868659Y-72986189D01*
X150888161Y-72984943D01*
X150908370Y-72984528D01*
X151288289Y-72984528D01*
X151304965Y-72985290D01*
X151322018Y-72987574D01*
X151339449Y-72991381D01*
X151357258Y-72996710D01*
X151375444Y-73003562D01*
X151389332Y-73009701D01*
X151403432Y-73016696D01*
X151417745Y-73024547D01*
X151432271Y-73033255D01*
X151446682Y-73042768D01*
X151460791Y-73053034D01*
X151474597Y-73064054D01*
X151488101Y-73075828D01*
X151501302Y-73088354D01*
X151514200Y-73101635D01*
X151526796Y-73115669D01*
X151539089Y-73130456D01*
X151551079Y-73145997D01*
X151562766Y-73162291D01*
X151570390Y-73173572D01*
X151573321Y-73179801D01*
X151576252Y-73183831D01*
X151584518Y-73197615D01*
X151591709Y-73211139D01*
X151598351Y-73224495D01*
X151605584Y-73239747D01*
X151611795Y-73253314D01*
X151618384Y-73268094D01*
X151625053Y-73283957D01*
X151631504Y-73300953D01*
X151637738Y-73319082D01*
X151642271Y-73333423D01*
X151646681Y-73348401D01*
X151650969Y-73364017D01*
X151655135Y-73380271D01*
X151659178Y-73397162D01*
X151663099Y-73414690D01*
X151665645Y-73426730D01*
X151803764Y-74091315D01*
X151802502Y-74106423D01*
X151793506Y-74110000D01*
X151678467Y-74110000D01*
X151663671Y-74106423D01*
X151654822Y-74094654D01*
X151653921Y-74091315D01*
X151515435Y-73424532D01*
X151511710Y-73407538D01*
X151507679Y-73391084D01*
X151503341Y-73375172D01*
X151498697Y-73359800D01*
X151493747Y-73344969D01*
X151488490Y-73330680D01*
X151482928Y-73316931D01*
X151474009Y-73297322D01*
X151464402Y-73278931D01*
X151454105Y-73261756D01*
X151443120Y-73245799D01*
X151431445Y-73231059D01*
X151419081Y-73217536D01*
X151405958Y-73205227D01*
X151392003Y-73194129D01*
X151377218Y-73184241D01*
X151361602Y-73175565D01*
X151345156Y-73168098D01*
X151327878Y-73161843D01*
X151309770Y-73156798D01*
X151290831Y-73152964D01*
X151271061Y-73150341D01*
X151250461Y-73148929D01*
X151236266Y-73148660D01*
X150952700Y-73148660D01*
X150926307Y-73149743D01*
X150902084Y-73152993D01*
X150880031Y-73158410D01*
X150860147Y-73165993D01*
X150842433Y-73175743D01*
X150826888Y-73187660D01*
X150813513Y-73201744D01*
X150802307Y-73217994D01*
X150793271Y-73236411D01*
X150786405Y-73256995D01*
X150781708Y-73279745D01*
X150779180Y-73304662D01*
X150778823Y-73331746D01*
X150780635Y-73360996D01*
X150782354Y-73376434D01*
X150784616Y-73392414D01*
X150787420Y-73408935D01*
X150790767Y-73425997D01*
X150790300Y-73440986D01*
X150778677Y-73446880D01*
X150664005Y-73446880D01*
G37*
G36*
X150628467Y-74110000D02*
G01*
X150616070Y-74101795D01*
X150612347Y-74090949D01*
X150381904Y-72982330D01*
X150382172Y-72967465D01*
X150389964Y-72963279D01*
X150480456Y-72963279D01*
X150493807Y-72969996D01*
X150498774Y-72982330D01*
X150729218Y-74090949D01*
X150728330Y-74105814D01*
X150718959Y-74110000D01*
X150628467Y-74110000D01*
G37*
G36*
X150338673Y-72715251D02*
G01*
X150326118Y-72706257D01*
X150322187Y-72694368D01*
X150288848Y-72534633D01*
X150289115Y-72519768D01*
X150296908Y-72515582D01*
X150387400Y-72515582D01*
X150400751Y-72522298D01*
X150405718Y-72534633D01*
X150439057Y-72694368D01*
X150439073Y-72709357D01*
X150429165Y-72715251D01*
X150338673Y-72715251D01*
G37*
G36*
X149482114Y-74110000D02*
G01*
X149467817Y-74105894D01*
X149459665Y-74092464D01*
X149459399Y-74091315D01*
X149328241Y-73458970D01*
X149322659Y-73430501D01*
X149318005Y-73402888D01*
X149314279Y-73376130D01*
X149311479Y-73350229D01*
X149309608Y-73325183D01*
X149308663Y-73300993D01*
X149308646Y-73277659D01*
X149309556Y-73255180D01*
X149311394Y-73233557D01*
X149314158Y-73212791D01*
X149317851Y-73192880D01*
X149322470Y-73173824D01*
X149328017Y-73155625D01*
X149334492Y-73138281D01*
X149341893Y-73121793D01*
X149350222Y-73106161D01*
X149359363Y-73091432D01*
X149369291Y-73077654D01*
X149380005Y-73064825D01*
X149391507Y-73052947D01*
X149403796Y-73042019D01*
X149416872Y-73032041D01*
X149430735Y-73023014D01*
X149445386Y-73014937D01*
X149460823Y-73007810D01*
X149477047Y-73001633D01*
X149494059Y-72996407D01*
X149511858Y-72992131D01*
X149530444Y-72988805D01*
X149549817Y-72986429D01*
X149569977Y-72985004D01*
X149590924Y-72984528D01*
X149892808Y-72984528D01*
X149914182Y-72985012D01*
X149935163Y-72986463D01*
X149955752Y-72988882D01*
X149975950Y-72992268D01*
X149995755Y-72996621D01*
X150015168Y-73001942D01*
X150034189Y-73008231D01*
X150052818Y-73015486D01*
X150071054Y-73023709D01*
X150088899Y-73032900D01*
X150106351Y-73043058D01*
X150123411Y-73054183D01*
X150140079Y-73066276D01*
X150156356Y-73079337D01*
X150172239Y-73093364D01*
X150187731Y-73108360D01*
X150202731Y-73124232D01*
X150217138Y-73140892D01*
X150230952Y-73158338D01*
X150244174Y-73176572D01*
X150256804Y-73195593D01*
X150268841Y-73215401D01*
X150280285Y-73235996D01*
X150291137Y-73257378D01*
X150301397Y-73279548D01*
X150311064Y-73302504D01*
X150320139Y-73326248D01*
X150328621Y-73350778D01*
X150336511Y-73376096D01*
X150343808Y-73402201D01*
X150350513Y-73429093D01*
X150356625Y-73456772D01*
X150488516Y-74091315D01*
X150487008Y-74105894D01*
X150476060Y-74110000D01*
X150361021Y-74110000D01*
X150346225Y-74106353D01*
X150337376Y-74094353D01*
X150336475Y-74090949D01*
X150199088Y-73430027D01*
X150195504Y-73413983D01*
X150191526Y-73398366D01*
X150187157Y-73383174D01*
X150182396Y-73368410D01*
X150177243Y-73354071D01*
X150171697Y-73340159D01*
X150165759Y-73326674D01*
X150156118Y-73307246D01*
X150145594Y-73288777D01*
X150134187Y-73271268D01*
X150121899Y-73254718D01*
X150108728Y-73239128D01*
X150094675Y-73224497D01*
X150080064Y-73210944D01*
X150065222Y-73198724D01*
X150050149Y-73187837D01*
X150034843Y-73178284D01*
X150019305Y-73170063D01*
X150003536Y-73163175D01*
X149987535Y-73157621D01*
X149971301Y-73153399D01*
X149954837Y-73150511D01*
X149938140Y-73148956D01*
X149926880Y-73148660D01*
X149624996Y-73148660D01*
X149608110Y-73149317D01*
X149592074Y-73151287D01*
X149576889Y-73154572D01*
X149562553Y-73159170D01*
X149549068Y-73165082D01*
X149532410Y-73175008D01*
X149517263Y-73187270D01*
X149506895Y-73197999D01*
X149497376Y-73210041D01*
X149488708Y-73223398D01*
X149481093Y-73237851D01*
X149474733Y-73253322D01*
X149469630Y-73269811D01*
X149465782Y-73287317D01*
X149463190Y-73305841D01*
X149461853Y-73325382D01*
X149461773Y-73345940D01*
X149462948Y-73367517D01*
X149464429Y-73382466D01*
X149466469Y-73397867D01*
X149469066Y-73413721D01*
X149472222Y-73430027D01*
X149609608Y-74090949D01*
X149608100Y-74105814D01*
X149597152Y-74110000D01*
X149482114Y-74110000D01*
G37*
G36*
X148755464Y-72961529D02*
G01*
X148776084Y-72962873D01*
X148796222Y-72965113D01*
X148815880Y-72968248D01*
X148835057Y-72972280D01*
X148853753Y-72977207D01*
X148871968Y-72983030D01*
X148889703Y-72989749D01*
X148906956Y-72997364D01*
X148923729Y-73005875D01*
X148940020Y-73015282D01*
X148955831Y-73025584D01*
X148971161Y-73036783D01*
X148986011Y-73048877D01*
X149000379Y-73061867D01*
X149014266Y-73075753D01*
X149027673Y-73090535D01*
X149040599Y-73106213D01*
X149053044Y-73122787D01*
X149065008Y-73140256D01*
X149076491Y-73158622D01*
X149087493Y-73177883D01*
X149098015Y-73198040D01*
X149108056Y-73219093D01*
X149117615Y-73241042D01*
X149126694Y-73263887D01*
X149135293Y-73287628D01*
X149143410Y-73312264D01*
X149151046Y-73337797D01*
X149158202Y-73364225D01*
X149164876Y-73391549D01*
X149171070Y-73419769D01*
X149224926Y-73678789D01*
X149230103Y-73705318D01*
X149234414Y-73731006D01*
X149237860Y-73755851D01*
X149240439Y-73779854D01*
X149242153Y-73803015D01*
X149243001Y-73825333D01*
X149242983Y-73846809D01*
X149242099Y-73867443D01*
X149240350Y-73887235D01*
X149237734Y-73906185D01*
X149234253Y-73924293D01*
X149229906Y-73941558D01*
X149224693Y-73957981D01*
X149218615Y-73973562D01*
X149211670Y-73988300D01*
X149203860Y-74002197D01*
X149195184Y-74015251D01*
X149185642Y-74027463D01*
X149175234Y-74038833D01*
X149163961Y-74049360D01*
X149151821Y-74059046D01*
X149138816Y-74067889D01*
X149124945Y-74075890D01*
X149110208Y-74083049D01*
X149094605Y-74089365D01*
X149078137Y-74094840D01*
X149060803Y-74099472D01*
X149042602Y-74103262D01*
X149023536Y-74106210D01*
X149003605Y-74108315D01*
X148982807Y-74109578D01*
X148961144Y-74110000D01*
X148636545Y-74110000D01*
X148619117Y-74109705D01*
X148602187Y-74108820D01*
X148585755Y-74107346D01*
X148569821Y-74105283D01*
X148554385Y-74102629D01*
X148539447Y-74099386D01*
X148525007Y-74095554D01*
X148504281Y-74088700D01*
X148484675Y-74080519D01*
X148466190Y-74071011D01*
X148448826Y-74060177D01*
X148432582Y-74048016D01*
X148417459Y-74034528D01*
X148445669Y-74170083D01*
X148449009Y-74185140D01*
X148452661Y-74199719D01*
X148460908Y-74227442D01*
X148470407Y-74253254D01*
X148481161Y-74277153D01*
X148493168Y-74299141D01*
X148506428Y-74319216D01*
X148520943Y-74337380D01*
X148536711Y-74353632D01*
X148553732Y-74367971D01*
X148572007Y-74380399D01*
X148591536Y-74390915D01*
X148612319Y-74399519D01*
X148634355Y-74406211D01*
X148657645Y-74410991D01*
X148682189Y-74413859D01*
X148707986Y-74414815D01*
X149003642Y-74414815D01*
X149018696Y-74414411D01*
X149035085Y-74412963D01*
X149050604Y-74410461D01*
X149065253Y-74406907D01*
X149067023Y-74406388D01*
X149082047Y-74401330D01*
X149095797Y-74395633D01*
X149109578Y-74388557D01*
X149114650Y-74385505D01*
X149112452Y-74385505D01*
X149124651Y-74376392D01*
X149136856Y-74363068D01*
X149145681Y-74347598D01*
X149150306Y-74333676D01*
X149152768Y-74318381D01*
X149153066Y-74301711D01*
X149151199Y-74283668D01*
X149149455Y-74274131D01*
X149150963Y-74259266D01*
X149161911Y-74255080D01*
X149286841Y-74255080D01*
X149301138Y-74259266D01*
X149308995Y-74271824D01*
X149309556Y-74274131D01*
X149312370Y-74288935D01*
X149315261Y-74308144D01*
X149317167Y-74326745D01*
X149318089Y-74344740D01*
X149318026Y-74362128D01*
X149316978Y-74378909D01*
X149314946Y-74395083D01*
X149311930Y-74410651D01*
X149311021Y-74414448D01*
X149306717Y-74429240D01*
X149301496Y-74443391D01*
X149295359Y-74456901D01*
X149288307Y-74469769D01*
X149278203Y-74484953D01*
X149266669Y-74499136D01*
X149256410Y-74509760D01*
X149250938Y-74514832D01*
X149236352Y-74526290D01*
X149220897Y-74536621D01*
X149204573Y-74545825D01*
X149187379Y-74553901D01*
X149169316Y-74560851D01*
X149150384Y-74566674D01*
X149130582Y-74571370D01*
X149109910Y-74574939D01*
X149088370Y-74577380D01*
X149073526Y-74578382D01*
X149058296Y-74578883D01*
X149050536Y-74578946D01*
X148733998Y-74578946D01*
X148713703Y-74578625D01*
X148693852Y-74577663D01*
X148674445Y-74576061D01*
X148655481Y-74573817D01*
X148636961Y-74570932D01*
X148618885Y-74567405D01*
X148601252Y-74563238D01*
X148584063Y-74558429D01*
X148567318Y-74552980D01*
X148551016Y-74546889D01*
X148535158Y-74540157D01*
X148519743Y-74532784D01*
X148504772Y-74524770D01*
X148490245Y-74516114D01*
X148476162Y-74506818D01*
X148462522Y-74496880D01*
X148451165Y-74487516D01*
X148440175Y-74477560D01*
X148429552Y-74467011D01*
X148419297Y-74455870D01*
X148409408Y-74444137D01*
X148399886Y-74431810D01*
X148390732Y-74418892D01*
X148381945Y-74405381D01*
X148373524Y-74391277D01*
X148365471Y-74376581D01*
X148360306Y-74366454D01*
X148352767Y-74350856D01*
X148345537Y-74334697D01*
X148338616Y-74317977D01*
X148332005Y-74300698D01*
X148325702Y-74282858D01*
X148319708Y-74264458D01*
X148314024Y-74245497D01*
X148308649Y-74225977D01*
X148303583Y-74205896D01*
X148298826Y-74185254D01*
X148295826Y-74171182D01*
X148124001Y-73345764D01*
X148120860Y-73325936D01*
X148119979Y-73319307D01*
X148275851Y-73319307D01*
X148276237Y-73335145D01*
X148277202Y-73351604D01*
X148278744Y-73368684D01*
X148280865Y-73386386D01*
X148283564Y-73404708D01*
X148286842Y-73423652D01*
X148290697Y-73443217D01*
X148335760Y-73660104D01*
X148339617Y-73677555D01*
X148343860Y-73694462D01*
X148348490Y-73710826D01*
X148353506Y-73726645D01*
X148358908Y-73741921D01*
X148364697Y-73756653D01*
X148370872Y-73770841D01*
X148377434Y-73784485D01*
X148384382Y-73797585D01*
X148395528Y-73816216D01*
X148407544Y-73833623D01*
X148420430Y-73849807D01*
X148434184Y-73864767D01*
X148443837Y-73874061D01*
X148458750Y-73886894D01*
X148474088Y-73898464D01*
X148489851Y-73908772D01*
X148506039Y-73917819D01*
X148522652Y-73925602D01*
X148539690Y-73932124D01*
X148557153Y-73937383D01*
X148575041Y-73941380D01*
X148593355Y-73944115D01*
X148612093Y-73945588D01*
X148624821Y-73945868D01*
X148887504Y-73945868D01*
X148902255Y-73945589D01*
X148929999Y-73943357D01*
X148955398Y-73938892D01*
X148978453Y-73932194D01*
X148999164Y-73923264D01*
X149017531Y-73912101D01*
X149033554Y-73898706D01*
X149047232Y-73883078D01*
X149058567Y-73865218D01*
X149067557Y-73845125D01*
X149074203Y-73822800D01*
X149078505Y-73798242D01*
X149080463Y-73771452D01*
X149080076Y-73742429D01*
X149079004Y-73727080D01*
X149077346Y-73711173D01*
X149075101Y-73694708D01*
X149072271Y-73677685D01*
X149068855Y-73660104D01*
X149021594Y-73432592D01*
X149017991Y-73416275D01*
X149014188Y-73400435D01*
X149010185Y-73385071D01*
X149005983Y-73370184D01*
X149001581Y-73355774D01*
X148996980Y-73341840D01*
X148990534Y-73324002D01*
X148983734Y-73307012D01*
X148976578Y-73290869D01*
X148972867Y-73283115D01*
X148965254Y-73268203D01*
X148957434Y-73254058D01*
X148949408Y-73240680D01*
X148941177Y-73228069D01*
X148930597Y-73213384D01*
X148919696Y-73199898D01*
X148908472Y-73187610D01*
X148906189Y-73185296D01*
X148893692Y-73174558D01*
X148880107Y-73164877D01*
X148865433Y-73156252D01*
X148849672Y-73148683D01*
X148832821Y-73142170D01*
X148814883Y-73136713D01*
X148795856Y-73132312D01*
X148775740Y-73128968D01*
X148754537Y-73126679D01*
X148739796Y-73125740D01*
X148724572Y-73125271D01*
X148716779Y-73125212D01*
X148454095Y-73125212D01*
X148426538Y-73126455D01*
X148401293Y-73130181D01*
X148378361Y-73136392D01*
X148357742Y-73145088D01*
X148339435Y-73156267D01*
X148323441Y-73169932D01*
X148309759Y-73186080D01*
X148298391Y-73204713D01*
X148289335Y-73225831D01*
X148282591Y-73249433D01*
X148278160Y-73275519D01*
X148276042Y-73304090D01*
X148275851Y-73319307D01*
X148119979Y-73319307D01*
X148118304Y-73306707D01*
X148116334Y-73288077D01*
X148114951Y-73270046D01*
X148114153Y-73252614D01*
X148113942Y-73235781D01*
X148114317Y-73219547D01*
X148115277Y-73203912D01*
X148116824Y-73188876D01*
X148119798Y-73169759D01*
X148120704Y-73165146D01*
X148124745Y-73147183D01*
X148129542Y-73130112D01*
X148135095Y-73113935D01*
X148141404Y-73098651D01*
X148148468Y-73084260D01*
X148156287Y-73070761D01*
X148164862Y-73058156D01*
X148174193Y-73046444D01*
X148184211Y-73035487D01*
X148194847Y-73025332D01*
X148209011Y-73013765D01*
X148224142Y-73003451D01*
X148236942Y-72996100D01*
X148250360Y-72989552D01*
X148264396Y-72983804D01*
X148271646Y-72981231D01*
X148286427Y-72976509D01*
X148301642Y-72972416D01*
X148317293Y-72968952D01*
X148333378Y-72966119D01*
X148349899Y-72963915D01*
X148366855Y-72962341D01*
X148384246Y-72961396D01*
X148402072Y-72961081D01*
X148734364Y-72961081D01*
X148755464Y-72961529D01*
G37*
G36*
X145052037Y-72800980D02*
G01*
X145050938Y-72794752D01*
X145051405Y-72779500D01*
X145063028Y-72773503D01*
X145215069Y-72773503D01*
X145227708Y-72781379D01*
X145237233Y-72792733D01*
X145245844Y-72805010D01*
X145918488Y-73934877D01*
X146107899Y-72803178D01*
X146112960Y-72788833D01*
X146121295Y-72775850D01*
X146126950Y-72773503D01*
X146278991Y-72773503D01*
X146291722Y-72780922D01*
X146302191Y-72793093D01*
X146309399Y-72803178D01*
X146968122Y-73934877D01*
X147166325Y-72805010D01*
X147171033Y-72789779D01*
X147178447Y-72776580D01*
X147184643Y-72773503D01*
X147334486Y-72773503D01*
X147348733Y-72777010D01*
X147357989Y-72788630D01*
X147359765Y-72794752D01*
X147360864Y-72800980D01*
X147118698Y-74097177D01*
X147110111Y-74109198D01*
X147102944Y-74110000D01*
X146899612Y-74110000D01*
X146886024Y-74102865D01*
X146875520Y-74092003D01*
X146869570Y-74084720D01*
X146248583Y-73005411D01*
X146067965Y-74082522D01*
X146062734Y-74097012D01*
X146054006Y-74109329D01*
X146051479Y-74110000D01*
X145858038Y-74110000D01*
X145844379Y-74104477D01*
X145838987Y-74097177D01*
X145052037Y-72800980D01*
G37*
G36*
X144687035Y-72984776D02*
G01*
X144702802Y-72985520D01*
X144718317Y-72986760D01*
X144733580Y-72988495D01*
X144748593Y-72990727D01*
X144763355Y-72993454D01*
X144777865Y-72996678D01*
X144792124Y-73000397D01*
X144810746Y-73006127D01*
X144828921Y-73012739D01*
X144846638Y-73020077D01*
X144864069Y-73028172D01*
X144881214Y-73037022D01*
X144898072Y-73046627D01*
X144914645Y-73056988D01*
X144926886Y-73065255D01*
X144938966Y-73073947D01*
X144950886Y-73083064D01*
X144962644Y-73092606D01*
X144977111Y-73107272D01*
X144991020Y-73122785D01*
X145004371Y-73139146D01*
X145017164Y-73156353D01*
X145029398Y-73174408D01*
X145041075Y-73193310D01*
X145052193Y-73213060D01*
X145062753Y-73233656D01*
X145072755Y-73255100D01*
X145082199Y-73277391D01*
X145091085Y-73300529D01*
X145099412Y-73324515D01*
X145107182Y-73349347D01*
X145114393Y-73375027D01*
X145121046Y-73401554D01*
X145127142Y-73428928D01*
X145176601Y-73667798D01*
X145181903Y-73695004D01*
X145186316Y-73721346D01*
X145189840Y-73746824D01*
X145192475Y-73771439D01*
X145194219Y-73795190D01*
X145195075Y-73818077D01*
X145195041Y-73840101D01*
X145194117Y-73861261D01*
X145192305Y-73881557D01*
X145189602Y-73900990D01*
X145186011Y-73919559D01*
X145181529Y-73937264D01*
X145176159Y-73954106D01*
X145169899Y-73970084D01*
X145162749Y-73985198D01*
X145154710Y-73999449D01*
X145145782Y-74012836D01*
X145135964Y-74025359D01*
X145125257Y-74037019D01*
X145113660Y-74047815D01*
X145101174Y-74057747D01*
X145087799Y-74066816D01*
X145073534Y-74075021D01*
X145058380Y-74082362D01*
X145042336Y-74088839D01*
X145025402Y-74094453D01*
X145007580Y-74099204D01*
X144988868Y-74103090D01*
X144969266Y-74106113D01*
X144948775Y-74108272D01*
X144927395Y-74109568D01*
X144905125Y-74110000D01*
X144588586Y-74110000D01*
X144567759Y-74109566D01*
X144547319Y-74108265D01*
X144527264Y-74106097D01*
X144507597Y-74103061D01*
X144488315Y-74099159D01*
X144469420Y-74094389D01*
X144450912Y-74088752D01*
X144432790Y-74082247D01*
X144415054Y-74074876D01*
X144397705Y-74066637D01*
X144380742Y-74057531D01*
X144364165Y-74047557D01*
X144347975Y-74036717D01*
X144332171Y-74025009D01*
X144316754Y-74012434D01*
X144301723Y-73998991D01*
X144287170Y-73984689D01*
X144273186Y-73969533D01*
X144259773Y-73953525D01*
X144246928Y-73936663D01*
X144234654Y-73918949D01*
X144222949Y-73900382D01*
X144211813Y-73880962D01*
X144201247Y-73860689D01*
X144191251Y-73839563D01*
X144181824Y-73817584D01*
X144172967Y-73794752D01*
X144164680Y-73771067D01*
X144156962Y-73746529D01*
X144149813Y-73721138D01*
X144143234Y-73694894D01*
X144137225Y-73667798D01*
X144087766Y-73428928D01*
X144083690Y-73408555D01*
X144080115Y-73388653D01*
X144077043Y-73369220D01*
X144074474Y-73350257D01*
X144072407Y-73331765D01*
X144072300Y-73330537D01*
X144222570Y-73330537D01*
X144224300Y-73359594D01*
X144225984Y-73374930D01*
X144228214Y-73390804D01*
X144230990Y-73407216D01*
X144234312Y-73424166D01*
X144284870Y-73668164D01*
X144288648Y-73685250D01*
X144292747Y-73701792D01*
X144297166Y-73717793D01*
X144301906Y-73733251D01*
X144306966Y-73748167D01*
X144312347Y-73762540D01*
X144318049Y-73776371D01*
X144330414Y-73802406D01*
X144344061Y-73826271D01*
X144358990Y-73847967D01*
X144375202Y-73867493D01*
X144392696Y-73884849D01*
X144411472Y-73900036D01*
X144431530Y-73913054D01*
X144452871Y-73923901D01*
X144475494Y-73932580D01*
X144499399Y-73939088D01*
X144524587Y-73943428D01*
X144551057Y-73945597D01*
X144564772Y-73945868D01*
X144858596Y-73945868D01*
X144885211Y-73944784D01*
X144909641Y-73941529D01*
X144931888Y-73936105D01*
X144951951Y-73928512D01*
X144969830Y-73918749D01*
X144985525Y-73906816D01*
X144999036Y-73892714D01*
X145010363Y-73876442D01*
X145019506Y-73858001D01*
X145026466Y-73837390D01*
X145031241Y-73814610D01*
X145033833Y-73789660D01*
X145034241Y-73762540D01*
X145032465Y-73733251D01*
X145030758Y-73717793D01*
X145028505Y-73701792D01*
X145025706Y-73685250D01*
X145022361Y-73668164D01*
X144972169Y-73426364D01*
X144968392Y-73409278D01*
X144964294Y-73392736D01*
X144959877Y-73376735D01*
X144955139Y-73361277D01*
X144950082Y-73346361D01*
X144944705Y-73331988D01*
X144939008Y-73318157D01*
X144926655Y-73292122D01*
X144913022Y-73268257D01*
X144898110Y-73246561D01*
X144881918Y-73227035D01*
X144864447Y-73209679D01*
X144845697Y-73194492D01*
X144825667Y-73181474D01*
X144804358Y-73170626D01*
X144781769Y-73161948D01*
X144757901Y-73155440D01*
X144732754Y-73151100D01*
X144706327Y-73148931D01*
X144692633Y-73148660D01*
X144398809Y-73148660D01*
X144372149Y-73149736D01*
X144347673Y-73152964D01*
X144325380Y-73158345D01*
X144305272Y-73165879D01*
X144287347Y-73175565D01*
X144271607Y-73187403D01*
X144258050Y-73201393D01*
X144246677Y-73217536D01*
X144237487Y-73235831D01*
X144230482Y-73256279D01*
X144225661Y-73278879D01*
X144223023Y-73303632D01*
X144222570Y-73330537D01*
X144072300Y-73330537D01*
X144070842Y-73313743D01*
X144069779Y-73296190D01*
X144069219Y-73279108D01*
X144069161Y-73262496D01*
X144069605Y-73246354D01*
X144070181Y-73235854D01*
X144071442Y-73220480D01*
X144073302Y-73205543D01*
X144075761Y-73191045D01*
X144079971Y-73172395D01*
X144085246Y-73154523D01*
X144091586Y-73137430D01*
X144098991Y-73121115D01*
X144107460Y-73105579D01*
X144114511Y-73094438D01*
X144124078Y-73081128D01*
X144134369Y-73068678D01*
X144145384Y-73057086D01*
X144157123Y-73046352D01*
X144169587Y-73036478D01*
X144182775Y-73027462D01*
X144196686Y-73019304D01*
X144211322Y-73012006D01*
X144226683Y-73005566D01*
X144242767Y-72999984D01*
X144259575Y-72995262D01*
X144277108Y-72991398D01*
X144295364Y-72988392D01*
X144314345Y-72986246D01*
X144334050Y-72984958D01*
X144354479Y-72984528D01*
X144671018Y-72984528D01*
X144687035Y-72984776D01*
G37*
G36*
X143036301Y-73446880D02*
G01*
X143021923Y-73442292D01*
X143014170Y-73429729D01*
X143013220Y-73425997D01*
X143007966Y-73398842D01*
X143003654Y-73372514D01*
X143000284Y-73347013D01*
X142997855Y-73322339D01*
X142996368Y-73298493D01*
X142995823Y-73275473D01*
X142996220Y-73253281D01*
X142997558Y-73231916D01*
X142999837Y-73211378D01*
X143003059Y-73191667D01*
X143007222Y-73172784D01*
X143012327Y-73154728D01*
X143018373Y-73137498D01*
X143025361Y-73121096D01*
X143033291Y-73105522D01*
X143042162Y-73090774D01*
X143051767Y-73077908D01*
X143062078Y-73065873D01*
X143073096Y-73054667D01*
X143084821Y-73044292D01*
X143097253Y-73034746D01*
X143110392Y-73026031D01*
X143124238Y-73018145D01*
X143138791Y-73011090D01*
X143154051Y-73004865D01*
X143170018Y-72999469D01*
X143186692Y-72994904D01*
X143204073Y-72991169D01*
X143222160Y-72988264D01*
X143240955Y-72986189D01*
X143260457Y-72984943D01*
X143280666Y-72984528D01*
X143660585Y-72984528D01*
X143677261Y-72985290D01*
X143694314Y-72987574D01*
X143711745Y-72991381D01*
X143729553Y-72996710D01*
X143747740Y-73003562D01*
X143761628Y-73009701D01*
X143775728Y-73016696D01*
X143790041Y-73024547D01*
X143804566Y-73033255D01*
X143818978Y-73042768D01*
X143833087Y-73053034D01*
X143846893Y-73064054D01*
X143860397Y-73075828D01*
X143873598Y-73088354D01*
X143886496Y-73101635D01*
X143899092Y-73115669D01*
X143911385Y-73130456D01*
X143923375Y-73145997D01*
X143935062Y-73162291D01*
X143942686Y-73173572D01*
X143945617Y-73179801D01*
X143948548Y-73183831D01*
X143956814Y-73197615D01*
X143964005Y-73211139D01*
X143970647Y-73224495D01*
X143977880Y-73239747D01*
X143984091Y-73253314D01*
X143990680Y-73268094D01*
X143997349Y-73283957D01*
X144003800Y-73300953D01*
X144010034Y-73319082D01*
X144014567Y-73333423D01*
X144018977Y-73348401D01*
X144023265Y-73364017D01*
X144027430Y-73380271D01*
X144031474Y-73397162D01*
X144035395Y-73414690D01*
X144037941Y-73426730D01*
X144176060Y-74091315D01*
X144174798Y-74106423D01*
X144165802Y-74110000D01*
X144050763Y-74110000D01*
X144035967Y-74106423D01*
X144027117Y-74094654D01*
X144026217Y-74091315D01*
X143887731Y-73424532D01*
X143884006Y-73407538D01*
X143879975Y-73391084D01*
X143875637Y-73375172D01*
X143870993Y-73359800D01*
X143866043Y-73344969D01*
X143860786Y-73330680D01*
X143855224Y-73316931D01*
X143846305Y-73297322D01*
X143836698Y-73278931D01*
X143826401Y-73261756D01*
X143815416Y-73245799D01*
X143803741Y-73231059D01*
X143791377Y-73217536D01*
X143778254Y-73205227D01*
X143764299Y-73194129D01*
X143749514Y-73184241D01*
X143733898Y-73175565D01*
X143717452Y-73168098D01*
X143700174Y-73161843D01*
X143682066Y-73156798D01*
X143663127Y-73152964D01*
X143643357Y-73150341D01*
X143622757Y-73148929D01*
X143608562Y-73148660D01*
X143324996Y-73148660D01*
X143298603Y-73149743D01*
X143274380Y-73152993D01*
X143252327Y-73158410D01*
X143232443Y-73165993D01*
X143214729Y-73175743D01*
X143199184Y-73187660D01*
X143185809Y-73201744D01*
X143174603Y-73217994D01*
X143165567Y-73236411D01*
X143158701Y-73256995D01*
X143154004Y-73279745D01*
X143151476Y-73304662D01*
X143151119Y-73331746D01*
X143152930Y-73360996D01*
X143154650Y-73376434D01*
X143156912Y-73392414D01*
X143159716Y-73408935D01*
X143163063Y-73425997D01*
X143162596Y-73440986D01*
X143150973Y-73446880D01*
X143036301Y-73446880D01*
G37*
G36*
X142218209Y-74110000D02*
G01*
X142203646Y-74105878D01*
X142196594Y-74093513D01*
X142197326Y-74078859D01*
X142198059Y-74081057D01*
X142512400Y-73431859D01*
X142024769Y-73002480D01*
X142025135Y-73004312D01*
X142020739Y-72991856D01*
X142022571Y-72979399D01*
X142033562Y-72972805D01*
X142195495Y-72972805D01*
X142203555Y-72972805D01*
X142212714Y-72977201D01*
X142622309Y-73336238D01*
X142769954Y-73336238D01*
X142603624Y-72536831D01*
X142604091Y-72521579D01*
X142615714Y-72515582D01*
X142726723Y-72515582D01*
X142739963Y-72522190D01*
X142745774Y-72536465D01*
X143068174Y-74086552D01*
X143065283Y-74101035D01*
X143056817Y-74103405D01*
X142948007Y-74103405D01*
X142933169Y-74099192D01*
X142926025Y-74086552D01*
X142808788Y-73523817D01*
X142656747Y-73523817D01*
X142377944Y-74107801D01*
X142369884Y-74110000D01*
X142218209Y-74110000D01*
G37*
G36*
X140983928Y-73362983D02*
G01*
X140970109Y-73357089D01*
X140963698Y-73343385D01*
X140963412Y-73342100D01*
X140958582Y-73317363D01*
X140954533Y-73293528D01*
X140951266Y-73270595D01*
X140948780Y-73248563D01*
X140947075Y-73227432D01*
X140946152Y-73207204D01*
X140946011Y-73187876D01*
X140946650Y-73169451D01*
X140948071Y-73151927D01*
X140950274Y-73135305D01*
X140953258Y-73119584D01*
X140957023Y-73104765D01*
X140964136Y-73084226D01*
X140973007Y-73065717D01*
X140979898Y-73054504D01*
X140991492Y-73041999D01*
X141004980Y-73030723D01*
X141020360Y-73020678D01*
X141037635Y-73011863D01*
X141056802Y-73004277D01*
X141077863Y-72997922D01*
X141092956Y-72994369D01*
X141108890Y-72991362D01*
X141125665Y-72988902D01*
X141143282Y-72986989D01*
X141161741Y-72985622D01*
X141181041Y-72984802D01*
X141201182Y-72984528D01*
X141609678Y-72984528D01*
X141630039Y-72985047D01*
X141650181Y-72986602D01*
X141670105Y-72989194D01*
X141689809Y-72992823D01*
X141709294Y-72997489D01*
X141728560Y-73003192D01*
X141747608Y-73009931D01*
X141766436Y-73017707D01*
X141785046Y-73026520D01*
X141803436Y-73036370D01*
X141815575Y-73043513D01*
X141828465Y-73054131D01*
X141840757Y-73065192D01*
X141852450Y-73076696D01*
X141863546Y-73088645D01*
X141874043Y-73101037D01*
X141883942Y-73113872D01*
X141893243Y-73127151D01*
X141901945Y-73140874D01*
X141910050Y-73155041D01*
X141917556Y-73169651D01*
X141924464Y-73184705D01*
X141930774Y-73200203D01*
X141936485Y-73216144D01*
X141941598Y-73232528D01*
X141946114Y-73249357D01*
X141950031Y-73266629D01*
X141953845Y-73285762D01*
X141957183Y-73304419D01*
X141960045Y-73322599D01*
X141962430Y-73340303D01*
X141964338Y-73357530D01*
X141965770Y-73374280D01*
X141966725Y-73390554D01*
X141967204Y-73406351D01*
X141967206Y-73421672D01*
X141966732Y-73436516D01*
X141966151Y-73446147D01*
X141963821Y-73464271D01*
X141959762Y-73480723D01*
X141953975Y-73495504D01*
X141946458Y-73508613D01*
X141937214Y-73520050D01*
X141926240Y-73529816D01*
X141913537Y-73537910D01*
X141899106Y-73544333D01*
X141885043Y-73549709D01*
X141870104Y-73554387D01*
X141854289Y-73558367D01*
X141837597Y-73561650D01*
X141820028Y-73564234D01*
X141805342Y-73565800D01*
X141793959Y-73566681D01*
X141778383Y-73567626D01*
X141762612Y-73568444D01*
X141746647Y-73569137D01*
X141730487Y-73569704D01*
X141714132Y-73570145D01*
X141697583Y-73570459D01*
X141680839Y-73570648D01*
X141663900Y-73570711D01*
X141596123Y-73570711D01*
X141578194Y-73570797D01*
X141560127Y-73571055D01*
X141541924Y-73571484D01*
X141523583Y-73572085D01*
X141505104Y-73572858D01*
X141486488Y-73573802D01*
X141467735Y-73574919D01*
X141448844Y-73576207D01*
X141430039Y-73577810D01*
X141411727Y-73579870D01*
X141393907Y-73582389D01*
X141376579Y-73585366D01*
X141359743Y-73588801D01*
X141343400Y-73592693D01*
X141327549Y-73597044D01*
X141312190Y-73601852D01*
X141297416Y-73607073D01*
X141283499Y-73612843D01*
X141267312Y-73620829D01*
X141252466Y-73629673D01*
X141238962Y-73639376D01*
X141226799Y-73649938D01*
X141218035Y-73659005D01*
X141208761Y-73671336D01*
X141201777Y-73684973D01*
X141197083Y-73699915D01*
X141194679Y-73716164D01*
X141194565Y-73733718D01*
X141196122Y-73748702D01*
X141198251Y-73760488D01*
X141202697Y-73780527D01*
X141207516Y-73799291D01*
X141212709Y-73816780D01*
X141218275Y-73832994D01*
X141224215Y-73847932D01*
X141230528Y-73861596D01*
X141239527Y-73877830D01*
X141249190Y-73891798D01*
X141259517Y-73903499D01*
X141264929Y-73908499D01*
X141279545Y-73919265D01*
X141292499Y-73926563D01*
X141306575Y-73932694D01*
X141321774Y-73937657D01*
X141338094Y-73941453D01*
X141355537Y-73944080D01*
X141374101Y-73945540D01*
X141388760Y-73945868D01*
X141807881Y-73945868D01*
X141823539Y-73945611D01*
X141840406Y-73944659D01*
X141855766Y-73943006D01*
X141871474Y-73940258D01*
X141878590Y-73938541D01*
X141893459Y-73932638D01*
X141905021Y-73923086D01*
X141911562Y-73910331D01*
X141917122Y-73893699D01*
X141919068Y-73879090D01*
X141919607Y-73861665D01*
X141919086Y-73846747D01*
X141917773Y-73830246D01*
X141915669Y-73812160D01*
X141912772Y-73792490D01*
X141909083Y-73771236D01*
X141906183Y-73756187D01*
X141904601Y-73748398D01*
X141906627Y-73733819D01*
X141918890Y-73729713D01*
X142031730Y-73729713D01*
X142045731Y-73734987D01*
X142052246Y-73748398D01*
X142057195Y-73773372D01*
X142061508Y-73797371D01*
X142065186Y-73820393D01*
X142068229Y-73842439D01*
X142070636Y-73863509D01*
X142072408Y-73883604D01*
X142073544Y-73902722D01*
X142074045Y-73920864D01*
X142073910Y-73938030D01*
X142073140Y-73954220D01*
X142071735Y-73969434D01*
X142068436Y-73990426D01*
X142063707Y-74009221D01*
X142057548Y-74025820D01*
X142055177Y-74030865D01*
X142045740Y-74045368D01*
X142034191Y-74058376D01*
X142022953Y-74068076D01*
X142010249Y-74076738D01*
X141996077Y-74084362D01*
X141980439Y-74090949D01*
X141963548Y-74096437D01*
X141949289Y-74100158D01*
X141934365Y-74103283D01*
X141918777Y-74105814D01*
X141902526Y-74107748D01*
X141885610Y-74109088D01*
X141868030Y-74109832D01*
X141854409Y-74110000D01*
X141421001Y-74110000D01*
X141402865Y-74109719D01*
X141385187Y-74108879D01*
X141367966Y-74107478D01*
X141351202Y-74105517D01*
X141334896Y-74102996D01*
X141319047Y-74099914D01*
X141303655Y-74096273D01*
X141288720Y-74092071D01*
X141274243Y-74087308D01*
X141260222Y-74081986D01*
X141246659Y-74076103D01*
X141220905Y-74062656D01*
X141196980Y-74046968D01*
X141174884Y-74029039D01*
X141154616Y-74008869D01*
X141136178Y-73986458D01*
X141127644Y-73974412D01*
X141119568Y-73961806D01*
X141111949Y-73948639D01*
X141104788Y-73934912D01*
X141098083Y-73920625D01*
X141091836Y-73905778D01*
X141086046Y-73890370D01*
X141080714Y-73874402D01*
X141075838Y-73857874D01*
X141071420Y-73840785D01*
X141067459Y-73823136D01*
X141063297Y-73801915D01*
X141059740Y-73781255D01*
X141056788Y-73761155D01*
X141054442Y-73741615D01*
X141052701Y-73722635D01*
X141051565Y-73704215D01*
X141051035Y-73686356D01*
X141051110Y-73669057D01*
X141051791Y-73652319D01*
X141053076Y-73636140D01*
X141054270Y-73625666D01*
X141056600Y-73610375D01*
X141059607Y-73595690D01*
X141064667Y-73577051D01*
X141070929Y-73559489D01*
X141078394Y-73543002D01*
X141087061Y-73527592D01*
X141096930Y-73513258D01*
X141108001Y-73500000D01*
X141113987Y-73493775D01*
X141125629Y-73482709D01*
X141138345Y-73472179D01*
X141152134Y-73462187D01*
X141166996Y-73452731D01*
X141182931Y-73443811D01*
X141196452Y-73437062D01*
X141207044Y-73432226D01*
X141221904Y-73426215D01*
X141237727Y-73421006D01*
X141254511Y-73416598D01*
X141272257Y-73412991D01*
X141290964Y-73410186D01*
X141305626Y-73408609D01*
X141320829Y-73407482D01*
X141336572Y-73406806D01*
X141352857Y-73406580D01*
X141368835Y-73406580D01*
X141384393Y-73406580D01*
X141399530Y-73406580D01*
X141414246Y-73406580D01*
X141422466Y-73406580D01*
X141437991Y-73406580D01*
X141453790Y-73406580D01*
X141469864Y-73406580D01*
X141486213Y-73406580D01*
X141505697Y-73405850D01*
X141524304Y-73405172D01*
X141542035Y-73404545D01*
X141558891Y-73403970D01*
X141574871Y-73403446D01*
X141589975Y-73402974D01*
X141608751Y-73402424D01*
X141625970Y-73401966D01*
X141641632Y-73401600D01*
X141648879Y-73401451D01*
X141665010Y-73401036D01*
X141680706Y-73400349D01*
X141695423Y-73399113D01*
X141704200Y-73396322D01*
X141718557Y-73392544D01*
X141723617Y-73392292D01*
X141739940Y-73391142D01*
X141754697Y-73390167D01*
X141770608Y-73389210D01*
X141774542Y-73388995D01*
X141789402Y-73387316D01*
X141803542Y-73383091D01*
X141805683Y-73382034D01*
X141816130Y-73371386D01*
X141819239Y-73362250D01*
X141819609Y-73346644D01*
X141817732Y-73331515D01*
X141815941Y-73321950D01*
X141811844Y-73303564D01*
X141807522Y-73286324D01*
X141802974Y-73270230D01*
X141798201Y-73255283D01*
X141793203Y-73241482D01*
X141786187Y-73224864D01*
X141778771Y-73210284D01*
X141770955Y-73197742D01*
X141760620Y-73184930D01*
X141748946Y-73174481D01*
X141735447Y-73165803D01*
X141720123Y-73158896D01*
X141702975Y-73153760D01*
X141687943Y-73150927D01*
X141671743Y-73149226D01*
X141654375Y-73148660D01*
X141218767Y-73148660D01*
X141202436Y-73148956D01*
X141187237Y-73149845D01*
X141168736Y-73151951D01*
X141152249Y-73155111D01*
X141137778Y-73159324D01*
X141122522Y-73166072D01*
X141110415Y-73174465D01*
X141102996Y-73182365D01*
X141097825Y-73196809D01*
X141095268Y-73212876D01*
X141094322Y-73228018D01*
X141094204Y-73240251D01*
X141094766Y-73256222D01*
X141096179Y-73273636D01*
X141098005Y-73289249D01*
X141100422Y-73305864D01*
X141103429Y-73323481D01*
X141106260Y-73338296D01*
X141107026Y-73342100D01*
X141106559Y-73357089D01*
X141094936Y-73362983D01*
X140983928Y-73362983D01*
G37*
G36*
X139926967Y-74110000D02*
G01*
X139912966Y-74104623D01*
X139906451Y-74090949D01*
X139765767Y-73413541D01*
X139761651Y-73392844D01*
X139758095Y-73372656D01*
X139755099Y-73352976D01*
X139752664Y-73333805D01*
X139750788Y-73315143D01*
X139749474Y-73296990D01*
X139748719Y-73279345D01*
X139748525Y-73262210D01*
X139748891Y-73245583D01*
X139749817Y-73229464D01*
X139750746Y-73219002D01*
X139752554Y-73203601D01*
X139754820Y-73188588D01*
X139757543Y-73173960D01*
X139761885Y-73155058D01*
X139767040Y-73136843D01*
X139773008Y-73119315D01*
X139779788Y-73102473D01*
X139787382Y-73086319D01*
X139793610Y-73074654D01*
X139802867Y-73060901D01*
X139812867Y-73048035D01*
X139823612Y-73036057D01*
X139835101Y-73024966D01*
X139847334Y-73014762D01*
X139860312Y-73005446D01*
X139874033Y-72997016D01*
X139888499Y-72989474D01*
X139903709Y-72982820D01*
X139919663Y-72977052D01*
X139936361Y-72972172D01*
X139953803Y-72968179D01*
X139971990Y-72965074D01*
X139990921Y-72962856D01*
X140010595Y-72961525D01*
X140031014Y-72961081D01*
X140365871Y-72961081D01*
X140383720Y-72961282D01*
X140400447Y-72961883D01*
X140416052Y-72962884D01*
X140433980Y-72964700D01*
X140450155Y-72967142D01*
X140464577Y-72970210D01*
X140477246Y-72973904D01*
X140491337Y-72979618D01*
X140505582Y-72987419D01*
X140519982Y-72997307D01*
X140532100Y-73007140D01*
X140544325Y-73018423D01*
X140554183Y-73028492D01*
X140451601Y-72534267D01*
X140453729Y-72519688D01*
X140466255Y-72515582D01*
X140591552Y-72515582D01*
X140605209Y-72522298D01*
X140610236Y-72534633D01*
X140933736Y-74090949D01*
X140932745Y-74105814D01*
X140923111Y-74110000D01*
X140800013Y-74110000D01*
X140785716Y-74105814D01*
X140777860Y-74093256D01*
X140777299Y-74090949D01*
X140635882Y-73410610D01*
X140632228Y-73394165D01*
X140628228Y-73378170D01*
X140623882Y-73362624D01*
X140619189Y-73347527D01*
X140614150Y-73332879D01*
X140608765Y-73318681D01*
X140603034Y-73304933D01*
X140593787Y-73285152D01*
X140583761Y-73266383D01*
X140572956Y-73248625D01*
X140561371Y-73231877D01*
X140549007Y-73216141D01*
X140535864Y-73201416D01*
X140522100Y-73187798D01*
X140507872Y-73175519D01*
X140493180Y-73164579D01*
X140478025Y-73154979D01*
X140462406Y-73146719D01*
X140446323Y-73139798D01*
X140429776Y-73134217D01*
X140412766Y-73129975D01*
X140395292Y-73127073D01*
X140377355Y-73125510D01*
X140365139Y-73125212D01*
X140065086Y-73125212D01*
X140048214Y-73125892D01*
X140032217Y-73127930D01*
X140017096Y-73131327D01*
X140002850Y-73136083D01*
X139989481Y-73142198D01*
X139973017Y-73152465D01*
X139958111Y-73165147D01*
X139947953Y-73176244D01*
X139938671Y-73188700D01*
X139930264Y-73202515D01*
X139922908Y-73217417D01*
X139916775Y-73233273D01*
X139911865Y-73250081D01*
X139908179Y-73267843D01*
X139905717Y-73286557D01*
X139904479Y-73306225D01*
X139904464Y-73326846D01*
X139905672Y-73348420D01*
X139907158Y-73363332D01*
X139909187Y-73378668D01*
X139911760Y-73394427D01*
X139914877Y-73410610D01*
X140056294Y-74090949D01*
X140054785Y-74105814D01*
X140043837Y-74110000D01*
X139926967Y-74110000D01*
G37*
G36*
X139231139Y-72984776D02*
G01*
X139246905Y-72985520D01*
X139262420Y-72986760D01*
X139277684Y-72988495D01*
X139292696Y-72990727D01*
X139307458Y-72993454D01*
X139321968Y-72996678D01*
X139336228Y-73000397D01*
X139354849Y-73006127D01*
X139373024Y-73012739D01*
X139390741Y-73020077D01*
X139408172Y-73028172D01*
X139425317Y-73037022D01*
X139442176Y-73046627D01*
X139458748Y-73056988D01*
X139470989Y-73065255D01*
X139483070Y-73073947D01*
X139494989Y-73083064D01*
X139506747Y-73092606D01*
X139521214Y-73107272D01*
X139535123Y-73122785D01*
X139548474Y-73139146D01*
X139561267Y-73156353D01*
X139573501Y-73174408D01*
X139585178Y-73193310D01*
X139596296Y-73213060D01*
X139606856Y-73233656D01*
X139616858Y-73255100D01*
X139626302Y-73277391D01*
X139635188Y-73300529D01*
X139643516Y-73324515D01*
X139651285Y-73349347D01*
X139658496Y-73375027D01*
X139665150Y-73401554D01*
X139671245Y-73428928D01*
X139720704Y-73667798D01*
X139726007Y-73695004D01*
X139730420Y-73721346D01*
X139733944Y-73746824D01*
X139736578Y-73771439D01*
X139738323Y-73795190D01*
X139739178Y-73818077D01*
X139739144Y-73840101D01*
X139738221Y-73861261D01*
X139736408Y-73881557D01*
X139733706Y-73900990D01*
X139730114Y-73919559D01*
X139725633Y-73937264D01*
X139720262Y-73954106D01*
X139714002Y-73970084D01*
X139706853Y-73985198D01*
X139698814Y-73999449D01*
X139689885Y-74012836D01*
X139680068Y-74025359D01*
X139669360Y-74037019D01*
X139657764Y-74047815D01*
X139645278Y-74057747D01*
X139631902Y-74066816D01*
X139617637Y-74075021D01*
X139602483Y-74082362D01*
X139586439Y-74088839D01*
X139569506Y-74094453D01*
X139551683Y-74099204D01*
X139532971Y-74103090D01*
X139513369Y-74106113D01*
X139492878Y-74108272D01*
X139471498Y-74109568D01*
X139449228Y-74110000D01*
X139132689Y-74110000D01*
X139111862Y-74109566D01*
X139091422Y-74108265D01*
X139071368Y-74106097D01*
X139051700Y-74103061D01*
X139032419Y-74099159D01*
X139013524Y-74094389D01*
X138995015Y-74088752D01*
X138976893Y-74082247D01*
X138959157Y-74074876D01*
X138941808Y-74066637D01*
X138924845Y-74057531D01*
X138908268Y-74047557D01*
X138892078Y-74036717D01*
X138876274Y-74025009D01*
X138860857Y-74012434D01*
X138845826Y-73998991D01*
X138831273Y-73984689D01*
X138817290Y-73969533D01*
X138803876Y-73953525D01*
X138791032Y-73936663D01*
X138778757Y-73918949D01*
X138767052Y-73900382D01*
X138755917Y-73880962D01*
X138745351Y-73860689D01*
X138735354Y-73839563D01*
X138725928Y-73817584D01*
X138717071Y-73794752D01*
X138708783Y-73771067D01*
X138701065Y-73746529D01*
X138693917Y-73721138D01*
X138687338Y-73694894D01*
X138681329Y-73667798D01*
X138631869Y-73428928D01*
X138627793Y-73408555D01*
X138624219Y-73388653D01*
X138621147Y-73369220D01*
X138618577Y-73350257D01*
X138616510Y-73331765D01*
X138616403Y-73330537D01*
X138766673Y-73330537D01*
X138768403Y-73359594D01*
X138770087Y-73374930D01*
X138772317Y-73390804D01*
X138775093Y-73407216D01*
X138778415Y-73424166D01*
X138828973Y-73668164D01*
X138832751Y-73685250D01*
X138836850Y-73701792D01*
X138841269Y-73717793D01*
X138846009Y-73733251D01*
X138851070Y-73748167D01*
X138856451Y-73762540D01*
X138862152Y-73776371D01*
X138874517Y-73802406D01*
X138888164Y-73826271D01*
X138903093Y-73847967D01*
X138919305Y-73867493D01*
X138936799Y-73884849D01*
X138955575Y-73900036D01*
X138975634Y-73913054D01*
X138996974Y-73923901D01*
X139019597Y-73932580D01*
X139043503Y-73939088D01*
X139068690Y-73943428D01*
X139095160Y-73945597D01*
X139108876Y-73945868D01*
X139402700Y-73945868D01*
X139429314Y-73944784D01*
X139453745Y-73941529D01*
X139475991Y-73936105D01*
X139496054Y-73928512D01*
X139513933Y-73918749D01*
X139529628Y-73906816D01*
X139543139Y-73892714D01*
X139554466Y-73876442D01*
X139563610Y-73858001D01*
X139570569Y-73837390D01*
X139575345Y-73814610D01*
X139577936Y-73789660D01*
X139578344Y-73762540D01*
X139576568Y-73733251D01*
X139574861Y-73717793D01*
X139572608Y-73701792D01*
X139569809Y-73685250D01*
X139566465Y-73668164D01*
X139516273Y-73426364D01*
X139512495Y-73409278D01*
X139508397Y-73392736D01*
X139503980Y-73376735D01*
X139499242Y-73361277D01*
X139494185Y-73346361D01*
X139488808Y-73331988D01*
X139483111Y-73318157D01*
X139470758Y-73292122D01*
X139457125Y-73268257D01*
X139442213Y-73246561D01*
X139426022Y-73227035D01*
X139408551Y-73209679D01*
X139389800Y-73194492D01*
X139369770Y-73181474D01*
X139348461Y-73170626D01*
X139325872Y-73161948D01*
X139302004Y-73155440D01*
X139276857Y-73151100D01*
X139250430Y-73148931D01*
X139236737Y-73148660D01*
X138942913Y-73148660D01*
X138916252Y-73149736D01*
X138891776Y-73152964D01*
X138869484Y-73158345D01*
X138849375Y-73165879D01*
X138831451Y-73175565D01*
X138815710Y-73187403D01*
X138802153Y-73201393D01*
X138790780Y-73217536D01*
X138781591Y-73235831D01*
X138774585Y-73256279D01*
X138769764Y-73278879D01*
X138767126Y-73303632D01*
X138766673Y-73330537D01*
X138616403Y-73330537D01*
X138614945Y-73313743D01*
X138613882Y-73296190D01*
X138613322Y-73279108D01*
X138613264Y-73262496D01*
X138613709Y-73246354D01*
X138614284Y-73235854D01*
X138615545Y-73220480D01*
X138617405Y-73205543D01*
X138619864Y-73191045D01*
X138624074Y-73172395D01*
X138629350Y-73154523D01*
X138635689Y-73137430D01*
X138643094Y-73121115D01*
X138651563Y-73105579D01*
X138658614Y-73094438D01*
X138668181Y-73081128D01*
X138678472Y-73068678D01*
X138689487Y-73057086D01*
X138701227Y-73046352D01*
X138713690Y-73036478D01*
X138726878Y-73027462D01*
X138740790Y-73019304D01*
X138755426Y-73012006D01*
X138770786Y-73005566D01*
X138786870Y-72999984D01*
X138803678Y-72995262D01*
X138821211Y-72991398D01*
X138839468Y-72988392D01*
X138858448Y-72986246D01*
X138878153Y-72984958D01*
X138898583Y-72984528D01*
X139215121Y-72984528D01*
X139231139Y-72984776D01*
G37*
G36*
X138042080Y-72961505D02*
G01*
X138061486Y-72962776D01*
X138080823Y-72964894D01*
X138100092Y-72967859D01*
X138114498Y-72970639D01*
X138128866Y-72973895D01*
X138143195Y-72977628D01*
X138157485Y-72981838D01*
X138171737Y-72986524D01*
X138176479Y-72988192D01*
X138190481Y-72993461D01*
X138204188Y-72999239D01*
X138217598Y-73005525D01*
X138230712Y-73012321D01*
X138243530Y-73019625D01*
X138256051Y-73027437D01*
X138268276Y-73035759D01*
X138280205Y-73044589D01*
X138291838Y-73053928D01*
X138303175Y-73063776D01*
X138310568Y-73070624D01*
X138322695Y-73082314D01*
X138334211Y-73094164D01*
X138345115Y-73106176D01*
X138355407Y-73118349D01*
X138365088Y-73130682D01*
X138374156Y-73143177D01*
X138382613Y-73155833D01*
X138390458Y-73168649D01*
X138397691Y-73181627D01*
X138404313Y-73194766D01*
X138408387Y-73203614D01*
X138414187Y-73217298D01*
X138419910Y-73231697D01*
X138425556Y-73246811D01*
X138431125Y-73262639D01*
X138436616Y-73279182D01*
X138442030Y-73296440D01*
X138447366Y-73314413D01*
X138452626Y-73333101D01*
X138457808Y-73352504D01*
X138462912Y-73372621D01*
X138466273Y-73386430D01*
X138700746Y-74513367D01*
X138699484Y-74528475D01*
X138690488Y-74532051D01*
X138575083Y-74532051D01*
X138560537Y-74528615D01*
X138551470Y-74516273D01*
X138550903Y-74514099D01*
X138452717Y-74040757D01*
X138440889Y-74053131D01*
X138427799Y-74064288D01*
X138413446Y-74074229D01*
X138397831Y-74082952D01*
X138380954Y-74090457D01*
X138362815Y-74096746D01*
X138343413Y-74101817D01*
X138322749Y-74105672D01*
X138300823Y-74108309D01*
X138285505Y-74109391D01*
X138269625Y-74109932D01*
X138261475Y-74110000D01*
X137953363Y-74110000D01*
X137932749Y-74109557D01*
X137912490Y-74108231D01*
X137892586Y-74106020D01*
X137873037Y-74102924D01*
X137853843Y-74098944D01*
X137835004Y-74094080D01*
X137816520Y-74088331D01*
X137798391Y-74081698D01*
X137780616Y-74074180D01*
X137763197Y-74065778D01*
X137746132Y-74056492D01*
X137729423Y-74046321D01*
X137713068Y-74035265D01*
X137697068Y-74023326D01*
X137681423Y-74010502D01*
X137666133Y-73996793D01*
X137651265Y-73982208D01*
X137636979Y-73966757D01*
X137623273Y-73950438D01*
X137610148Y-73933252D01*
X137597604Y-73915198D01*
X137585642Y-73896277D01*
X137574260Y-73876490D01*
X137563460Y-73855834D01*
X137553240Y-73834312D01*
X137543601Y-73811922D01*
X137534544Y-73788665D01*
X137526067Y-73764541D01*
X137518172Y-73739549D01*
X137510858Y-73713691D01*
X137504124Y-73686965D01*
X137497972Y-73659371D01*
X137447047Y-73413907D01*
X137441736Y-73386512D01*
X137437344Y-73359920D01*
X137433871Y-73334133D01*
X137433503Y-73330537D01*
X137587622Y-73330537D01*
X137589403Y-73359594D01*
X137591104Y-73374930D01*
X137593347Y-73390804D01*
X137596130Y-73407216D01*
X137599455Y-73424166D01*
X137650013Y-73668164D01*
X137653789Y-73685250D01*
X137657880Y-73701792D01*
X137662287Y-73717793D01*
X137667009Y-73733251D01*
X137672047Y-73748167D01*
X137677400Y-73762540D01*
X137683069Y-73776371D01*
X137695354Y-73802406D01*
X137708901Y-73826271D01*
X137723710Y-73847967D01*
X137739781Y-73867493D01*
X137757115Y-73884849D01*
X137775711Y-73900036D01*
X137795569Y-73913054D01*
X137816689Y-73923901D01*
X137839072Y-73932580D01*
X137862717Y-73939088D01*
X137887624Y-73943428D01*
X137913793Y-73945597D01*
X137927351Y-73945868D01*
X138215313Y-73945868D01*
X138236216Y-73945273D01*
X138255786Y-73943486D01*
X138274023Y-73940507D01*
X138290927Y-73936337D01*
X138306498Y-73930976D01*
X138320736Y-73924423D01*
X138333641Y-73916679D01*
X138348773Y-73904500D01*
X138361536Y-73890203D01*
X138369553Y-73878091D01*
X138376297Y-73864729D01*
X138381831Y-73850060D01*
X138386155Y-73834083D01*
X138389268Y-73816799D01*
X138391169Y-73798208D01*
X138391861Y-73778310D01*
X138391341Y-73757104D01*
X138390322Y-73742240D01*
X138388765Y-73726796D01*
X138386670Y-73710770D01*
X138384037Y-73694164D01*
X138380865Y-73676976D01*
X138379078Y-73668164D01*
X138328520Y-73424166D01*
X138324795Y-73407216D01*
X138320763Y-73390804D01*
X138316425Y-73374930D01*
X138311781Y-73359594D01*
X138306831Y-73344796D01*
X138301575Y-73330537D01*
X138296012Y-73316815D01*
X138287094Y-73297242D01*
X138277486Y-73278879D01*
X138267190Y-73261727D01*
X138256204Y-73245786D01*
X138244530Y-73231056D01*
X138232166Y-73217536D01*
X138219042Y-73205227D01*
X138205088Y-73194129D01*
X138190303Y-73184241D01*
X138174687Y-73175565D01*
X138158240Y-73168098D01*
X138140963Y-73161843D01*
X138122854Y-73156798D01*
X138103916Y-73152964D01*
X138084146Y-73150341D01*
X138063545Y-73148929D01*
X138049350Y-73148660D01*
X137761388Y-73148660D01*
X137735038Y-73149736D01*
X137710852Y-73152964D01*
X137688831Y-73158345D01*
X137668972Y-73165879D01*
X137651278Y-73175565D01*
X137635748Y-73187403D01*
X137622381Y-73201393D01*
X137611178Y-73217536D01*
X137602140Y-73235831D01*
X137595265Y-73256279D01*
X137590553Y-73278879D01*
X137588006Y-73303632D01*
X137587622Y-73330537D01*
X137433503Y-73330537D01*
X137431317Y-73309150D01*
X137429681Y-73284971D01*
X137428964Y-73261597D01*
X137429166Y-73239027D01*
X137430286Y-73217261D01*
X137432325Y-73196300D01*
X137435284Y-73176143D01*
X137439160Y-73156790D01*
X137443956Y-73138241D01*
X137449671Y-73120497D01*
X137456304Y-73103557D01*
X137463856Y-73087421D01*
X137472326Y-73072090D01*
X137481902Y-73058647D01*
X137492219Y-73046072D01*
X137503277Y-73034364D01*
X137515077Y-73023523D01*
X137527617Y-73013550D01*
X137540900Y-73004444D01*
X137554923Y-72996205D01*
X137569688Y-72988833D01*
X137585194Y-72982329D01*
X137601441Y-72976692D01*
X137618430Y-72971922D01*
X137636160Y-72968019D01*
X137654631Y-72964984D01*
X137673844Y-72962816D01*
X137693798Y-72961515D01*
X137714493Y-72961081D01*
X138022606Y-72961081D01*
X138042080Y-72961505D01*
G37*
D11*
G36*
X155691063Y-72425000D02*
G01*
X155673262Y-72416045D01*
X155666638Y-72399598D01*
X155307601Y-70671336D01*
X155307580Y-70651000D01*
X155320791Y-70643004D01*
X155693505Y-70643004D01*
X155712711Y-70648156D01*
X155713533Y-70648866D01*
X156842912Y-72101133D01*
X157342633Y-70645935D01*
X157345564Y-70644469D01*
X157355822Y-70643004D01*
X157750030Y-70643004D01*
X157769200Y-70649229D01*
X157779538Y-70666273D01*
X157780805Y-70671336D01*
X158139842Y-72399598D01*
X158137003Y-72419418D01*
X158120302Y-72425000D01*
X157942493Y-72425000D01*
X157923431Y-72419418D01*
X157912955Y-72402674D01*
X157912207Y-72399598D01*
X157588341Y-70840352D01*
X157539493Y-70840352D01*
X156983107Y-72422069D01*
X156980665Y-72423534D01*
X156972849Y-72425000D01*
X156855124Y-72425000D01*
X156835919Y-72420277D01*
X156835096Y-72419626D01*
X155613882Y-70840352D01*
X155561614Y-70840352D01*
X155885480Y-72399598D01*
X155882642Y-72419418D01*
X155865941Y-72425000D01*
X155691063Y-72425000D01*
G37*
G36*
X154231956Y-70648866D02*
G01*
X155454636Y-72391294D01*
X155453170Y-72385432D01*
X155460986Y-72396667D01*
X155461474Y-72399598D01*
X155458774Y-72419418D01*
X155442424Y-72425000D01*
X155250449Y-72425000D01*
X155236771Y-72425000D01*
X155235365Y-72419025D01*
X154949541Y-72018579D01*
X153796715Y-72018579D01*
X153674594Y-72419626D01*
X153676059Y-72416695D01*
X153675571Y-72425000D01*
X153658962Y-72425000D01*
X153459172Y-72425000D01*
X153440503Y-72417831D01*
X153431816Y-72399598D01*
X153431328Y-72396667D01*
X153431816Y-72385432D01*
X153433282Y-72391294D01*
X153604099Y-71799738D01*
X153866080Y-71799738D01*
X154789318Y-71799738D01*
X154130351Y-70870150D01*
X153866080Y-71799738D01*
X153604099Y-71799738D01*
X153936422Y-70648866D01*
X153939842Y-70644469D01*
X153949123Y-70643004D01*
X154214859Y-70643004D01*
X154231956Y-70648866D01*
G37*
G36*
X151121279Y-71583827D02*
G01*
X151126164Y-71580896D01*
X152120721Y-71580896D01*
X152140449Y-71586039D01*
X152152249Y-71602962D01*
X152153449Y-71607763D01*
X152187643Y-71772871D01*
X152185201Y-71793021D01*
X152166150Y-71799738D01*
X151380176Y-71799738D01*
X151385117Y-71822786D01*
X151390229Y-71845035D01*
X151395512Y-71866486D01*
X151400968Y-71887139D01*
X151406595Y-71906992D01*
X151412394Y-71926048D01*
X151420393Y-71950212D01*
X151428697Y-71972958D01*
X151437306Y-71994283D01*
X151441726Y-72004413D01*
X151450724Y-72023571D01*
X151459891Y-72041477D01*
X151471586Y-72062099D01*
X151483543Y-72080766D01*
X151495762Y-72097477D01*
X151510771Y-72114948D01*
X151518418Y-72122627D01*
X151536885Y-72137555D01*
X151558031Y-72151014D01*
X151581856Y-72163006D01*
X151608360Y-72173529D01*
X151627518Y-72179728D01*
X151647867Y-72185275D01*
X151669406Y-72190170D01*
X151692136Y-72194411D01*
X151716056Y-72198001D01*
X151741167Y-72200937D01*
X151767469Y-72203221D01*
X151794962Y-72204853D01*
X151823645Y-72205832D01*
X151853519Y-72206158D01*
X152489039Y-72206158D01*
X152509816Y-72206048D01*
X152530078Y-72205717D01*
X152549823Y-72205166D01*
X152587764Y-72203403D01*
X152623641Y-72200758D01*
X152657454Y-72197232D01*
X152689201Y-72192824D01*
X152718884Y-72187535D01*
X152746503Y-72181364D01*
X152772057Y-72174311D01*
X152795546Y-72166377D01*
X152816971Y-72157562D01*
X152836331Y-72147864D01*
X152853626Y-72137286D01*
X152875698Y-72119765D01*
X152893125Y-72100260D01*
X152897902Y-72093318D01*
X152907878Y-72070954D01*
X152915458Y-72043979D01*
X152919181Y-72023434D01*
X152921839Y-72000839D01*
X152923433Y-71976196D01*
X152923961Y-71949503D01*
X152923425Y-71920760D01*
X152921824Y-71889968D01*
X152919158Y-71857127D01*
X152915428Y-71822237D01*
X152910633Y-71785297D01*
X152904773Y-71746308D01*
X152901444Y-71726045D01*
X152897848Y-71705269D01*
X152893986Y-71683981D01*
X152889859Y-71662181D01*
X152885465Y-71639869D01*
X152880805Y-71617044D01*
X152876292Y-71595435D01*
X152871853Y-71574328D01*
X152867488Y-71553723D01*
X152863196Y-71533620D01*
X152858978Y-71514019D01*
X152854833Y-71494919D01*
X152846763Y-71458225D01*
X152838987Y-71423539D01*
X152831506Y-71390860D01*
X152824318Y-71360188D01*
X152817424Y-71331524D01*
X152810823Y-71304867D01*
X152804517Y-71280218D01*
X152798504Y-71257576D01*
X152792786Y-71236941D01*
X152784758Y-71209753D01*
X152777392Y-71187081D01*
X152772849Y-71174476D01*
X152764343Y-71152866D01*
X152755432Y-71132123D01*
X152746116Y-71112246D01*
X152736396Y-71093235D01*
X152726271Y-71075090D01*
X152715742Y-71057812D01*
X152704808Y-71041400D01*
X152687649Y-71018406D01*
X152669580Y-70997362D01*
X152650601Y-70978267D01*
X152630711Y-70961120D01*
X152609912Y-70945923D01*
X152588202Y-70932676D01*
X152567191Y-70923192D01*
X152548922Y-70916018D01*
X152529356Y-70909209D01*
X152508492Y-70902767D01*
X152486331Y-70896692D01*
X152462872Y-70890983D01*
X152438116Y-70885640D01*
X152418697Y-70881873D01*
X152398518Y-70878294D01*
X152377550Y-70875067D01*
X152355791Y-70872192D01*
X152333243Y-70869669D01*
X152309904Y-70867498D01*
X152285776Y-70865679D01*
X152260857Y-70864212D01*
X152235149Y-70863097D01*
X152208650Y-70862334D01*
X152181362Y-70861924D01*
X152162731Y-70861845D01*
X151574105Y-70861845D01*
X151551192Y-70862067D01*
X151529104Y-70862731D01*
X151507839Y-70863837D01*
X151487399Y-70865387D01*
X151467783Y-70867379D01*
X151444423Y-70870492D01*
X151422350Y-70874296D01*
X151413882Y-70876011D01*
X151393589Y-70880653D01*
X151374536Y-70885724D01*
X151353310Y-70892376D01*
X151333870Y-70899646D01*
X151313447Y-70908909D01*
X151305438Y-70913136D01*
X151288921Y-70924442D01*
X151271839Y-70939646D01*
X151257745Y-70956636D01*
X151246640Y-70975412D01*
X151238523Y-70995975D01*
X151235585Y-71006926D01*
X151231434Y-71030081D01*
X151229471Y-71050610D01*
X151228868Y-71072260D01*
X151229624Y-71095032D01*
X151231740Y-71118924D01*
X151234411Y-71138845D01*
X151236073Y-71149075D01*
X151233373Y-71168895D01*
X151217022Y-71174476D01*
X151044587Y-71174476D01*
X151025918Y-71167445D01*
X151017232Y-71149563D01*
X151016255Y-71144190D01*
X151010429Y-71113181D01*
X151006019Y-71083167D01*
X151003025Y-71054150D01*
X151001447Y-71026129D01*
X151001285Y-70999104D01*
X151002539Y-70973075D01*
X151005208Y-70948042D01*
X151009294Y-70924005D01*
X151014795Y-70900964D01*
X151021712Y-70878919D01*
X151030045Y-70857871D01*
X151039794Y-70837818D01*
X151050958Y-70818761D01*
X151063539Y-70800701D01*
X151077535Y-70783636D01*
X151092947Y-70767568D01*
X151109761Y-70752484D01*
X151127965Y-70738373D01*
X151147558Y-70725235D01*
X151168540Y-70713071D01*
X151190911Y-70701880D01*
X151214671Y-70691661D01*
X151239821Y-70682416D01*
X151266359Y-70674145D01*
X151294287Y-70666846D01*
X151323604Y-70660520D01*
X151354310Y-70655168D01*
X151386405Y-70650789D01*
X151419889Y-70647383D01*
X151454762Y-70644950D01*
X151491025Y-70643490D01*
X151528676Y-70643004D01*
X152101181Y-70643004D01*
X152129839Y-70643167D01*
X152157987Y-70643658D01*
X152185625Y-70644476D01*
X152212755Y-70645622D01*
X152239374Y-70647094D01*
X152265484Y-70648894D01*
X152291085Y-70651021D01*
X152316176Y-70653476D01*
X152340758Y-70656257D01*
X152364830Y-70659366D01*
X152388393Y-70662802D01*
X152411446Y-70666565D01*
X152433990Y-70670656D01*
X152456024Y-70675074D01*
X152477549Y-70679819D01*
X152498564Y-70684891D01*
X152519070Y-70690291D01*
X152539067Y-70696018D01*
X152558554Y-70702072D01*
X152577531Y-70708453D01*
X152595999Y-70715162D01*
X152631407Y-70729561D01*
X152664776Y-70745268D01*
X152696108Y-70762285D01*
X152725402Y-70780611D01*
X152752658Y-70800246D01*
X152765522Y-70810554D01*
X152762591Y-70810554D01*
X152787467Y-70832647D01*
X152811539Y-70857159D01*
X152834805Y-70884090D01*
X152857266Y-70913442D01*
X152878921Y-70945212D01*
X152889447Y-70962005D01*
X152899772Y-70979402D01*
X152909895Y-70997405D01*
X152919817Y-71016012D01*
X152929537Y-71035224D01*
X152939056Y-71055041D01*
X152948374Y-71075463D01*
X152957491Y-71096490D01*
X152966406Y-71118122D01*
X152975120Y-71140358D01*
X152983633Y-71163200D01*
X152991945Y-71186646D01*
X153000055Y-71210698D01*
X153007963Y-71235354D01*
X153015671Y-71260615D01*
X153023177Y-71286481D01*
X153030482Y-71312951D01*
X153037586Y-71340027D01*
X153044488Y-71367708D01*
X153051189Y-71395993D01*
X153057688Y-71424883D01*
X153063987Y-71454378D01*
X153069280Y-71479923D01*
X153074413Y-71504899D01*
X153079385Y-71529306D01*
X153084198Y-71553144D01*
X153088850Y-71576414D01*
X153093342Y-71599115D01*
X153097673Y-71621248D01*
X153101844Y-71642812D01*
X153105855Y-71663807D01*
X153109706Y-71684234D01*
X153113396Y-71704092D01*
X153116926Y-71723381D01*
X153121921Y-71751249D01*
X153126555Y-71777838D01*
X153129444Y-71794853D01*
X153133406Y-71819386D01*
X153137052Y-71842795D01*
X153140379Y-71865079D01*
X153143388Y-71886238D01*
X153146080Y-71906272D01*
X153149175Y-71931234D01*
X153151706Y-71954197D01*
X153153671Y-71975160D01*
X153155333Y-71998551D01*
X153155282Y-72019679D01*
X153154578Y-72040197D01*
X153153221Y-72060105D01*
X153150397Y-72085701D01*
X153146413Y-72110213D01*
X153141269Y-72133641D01*
X153134964Y-72155986D01*
X153127499Y-72177246D01*
X153121139Y-72192480D01*
X153111759Y-72211852D01*
X153101447Y-72230399D01*
X153090205Y-72248122D01*
X153078031Y-72265020D01*
X153064925Y-72281095D01*
X153050889Y-72296345D01*
X153035922Y-72310770D01*
X153020023Y-72324371D01*
X153000781Y-72337225D01*
X152979937Y-72349162D01*
X152957489Y-72360184D01*
X152933439Y-72370289D01*
X152914349Y-72377267D01*
X152894358Y-72383730D01*
X152873465Y-72389678D01*
X152851671Y-72395110D01*
X152828975Y-72400028D01*
X152821209Y-72401552D01*
X152797268Y-72405742D01*
X152772340Y-72409521D01*
X152746424Y-72412887D01*
X152719520Y-72415840D01*
X152691629Y-72418382D01*
X152662751Y-72420512D01*
X152642950Y-72421702D01*
X152622710Y-72422710D01*
X152602032Y-72423534D01*
X152580914Y-72424175D01*
X152559358Y-72424633D01*
X152537363Y-72424908D01*
X152514929Y-72425000D01*
X151898948Y-72425000D01*
X151871518Y-72424811D01*
X151844732Y-72424244D01*
X151818590Y-72423299D01*
X151793092Y-72421977D01*
X151768238Y-72420277D01*
X151744028Y-72418199D01*
X151720462Y-72415743D01*
X151697540Y-72412909D01*
X151675261Y-72409698D01*
X151653627Y-72406109D01*
X151639562Y-72403506D01*
X151618976Y-72399166D01*
X151598982Y-72394387D01*
X151579580Y-72389171D01*
X151560771Y-72383516D01*
X151536614Y-72375296D01*
X151513510Y-72366297D01*
X151491460Y-72356520D01*
X151470462Y-72345964D01*
X151450518Y-72334630D01*
X151431544Y-72322358D01*
X151413210Y-72309358D01*
X151395518Y-72295629D01*
X151378467Y-72281171D01*
X151362057Y-72265984D01*
X151346288Y-72250068D01*
X151331160Y-72233423D01*
X151316673Y-72216050D01*
X151302828Y-72197947D01*
X151289623Y-72179116D01*
X151277060Y-72159555D01*
X151265138Y-72139266D01*
X151253857Y-72118248D01*
X151243217Y-72096501D01*
X151233219Y-72074024D01*
X151223861Y-72050819D01*
X151216543Y-72031483D01*
X151208939Y-72009499D01*
X151202650Y-71990005D01*
X151196178Y-71968817D01*
X151189522Y-71945934D01*
X151182683Y-71921357D01*
X151177434Y-71901813D01*
X151172082Y-71881315D01*
X151166635Y-71859907D01*
X151161102Y-71837632D01*
X151155484Y-71814489D01*
X151149779Y-71790479D01*
X151143989Y-71765602D01*
X151138113Y-71739858D01*
X151132151Y-71713247D01*
X151126103Y-71685768D01*
X151119969Y-71657422D01*
X151115832Y-71638043D01*
X151111657Y-71618278D01*
X151109555Y-71608251D01*
X151110532Y-71597505D01*
X151121279Y-71583827D01*
G37*
G36*
X149221070Y-70893108D02*
G01*
X149202782Y-70885664D01*
X149194203Y-70866730D01*
X149159521Y-70700645D01*
X149160864Y-70680861D01*
X149175641Y-70674267D01*
X150638167Y-70674267D01*
X150657336Y-70680385D01*
X150667675Y-70697134D01*
X150668941Y-70702110D01*
X151021628Y-72400087D01*
X151018790Y-72419526D01*
X151002089Y-72425000D01*
X150830142Y-72425000D01*
X150811079Y-72419311D01*
X150800603Y-72402245D01*
X150799855Y-72399110D01*
X150636213Y-71612159D01*
X149411579Y-71612159D01*
X149393292Y-71604715D01*
X149384712Y-71585781D01*
X149350030Y-71419696D01*
X149351373Y-71399912D01*
X149366150Y-71393318D01*
X150590784Y-71393318D01*
X150486736Y-70893108D01*
X149221070Y-70893108D01*
G37*
G36*
X148730922Y-70924988D02*
G01*
X148755001Y-70926837D01*
X148778931Y-70929918D01*
X148802712Y-70934233D01*
X148826345Y-70939780D01*
X148849828Y-70946559D01*
X148873163Y-70954572D01*
X148896349Y-70963817D01*
X148919386Y-70974294D01*
X148942274Y-70986005D01*
X148965014Y-70998948D01*
X148987604Y-71013123D01*
X149010046Y-71028531D01*
X149032339Y-71045172D01*
X149054483Y-71063046D01*
X149076478Y-71082152D01*
X149096804Y-71103293D01*
X149116259Y-71125192D01*
X149134844Y-71147852D01*
X149152560Y-71171270D01*
X149169405Y-71195449D01*
X149185380Y-71220386D01*
X149200485Y-71246083D01*
X149214719Y-71272540D01*
X149228084Y-71299756D01*
X149240579Y-71327731D01*
X149252203Y-71356466D01*
X149262957Y-71385960D01*
X149272842Y-71416214D01*
X149281856Y-71447227D01*
X149290000Y-71478999D01*
X149297273Y-71511531D01*
X149370058Y-71860310D01*
X149376807Y-71895052D01*
X149382402Y-71928690D01*
X149386840Y-71961226D01*
X149390124Y-71992659D01*
X149392252Y-72022989D01*
X149393225Y-72052216D01*
X149393042Y-72080340D01*
X149391704Y-72107362D01*
X149389210Y-72133280D01*
X149385562Y-72158095D01*
X149380757Y-72181808D01*
X149374798Y-72204418D01*
X149367683Y-72225924D01*
X149359412Y-72246328D01*
X149349987Y-72265629D01*
X149339405Y-72283827D01*
X149327669Y-72300922D01*
X149314777Y-72316914D01*
X149300730Y-72331804D01*
X149285527Y-72345590D01*
X149269169Y-72358273D01*
X149251655Y-72369854D01*
X149232987Y-72380332D01*
X149213162Y-72389706D01*
X149192183Y-72397978D01*
X149170048Y-72405147D01*
X149146757Y-72411213D01*
X149122312Y-72416176D01*
X149096710Y-72420036D01*
X149069954Y-72422794D01*
X149042042Y-72424448D01*
X149012975Y-72425000D01*
X148498599Y-72425000D01*
X148477564Y-72424563D01*
X148456834Y-72423252D01*
X148436409Y-72421067D01*
X148416290Y-72418008D01*
X148396475Y-72414075D01*
X148376966Y-72409269D01*
X148357763Y-72403588D01*
X148338865Y-72397034D01*
X148320272Y-72389605D01*
X148301984Y-72381303D01*
X148284001Y-72372127D01*
X148266324Y-72362076D01*
X148248953Y-72351152D01*
X148231886Y-72339354D01*
X148215125Y-72326682D01*
X148198669Y-72313136D01*
X148180198Y-72297398D01*
X148162643Y-72280957D01*
X148146004Y-72263814D01*
X148130281Y-72245969D01*
X148115474Y-72227422D01*
X148101583Y-72208173D01*
X148088607Y-72188221D01*
X148076548Y-72167568D01*
X148065320Y-72146051D01*
X148054841Y-72123756D01*
X148045109Y-72100683D01*
X148036126Y-72076831D01*
X148027890Y-72052201D01*
X148022204Y-72033217D01*
X148016939Y-72013796D01*
X148012095Y-71993936D01*
X148007671Y-71973639D01*
X147971035Y-71797295D01*
X147976004Y-71778262D01*
X147994076Y-71770784D01*
X148012068Y-71769452D01*
X148055543Y-71769452D01*
X148075928Y-71769915D01*
X148094133Y-71770917D01*
X148114573Y-71772753D01*
X148135899Y-71775314D01*
X148153728Y-71777756D01*
X148178641Y-71897923D01*
X148183118Y-71918547D01*
X148187877Y-71938407D01*
X148192918Y-71957503D01*
X148201009Y-71984717D01*
X148209736Y-72010214D01*
X148219099Y-72033993D01*
X148229096Y-72056055D01*
X148239730Y-72076400D01*
X148250998Y-72095027D01*
X148262902Y-72111937D01*
X148275442Y-72127130D01*
X148284154Y-72136304D01*
X148302633Y-72152676D01*
X148322653Y-72166865D01*
X148344215Y-72178871D01*
X148367319Y-72188695D01*
X148391964Y-72196335D01*
X148411460Y-72200632D01*
X148431824Y-72203702D01*
X148453054Y-72205544D01*
X148475152Y-72206158D01*
X148973407Y-72206158D01*
X149005275Y-72204660D01*
X149034445Y-72200166D01*
X149060917Y-72192677D01*
X149084691Y-72182192D01*
X149105766Y-72168711D01*
X149124143Y-72152234D01*
X149139823Y-72132761D01*
X149152804Y-72110293D01*
X149163087Y-72084828D01*
X149170672Y-72056368D01*
X149175558Y-72024913D01*
X149177747Y-71990461D01*
X149177238Y-71953014D01*
X149175971Y-71933166D01*
X149174030Y-71912570D01*
X149171414Y-71891225D01*
X149168124Y-71869131D01*
X149164160Y-71846288D01*
X149159521Y-71822697D01*
X149128746Y-71674685D01*
X147970546Y-71674685D01*
X147951377Y-71668782D01*
X147940579Y-71651072D01*
X147939772Y-71647819D01*
X147896785Y-71441678D01*
X147892562Y-71419484D01*
X147889051Y-71397600D01*
X147886821Y-71380406D01*
X148091002Y-71380406D01*
X148091683Y-71404547D01*
X148093704Y-71429693D01*
X148097064Y-71455844D01*
X149083317Y-71455844D01*
X149076625Y-71431139D01*
X149069006Y-71407215D01*
X149060459Y-71384072D01*
X149050985Y-71361711D01*
X149040584Y-71340131D01*
X149029255Y-71319333D01*
X149016999Y-71299316D01*
X149003816Y-71280081D01*
X148989705Y-71261626D01*
X148974667Y-71243954D01*
X148964126Y-71232606D01*
X148947869Y-71216630D01*
X148931337Y-71202226D01*
X148914530Y-71189394D01*
X148897448Y-71178132D01*
X148880091Y-71168442D01*
X148856522Y-71157966D01*
X148832464Y-71150284D01*
X148807918Y-71145395D01*
X148782883Y-71143300D01*
X148776548Y-71143213D01*
X148291970Y-71143213D01*
X148272371Y-71143964D01*
X148247668Y-71147304D01*
X148224598Y-71153314D01*
X148203162Y-71161996D01*
X148183360Y-71173350D01*
X148165190Y-71187375D01*
X148148654Y-71204071D01*
X148133752Y-71223439D01*
X148130281Y-71228698D01*
X148117794Y-71250840D01*
X148107689Y-71274768D01*
X148101672Y-71293887D01*
X148096995Y-71314009D01*
X148093658Y-71335137D01*
X148091660Y-71357269D01*
X148091002Y-71380406D01*
X147886821Y-71380406D01*
X147886253Y-71376024D01*
X147884168Y-71354758D01*
X147882796Y-71333801D01*
X147882136Y-71313153D01*
X147882189Y-71292814D01*
X147882955Y-71272784D01*
X147884433Y-71253063D01*
X147887513Y-71227250D01*
X147888481Y-71220882D01*
X147893060Y-71195969D01*
X147898983Y-71172034D01*
X147906249Y-71149075D01*
X147914859Y-71127093D01*
X147924812Y-71106088D01*
X147936108Y-71086060D01*
X147948748Y-71067009D01*
X147962731Y-71048935D01*
X147976484Y-71034464D01*
X147990880Y-71020847D01*
X148005916Y-71008086D01*
X148021593Y-70996179D01*
X148037912Y-70985127D01*
X148054871Y-70974930D01*
X148072472Y-70965587D01*
X148090714Y-70957100D01*
X148109582Y-70949429D01*
X148129304Y-70942781D01*
X148149882Y-70937156D01*
X148171314Y-70932554D01*
X148193601Y-70928974D01*
X148216743Y-70926417D01*
X148240740Y-70924883D01*
X148265592Y-70924371D01*
X148706694Y-70924371D01*
X148730922Y-70924988D01*
G37*
G36*
X146437678Y-71428977D02*
G01*
X146419253Y-71421119D01*
X146410705Y-71402847D01*
X146410323Y-71401133D01*
X146403883Y-71368151D01*
X146398485Y-71336371D01*
X146394129Y-71305793D01*
X146390814Y-71276417D01*
X146388542Y-71248243D01*
X146387311Y-71221272D01*
X146387122Y-71195502D01*
X146387975Y-71170935D01*
X146389870Y-71147569D01*
X146392806Y-71125406D01*
X146396785Y-71104445D01*
X146401805Y-71084686D01*
X146411289Y-71057302D01*
X146423117Y-71032623D01*
X146432305Y-71017672D01*
X146447764Y-71000998D01*
X146465747Y-70985965D01*
X146486255Y-70972571D01*
X146509287Y-70960817D01*
X146534844Y-70950703D01*
X146562925Y-70942230D01*
X146583049Y-70937492D01*
X146604294Y-70933483D01*
X146626661Y-70930203D01*
X146650150Y-70927652D01*
X146674762Y-70925829D01*
X146700495Y-70924736D01*
X146727350Y-70924371D01*
X147272012Y-70924371D01*
X147299160Y-70925063D01*
X147326016Y-70927136D01*
X147352580Y-70930592D01*
X147378853Y-70935431D01*
X147404833Y-70941652D01*
X147430522Y-70949256D01*
X147455918Y-70958242D01*
X147481023Y-70968610D01*
X147505835Y-70980361D01*
X147530356Y-70993494D01*
X147546541Y-71003018D01*
X147563727Y-71017174D01*
X147580116Y-71031922D01*
X147595708Y-71047262D01*
X147610502Y-71063193D01*
X147624498Y-71079716D01*
X147637697Y-71096830D01*
X147650098Y-71114535D01*
X147661701Y-71132833D01*
X147672507Y-71151721D01*
X147682515Y-71171202D01*
X147691726Y-71191274D01*
X147700139Y-71211937D01*
X147707754Y-71233192D01*
X147714572Y-71255038D01*
X147720592Y-71277476D01*
X147725815Y-71300505D01*
X147730901Y-71326016D01*
X147735352Y-71350892D01*
X147739167Y-71375132D01*
X147742347Y-71398737D01*
X147744892Y-71421706D01*
X147746801Y-71444040D01*
X147748074Y-71465739D01*
X147748713Y-71486802D01*
X147748716Y-71507229D01*
X147748083Y-71527022D01*
X147747308Y-71539863D01*
X147744202Y-71564028D01*
X147738790Y-71585964D01*
X147731074Y-71605672D01*
X147721052Y-71623150D01*
X147708726Y-71638400D01*
X147694094Y-71651421D01*
X147677157Y-71662214D01*
X147657915Y-71670778D01*
X147639166Y-71677945D01*
X147619247Y-71684182D01*
X147598159Y-71689489D01*
X147575903Y-71693866D01*
X147552478Y-71697313D01*
X147532897Y-71699400D01*
X147517720Y-71700575D01*
X147496952Y-71701835D01*
X147475924Y-71702926D01*
X147454637Y-71703850D01*
X147433090Y-71704605D01*
X147411284Y-71705193D01*
X147389218Y-71705613D01*
X147366892Y-71705865D01*
X147344308Y-71705949D01*
X147253938Y-71705949D01*
X147230033Y-71706063D01*
X147205944Y-71706407D01*
X147181672Y-71706979D01*
X147157218Y-71707780D01*
X147132580Y-71708811D01*
X147107758Y-71710070D01*
X147082754Y-71711559D01*
X147057567Y-71713276D01*
X147032494Y-71715413D01*
X147008077Y-71718161D01*
X146984317Y-71721519D01*
X146961213Y-71725488D01*
X146938765Y-71730068D01*
X146916974Y-71735258D01*
X146895840Y-71741058D01*
X146875361Y-71747470D01*
X146855662Y-71754431D01*
X146837107Y-71762124D01*
X146815523Y-71772772D01*
X146795729Y-71784564D01*
X146777723Y-71797501D01*
X146761506Y-71811584D01*
X146749821Y-71823674D01*
X146737456Y-71840115D01*
X146728144Y-71858297D01*
X146721885Y-71878220D01*
X146718680Y-71899885D01*
X146718527Y-71923291D01*
X146720603Y-71943269D01*
X146723442Y-71958984D01*
X146729370Y-71985703D01*
X146735796Y-72010722D01*
X146742719Y-72034040D01*
X146750141Y-72055659D01*
X146758061Y-72075577D01*
X146766479Y-72093795D01*
X146778477Y-72115441D01*
X146791361Y-72134064D01*
X146805130Y-72149665D01*
X146812347Y-72156332D01*
X146831834Y-72170686D01*
X146849106Y-72180418D01*
X146867875Y-72188592D01*
X146888139Y-72195210D01*
X146909900Y-72200270D01*
X146933156Y-72203774D01*
X146957909Y-72205720D01*
X146977455Y-72206158D01*
X147536283Y-72206158D01*
X147557160Y-72205814D01*
X147579649Y-72204546D01*
X147600129Y-72202342D01*
X147621073Y-72198678D01*
X147630560Y-72196388D01*
X147650386Y-72188517D01*
X147665803Y-72175782D01*
X147674524Y-72158775D01*
X147681937Y-72136598D01*
X147684532Y-72117120D01*
X147685250Y-72093886D01*
X147684556Y-72073997D01*
X147682805Y-72051995D01*
X147679999Y-72027881D01*
X147676136Y-72001654D01*
X147671218Y-71973315D01*
X147667352Y-71953249D01*
X147665243Y-71942864D01*
X147667943Y-71923425D01*
X147684294Y-71917951D01*
X147834747Y-71917951D01*
X147853416Y-71924982D01*
X147862102Y-71942864D01*
X147868701Y-71976163D01*
X147874452Y-72008161D01*
X147879356Y-72038857D01*
X147883413Y-72068252D01*
X147886622Y-72096346D01*
X147888984Y-72123138D01*
X147890500Y-72148629D01*
X147891167Y-72172819D01*
X147890988Y-72195707D01*
X147889961Y-72217294D01*
X147888088Y-72237579D01*
X147883688Y-72265568D01*
X147877383Y-72290628D01*
X147869171Y-72312760D01*
X147866010Y-72319487D01*
X147853428Y-72338824D01*
X147838029Y-72356169D01*
X147823046Y-72369101D01*
X147806106Y-72380650D01*
X147787211Y-72390816D01*
X147766359Y-72399598D01*
X147743838Y-72406916D01*
X147724826Y-72411877D01*
X147704927Y-72416045D01*
X147684144Y-72419418D01*
X147662475Y-72421998D01*
X147639921Y-72423784D01*
X147616481Y-72424776D01*
X147598320Y-72425000D01*
X147020442Y-72425000D01*
X146996261Y-72424626D01*
X146972690Y-72423505D01*
X146949729Y-72421638D01*
X146927377Y-72419023D01*
X146905636Y-72415662D01*
X146884503Y-72411553D01*
X146863981Y-72406697D01*
X146844068Y-72401094D01*
X146824764Y-72394744D01*
X146806071Y-72387648D01*
X146787987Y-72379804D01*
X146753648Y-72361875D01*
X146721747Y-72340958D01*
X146692286Y-72317052D01*
X146665262Y-72290159D01*
X146640678Y-72260277D01*
X146629300Y-72244216D01*
X146618532Y-72227408D01*
X146608373Y-72209852D01*
X146598825Y-72191550D01*
X146589885Y-72172500D01*
X146581556Y-72152704D01*
X146573836Y-72132160D01*
X146566726Y-72110869D01*
X146560225Y-72088832D01*
X146554334Y-72066047D01*
X146549053Y-72042515D01*
X146543503Y-72014221D01*
X146538760Y-71986673D01*
X146534825Y-71959873D01*
X146531696Y-71933820D01*
X146529375Y-71908513D01*
X146527861Y-71883954D01*
X146527154Y-71860142D01*
X146527254Y-71837076D01*
X146528162Y-71814758D01*
X146529876Y-71793187D01*
X146531467Y-71779221D01*
X146534574Y-71758834D01*
X146538583Y-71739253D01*
X146545330Y-71714402D01*
X146553680Y-71690985D01*
X146563633Y-71669003D01*
X146575189Y-71648456D01*
X146588347Y-71629344D01*
X146603109Y-71611667D01*
X146611091Y-71603367D01*
X146626613Y-71588612D01*
X146643567Y-71574573D01*
X146661952Y-71561249D01*
X146681768Y-71548641D01*
X146703016Y-71536748D01*
X146721044Y-71527750D01*
X146735166Y-71521301D01*
X146754980Y-71513287D01*
X146776077Y-71506341D01*
X146798455Y-71500464D01*
X146822116Y-71495655D01*
X146847060Y-71491915D01*
X146866609Y-71489812D01*
X146886879Y-71488309D01*
X146907870Y-71487408D01*
X146929583Y-71487107D01*
X146950888Y-71487107D01*
X146971631Y-71487107D01*
X146991814Y-71487107D01*
X147011435Y-71487107D01*
X147022396Y-71487107D01*
X147043095Y-71487107D01*
X147064161Y-71487107D01*
X147085593Y-71487107D01*
X147107392Y-71487107D01*
X147133370Y-71486134D01*
X147158179Y-71485229D01*
X147181821Y-71484394D01*
X147204295Y-71483627D01*
X147225602Y-71482928D01*
X147245740Y-71482298D01*
X147270775Y-71481566D01*
X147293734Y-71480955D01*
X147314617Y-71480467D01*
X147324280Y-71480268D01*
X147345787Y-71479715D01*
X147366716Y-71478799D01*
X147386339Y-71477150D01*
X147398041Y-71473429D01*
X147417184Y-71468392D01*
X147423931Y-71468056D01*
X147445694Y-71466523D01*
X147465370Y-71465222D01*
X147486585Y-71463947D01*
X147491830Y-71463660D01*
X147511644Y-71461421D01*
X147530497Y-71455788D01*
X147533352Y-71454378D01*
X147547281Y-71440182D01*
X147551426Y-71428000D01*
X147551919Y-71407192D01*
X147549416Y-71387021D01*
X147547029Y-71374267D01*
X147541567Y-71349752D01*
X147535804Y-71326765D01*
X147529740Y-71305307D01*
X147523376Y-71285378D01*
X147516711Y-71266976D01*
X147507357Y-71244819D01*
X147497469Y-71225379D01*
X147487047Y-71208656D01*
X147473268Y-71191573D01*
X147457702Y-71177641D01*
X147439704Y-71166071D01*
X147419272Y-71156862D01*
X147396408Y-71150014D01*
X147376365Y-71146236D01*
X147354764Y-71143969D01*
X147331607Y-71143213D01*
X146750798Y-71143213D01*
X146729022Y-71143608D01*
X146708757Y-71144793D01*
X146684089Y-71147602D01*
X146662107Y-71151815D01*
X146642812Y-71157433D01*
X146622471Y-71166429D01*
X146606328Y-71177621D01*
X146596436Y-71188154D01*
X146589541Y-71207412D01*
X146586132Y-71228835D01*
X146584870Y-71249025D01*
X146584712Y-71265334D01*
X146585462Y-71286629D01*
X146587346Y-71309848D01*
X146589781Y-71330666D01*
X146593003Y-71352819D01*
X146597013Y-71376308D01*
X146600787Y-71396062D01*
X146601809Y-71401133D01*
X146601187Y-71421119D01*
X146585689Y-71428977D01*
X146437678Y-71428977D01*
G37*
G36*
X145113882Y-71996109D02*
G01*
X145124629Y-71993667D01*
X145291691Y-71993667D01*
X145310359Y-72000698D01*
X145319046Y-72018579D01*
X145325259Y-72043553D01*
X145333151Y-72066695D01*
X145342722Y-72088005D01*
X145353973Y-72107484D01*
X145366902Y-72125130D01*
X145381511Y-72140945D01*
X145397799Y-72154928D01*
X145415766Y-72167079D01*
X145435520Y-72178337D01*
X145455704Y-72187687D01*
X145476316Y-72195129D01*
X145497359Y-72200662D01*
X145518830Y-72204288D01*
X145540731Y-72206005D01*
X145549611Y-72206158D01*
X145845634Y-72206158D01*
X145870501Y-72204944D01*
X145893078Y-72201304D01*
X145913365Y-72195236D01*
X145931363Y-72186741D01*
X145950640Y-72172709D01*
X145966339Y-72154884D01*
X145976323Y-72137894D01*
X145980456Y-72128489D01*
X145987027Y-72107766D01*
X145991599Y-72084433D01*
X145994171Y-72058490D01*
X145994788Y-72037320D01*
X145994280Y-72014681D01*
X145992647Y-71990574D01*
X145989889Y-71964999D01*
X145986007Y-71937955D01*
X145980999Y-71909443D01*
X145977036Y-71889619D01*
X145828537Y-71174476D01*
X145066987Y-71174476D01*
X145047072Y-71168866D01*
X145035198Y-71152036D01*
X145033282Y-71145167D01*
X144986387Y-70919487D01*
X144989196Y-70899703D01*
X145008369Y-70893108D01*
X145769918Y-70893108D01*
X145716185Y-70634211D01*
X145720574Y-70614900D01*
X145733282Y-70611741D01*
X145889109Y-70611741D01*
X145908648Y-70617358D01*
X145918418Y-70634211D01*
X145972151Y-70893108D01*
X146079618Y-70893108D01*
X146097905Y-70900553D01*
X146106485Y-70919487D01*
X146153380Y-71145167D01*
X146153607Y-71165203D01*
X146138236Y-71174476D01*
X146030770Y-71174476D01*
X146034983Y-71194901D01*
X146039170Y-71214225D01*
X146043825Y-71234905D01*
X146048948Y-71256941D01*
X146051286Y-71266800D01*
X146056375Y-71287580D01*
X146062117Y-71310351D01*
X146067400Y-71330850D01*
X146073136Y-71352731D01*
X146079326Y-71375997D01*
X146084604Y-71395605D01*
X146085969Y-71400645D01*
X146091489Y-71422322D01*
X146096814Y-71443387D01*
X146101945Y-71463843D01*
X146106882Y-71483688D01*
X146111624Y-71502922D01*
X146118371Y-71530628D01*
X146124681Y-71556960D01*
X146130553Y-71581919D01*
X146135987Y-71605504D01*
X146140983Y-71627715D01*
X146145541Y-71648551D01*
X146149661Y-71668015D01*
X146150937Y-71674197D01*
X146155255Y-71695313D01*
X146159356Y-71716102D01*
X146163239Y-71736563D01*
X146166904Y-71756698D01*
X146170353Y-71776505D01*
X146173583Y-71795984D01*
X146179391Y-71833962D01*
X146184330Y-71870631D01*
X146188398Y-71905991D01*
X146191596Y-71940042D01*
X146193924Y-71972784D01*
X146195382Y-72004217D01*
X146195969Y-72034341D01*
X146195687Y-72063156D01*
X146194534Y-72090662D01*
X146192512Y-72116859D01*
X146189619Y-72141746D01*
X146185856Y-72165325D01*
X146181223Y-72187595D01*
X146176598Y-72209075D01*
X146171148Y-72229550D01*
X146164874Y-72249020D01*
X146157776Y-72267486D01*
X146147029Y-72290544D01*
X146134817Y-72311816D01*
X146121139Y-72331302D01*
X146105996Y-72349002D01*
X146089388Y-72364916D01*
X146071115Y-72378998D01*
X146050981Y-72391202D01*
X146028984Y-72401529D01*
X146005124Y-72409979D01*
X145986007Y-72415083D01*
X145965843Y-72419132D01*
X145944631Y-72422124D01*
X145922372Y-72424061D01*
X145899065Y-72424941D01*
X145891063Y-72425000D01*
X145587225Y-72425000D01*
X145563285Y-72424487D01*
X145539702Y-72422948D01*
X145516478Y-72420384D01*
X145493611Y-72416794D01*
X145471102Y-72412179D01*
X145448951Y-72406538D01*
X145440190Y-72403995D01*
X145418435Y-72396846D01*
X145397133Y-72388529D01*
X145376284Y-72379043D01*
X145355888Y-72368389D01*
X145335946Y-72356565D01*
X145316457Y-72343573D01*
X145308788Y-72338049D01*
X145288355Y-72322639D01*
X145269068Y-72306694D01*
X145250925Y-72290216D01*
X145233927Y-72273203D01*
X145218074Y-72255655D01*
X145203366Y-72237574D01*
X145189803Y-72218958D01*
X145177385Y-72199808D01*
X145165944Y-72179986D01*
X145155312Y-72159355D01*
X145145489Y-72137915D01*
X145136474Y-72115666D01*
X145128269Y-72092608D01*
X145120873Y-72068741D01*
X145114287Y-72044065D01*
X145109877Y-72025027D01*
X145108509Y-72018579D01*
X145108997Y-72010275D01*
X145113882Y-71996109D01*
G37*
G36*
X142297762Y-71247749D02*
G01*
X142292868Y-71223182D01*
X142288565Y-71199183D01*
X142284853Y-71175753D01*
X142281734Y-71152891D01*
X142279205Y-71130598D01*
X142277268Y-71108874D01*
X142275923Y-71087718D01*
X142275169Y-71067131D01*
X142275007Y-71047113D01*
X142275873Y-71018152D01*
X142278070Y-70990470D01*
X142281598Y-70964067D01*
X142286456Y-70938944D01*
X142290435Y-70922906D01*
X142297381Y-70899816D01*
X142305582Y-70877809D01*
X142315035Y-70856883D01*
X142325743Y-70837039D01*
X142337704Y-70818278D01*
X142350919Y-70800598D01*
X142365388Y-70784000D01*
X142381110Y-70768483D01*
X142398086Y-70754049D01*
X142416315Y-70740697D01*
X142429165Y-70732397D01*
X142448200Y-70720963D01*
X142469404Y-70710354D01*
X142492775Y-70700569D01*
X142511725Y-70693771D01*
X142531895Y-70687437D01*
X142553285Y-70681566D01*
X142575893Y-70676160D01*
X142599721Y-70671217D01*
X142624769Y-70666737D01*
X142642144Y-70664009D01*
X142669094Y-70660255D01*
X142697185Y-70656870D01*
X142726418Y-70653855D01*
X142746541Y-70652050D01*
X142767172Y-70650409D01*
X142788311Y-70648932D01*
X142809957Y-70647619D01*
X142832110Y-70646470D01*
X142854772Y-70645486D01*
X142877940Y-70644665D01*
X142901617Y-70644009D01*
X142925800Y-70643517D01*
X142950492Y-70643188D01*
X142975691Y-70643024D01*
X142988481Y-70643004D01*
X143188271Y-70643004D01*
X143211524Y-70643069D01*
X143234386Y-70643265D01*
X143256857Y-70643592D01*
X143278939Y-70644049D01*
X143300630Y-70644638D01*
X143321931Y-70645356D01*
X143342842Y-70646206D01*
X143363363Y-70647186D01*
X143383493Y-70648297D01*
X143403234Y-70649539D01*
X143441544Y-70652415D01*
X143478293Y-70655813D01*
X143513481Y-70659734D01*
X143547108Y-70664178D01*
X143579174Y-70669145D01*
X143609680Y-70674635D01*
X143638625Y-70680648D01*
X143666008Y-70687183D01*
X143691831Y-70694241D01*
X143716094Y-70701822D01*
X143738795Y-70709926D01*
X143757734Y-70716642D01*
X143776206Y-70723785D01*
X143811747Y-70739350D01*
X143845418Y-70756620D01*
X143877219Y-70775597D01*
X143907151Y-70796279D01*
X143935212Y-70818668D01*
X143961403Y-70842762D01*
X143985724Y-70868562D01*
X144008176Y-70896068D01*
X144028757Y-70925280D01*
X144047468Y-70956197D01*
X144064309Y-70988821D01*
X144079281Y-71023151D01*
X144092382Y-71059186D01*
X144098231Y-71077843D01*
X144103613Y-71096927D01*
X144108528Y-71116437D01*
X144112975Y-71136374D01*
X144110582Y-71156194D01*
X144095878Y-71161775D01*
X143909276Y-71161775D01*
X143889975Y-71156914D01*
X143878634Y-71140914D01*
X143877525Y-71136374D01*
X143871296Y-71113728D01*
X143863847Y-71091953D01*
X143855176Y-71071047D01*
X143845285Y-71051011D01*
X143834172Y-71031846D01*
X143821837Y-71013551D01*
X143808282Y-70996125D01*
X143793505Y-70979570D01*
X143777431Y-70964114D01*
X143759983Y-70949986D01*
X143741161Y-70937187D01*
X143720965Y-70925715D01*
X143699395Y-70915571D01*
X143676452Y-70906755D01*
X143652134Y-70899268D01*
X143632995Y-70894524D01*
X143626443Y-70893108D01*
X143603522Y-70888002D01*
X143582428Y-70884062D01*
X143559521Y-70880408D01*
X143539889Y-70877691D01*
X143519098Y-70875157D01*
X143497147Y-70872806D01*
X143474036Y-70870638D01*
X143449550Y-70868577D01*
X143423477Y-70866791D01*
X143402881Y-70865632D01*
X143381391Y-70864627D01*
X143359009Y-70863777D01*
X143335733Y-70863082D01*
X143311564Y-70862541D01*
X143286503Y-70862154D01*
X143260548Y-70861923D01*
X143233701Y-70861845D01*
X143034398Y-70861845D01*
X142995804Y-70862013D01*
X142958912Y-70862517D01*
X142923722Y-70863357D01*
X142890234Y-70864532D01*
X142858448Y-70866043D01*
X142828364Y-70867890D01*
X142799982Y-70870073D01*
X142773303Y-70872592D01*
X142748325Y-70875447D01*
X142725050Y-70878637D01*
X142703476Y-70882163D01*
X142683605Y-70886025D01*
X142656989Y-70892448D01*
X142634203Y-70899627D01*
X142621139Y-70904832D01*
X142601966Y-70915022D01*
X142584503Y-70926783D01*
X142568749Y-70940117D01*
X142554705Y-70955024D01*
X142542371Y-70971503D01*
X142531747Y-70989554D01*
X142522832Y-71009177D01*
X142515627Y-71030373D01*
X142510093Y-71052889D01*
X142506193Y-71076718D01*
X142503926Y-71101860D01*
X142503298Y-71121578D01*
X142503588Y-71142034D01*
X142504797Y-71163229D01*
X142506925Y-71185162D01*
X142509972Y-71207833D01*
X142513938Y-71231244D01*
X142517092Y-71247260D01*
X142522740Y-71271557D01*
X142529426Y-71294865D01*
X142537150Y-71317185D01*
X142545913Y-71338516D01*
X142555713Y-71358858D01*
X142566551Y-71378213D01*
X142578428Y-71396579D01*
X142591342Y-71413956D01*
X142605294Y-71430345D01*
X142620285Y-71445746D01*
X142636313Y-71460158D01*
X142653380Y-71473582D01*
X142671484Y-71486017D01*
X142690627Y-71497464D01*
X142710807Y-71507923D01*
X142732026Y-71517393D01*
X142759194Y-71528742D01*
X142778489Y-71535687D01*
X142798731Y-71542137D01*
X142819919Y-71548090D01*
X142842053Y-71553548D01*
X142865134Y-71558509D01*
X142889162Y-71562974D01*
X142914135Y-71566943D01*
X142940056Y-71570416D01*
X142966922Y-71573392D01*
X142994736Y-71575873D01*
X143023495Y-71577857D01*
X143053201Y-71579346D01*
X143083854Y-71580338D01*
X143115453Y-71580834D01*
X143131607Y-71580896D01*
X143151824Y-71580896D01*
X143172221Y-71580896D01*
X143192104Y-71580896D01*
X143205368Y-71580896D01*
X143227075Y-71580896D01*
X143248023Y-71580896D01*
X143270793Y-71580896D01*
X143291762Y-71580896D01*
X143306485Y-71580896D01*
X143327517Y-71580896D01*
X143347380Y-71580896D01*
X143369079Y-71580896D01*
X143389188Y-71580896D01*
X143405159Y-71580896D01*
X143425340Y-71580896D01*
X143446656Y-71580896D01*
X143466504Y-71580896D01*
X143478920Y-71580896D01*
X143499840Y-71580980D01*
X143520468Y-71581230D01*
X143540804Y-71581648D01*
X143560849Y-71582232D01*
X143580601Y-71582983D01*
X143619229Y-71584987D01*
X143656690Y-71587658D01*
X143692983Y-71590997D01*
X143728108Y-71595005D01*
X143762066Y-71599680D01*
X143794855Y-71605022D01*
X143826477Y-71611033D01*
X143856931Y-71617712D01*
X143886217Y-71625058D01*
X143914336Y-71633072D01*
X143941286Y-71641754D01*
X143967069Y-71651104D01*
X143991684Y-71661122D01*
X144003554Y-71666381D01*
X144035162Y-71682999D01*
X144065263Y-71701102D01*
X144093857Y-71720689D01*
X144120943Y-71741761D01*
X144146522Y-71764317D01*
X144170593Y-71788358D01*
X144193157Y-71813883D01*
X144214213Y-71840893D01*
X144233762Y-71869387D01*
X144251804Y-71899366D01*
X144268338Y-71930829D01*
X144283365Y-71963777D01*
X144296884Y-71998210D01*
X144308896Y-72034127D01*
X144319400Y-72071529D01*
X144324087Y-72090786D01*
X144328397Y-72110415D01*
X144388481Y-72400087D01*
X144386798Y-72420231D01*
X144374803Y-72425000D01*
X142575222Y-72425000D01*
X142556049Y-72419016D01*
X142546401Y-72401064D01*
X142510742Y-72230094D01*
X142514365Y-72210739D01*
X142529793Y-72206158D01*
X144126652Y-72206158D01*
X144107113Y-72112857D01*
X144101549Y-72088761D01*
X144095115Y-72065810D01*
X144087810Y-72044004D01*
X144079636Y-72023342D01*
X144070591Y-72003826D01*
X144060676Y-71985454D01*
X144049891Y-71968227D01*
X144038236Y-71952145D01*
X144025750Y-71936987D01*
X144012469Y-71922531D01*
X143998394Y-71908777D01*
X143983526Y-71895725D01*
X143967864Y-71883376D01*
X143951408Y-71871728D01*
X143934158Y-71860783D01*
X143916115Y-71850540D01*
X143916604Y-71853471D01*
X143892255Y-71843868D01*
X143865553Y-71835210D01*
X143846445Y-71829963D01*
X143826291Y-71825135D01*
X143805091Y-71820727D01*
X143782846Y-71816739D01*
X143759555Y-71813171D01*
X143735219Y-71810023D01*
X143709837Y-71807294D01*
X143683409Y-71804985D01*
X143655935Y-71803096D01*
X143627416Y-71801627D01*
X143597851Y-71800577D01*
X143567241Y-71799948D01*
X143535585Y-71799738D01*
X143515095Y-71799738D01*
X143494853Y-71799738D01*
X143483805Y-71799738D01*
X143463856Y-71799738D01*
X143442475Y-71799738D01*
X143422008Y-71799738D01*
X143414929Y-71799738D01*
X143376827Y-71799738D01*
X143363149Y-71799738D01*
X143343610Y-71799738D01*
X143326024Y-71799738D01*
X143308439Y-71799738D01*
X143275710Y-71799738D01*
X143144308Y-71799738D01*
X143122805Y-71799650D01*
X143101649Y-71799387D01*
X143080841Y-71798948D01*
X143060380Y-71798333D01*
X143040266Y-71797543D01*
X143020499Y-71796578D01*
X142991501Y-71794800D01*
X142963284Y-71792628D01*
X142935848Y-71790061D01*
X142909193Y-71787098D01*
X142883320Y-71783741D01*
X142858229Y-71779988D01*
X142841935Y-71777267D01*
X142818047Y-71772810D01*
X142794743Y-71767862D01*
X142772022Y-71762425D01*
X142749886Y-71756499D01*
X142728333Y-71750084D01*
X142707365Y-71743178D01*
X142686980Y-71735784D01*
X142667179Y-71727900D01*
X142647962Y-71719526D01*
X142629329Y-71710664D01*
X142617232Y-71704483D01*
X142620163Y-71704483D01*
X142596499Y-71691938D01*
X142573686Y-71678483D01*
X142551723Y-71664117D01*
X142530609Y-71648842D01*
X142510346Y-71632656D01*
X142490933Y-71615560D01*
X142472370Y-71597553D01*
X142454657Y-71578637D01*
X142437795Y-71558810D01*
X142421782Y-71538074D01*
X142411579Y-71523743D01*
X142396883Y-71501563D01*
X142383020Y-71478618D01*
X142369990Y-71454908D01*
X142357792Y-71430435D01*
X142346428Y-71405197D01*
X142335896Y-71379196D01*
X142326198Y-71352429D01*
X142317332Y-71324899D01*
X142311884Y-71306121D01*
X142306807Y-71287003D01*
X142302099Y-71267546D01*
X142297762Y-71247749D01*
G37*
G36*
X141129056Y-70643056D02*
G01*
X141150904Y-70643212D01*
X141172379Y-70643472D01*
X141193479Y-70643836D01*
X141214205Y-70644304D01*
X141234558Y-70644876D01*
X141254536Y-70645552D01*
X141274140Y-70646331D01*
X141312227Y-70648203D01*
X141348817Y-70650491D01*
X141383912Y-70653195D01*
X141417511Y-70656315D01*
X141449613Y-70659851D01*
X141480220Y-70663802D01*
X141509331Y-70668170D01*
X141536945Y-70672954D01*
X141563064Y-70678154D01*
X141587687Y-70683769D01*
X141610814Y-70689801D01*
X141632444Y-70696249D01*
X141629514Y-70696249D01*
X141649083Y-70702281D01*
X141668222Y-70708837D01*
X141686933Y-70715916D01*
X141705214Y-70723520D01*
X141723065Y-70731647D01*
X141746200Y-70743298D01*
X141768571Y-70755881D01*
X141790179Y-70769394D01*
X141811023Y-70783839D01*
X141816115Y-70787595D01*
X141836090Y-70803036D01*
X141855469Y-70819316D01*
X141874252Y-70836436D01*
X141892441Y-70854396D01*
X141910034Y-70873195D01*
X141927032Y-70892834D01*
X141939389Y-70908114D01*
X141951412Y-70923866D01*
X141959241Y-70934630D01*
X141972866Y-70956383D01*
X141982853Y-70973679D01*
X141992643Y-70991817D01*
X142002236Y-71010796D01*
X142011631Y-71030617D01*
X142020829Y-71051279D01*
X142029829Y-71072783D01*
X142038632Y-71095129D01*
X142047237Y-71118316D01*
X142055645Y-71142344D01*
X142058404Y-71150540D01*
X142066583Y-71175573D01*
X142074633Y-71201396D01*
X142082554Y-71228009D01*
X142090346Y-71255412D01*
X142098010Y-71283605D01*
X142103047Y-71302839D01*
X142108028Y-71322424D01*
X142112951Y-71342361D01*
X142117817Y-71362648D01*
X142122625Y-71383287D01*
X142127376Y-71404276D01*
X142132070Y-71425617D01*
X142136707Y-71447309D01*
X142139004Y-71458286D01*
X142144469Y-71485000D01*
X142149751Y-71511165D01*
X142154849Y-71536780D01*
X142159765Y-71561845D01*
X142164497Y-71586361D01*
X142169046Y-71610327D01*
X142173412Y-71633744D01*
X142177594Y-71656612D01*
X142181594Y-71678929D01*
X142185410Y-71700697D01*
X142189043Y-71721916D01*
X142192493Y-71742585D01*
X142195760Y-71762704D01*
X142198844Y-71782274D01*
X142203125Y-71810599D01*
X142204461Y-71819766D01*
X142208085Y-71846497D01*
X142211262Y-71872104D01*
X142213992Y-71896586D01*
X142216276Y-71919943D01*
X142218114Y-71942176D01*
X142219505Y-71963283D01*
X142220450Y-71983266D01*
X142221014Y-72008159D01*
X142220785Y-72031053D01*
X142220093Y-72046912D01*
X142217658Y-72073670D01*
X142214017Y-72099355D01*
X142209170Y-72123968D01*
X142203118Y-72147509D01*
X142195859Y-72169978D01*
X142187395Y-72191374D01*
X142177724Y-72211697D01*
X142166848Y-72230949D01*
X142154765Y-72249127D01*
X142141477Y-72266234D01*
X142126983Y-72282268D01*
X142111283Y-72297230D01*
X142094376Y-72311119D01*
X142076264Y-72323936D01*
X142056946Y-72335681D01*
X142036422Y-72346353D01*
X142017178Y-72355877D01*
X141995840Y-72364786D01*
X141972406Y-72373081D01*
X141946877Y-72380761D01*
X141919252Y-72387827D01*
X141889533Y-72394278D01*
X141857718Y-72400115D01*
X141823809Y-72405338D01*
X141787804Y-72409946D01*
X141749704Y-72413940D01*
X141729868Y-72415706D01*
X141709509Y-72417319D01*
X141688626Y-72418778D01*
X141667219Y-72420084D01*
X141645288Y-72421236D01*
X141622833Y-72422235D01*
X141599855Y-72423079D01*
X141576353Y-72423771D01*
X141552327Y-72424308D01*
X141527777Y-72424692D01*
X141502703Y-72424923D01*
X141477106Y-72425000D01*
X141285620Y-72425000D01*
X141263229Y-72424946D01*
X141241244Y-72424786D01*
X141219663Y-72424519D01*
X141198486Y-72424145D01*
X141177714Y-72423664D01*
X141157346Y-72423076D01*
X141137383Y-72422382D01*
X141117825Y-72421580D01*
X141089245Y-72420178D01*
X141061576Y-72418535D01*
X141034817Y-72416651D01*
X141008969Y-72414528D01*
X140984030Y-72412163D01*
X140975920Y-72411322D01*
X140952043Y-72408567D01*
X140928956Y-72405615D01*
X140906660Y-72402465D01*
X140885153Y-72399117D01*
X140864436Y-72395573D01*
X140844509Y-72391830D01*
X140819169Y-72386533D01*
X140795233Y-72380885D01*
X140772702Y-72374886D01*
X140761963Y-72371755D01*
X140758544Y-72368824D01*
X140739262Y-72363320D01*
X140720436Y-72357249D01*
X140696042Y-72348273D01*
X140672457Y-72338289D01*
X140649682Y-72327299D01*
X140627715Y-72315300D01*
X140606558Y-72302294D01*
X140586209Y-72288281D01*
X140576338Y-72280896D01*
X140557104Y-72265387D01*
X140538481Y-72249145D01*
X140520468Y-72232170D01*
X140503066Y-72214462D01*
X140486274Y-72196022D01*
X140470093Y-72176849D01*
X140454522Y-72156943D01*
X140439562Y-72136304D01*
X140425694Y-72114559D01*
X140415523Y-72097279D01*
X140405550Y-72079165D01*
X140395774Y-72060219D01*
X140386195Y-72040439D01*
X140376814Y-72019827D01*
X140367631Y-71998382D01*
X140358645Y-71976104D01*
X140349857Y-71952993D01*
X140341266Y-71929049D01*
X140338446Y-71920882D01*
X140330005Y-71895762D01*
X140321719Y-71869860D01*
X140313587Y-71843177D01*
X140305610Y-71815713D01*
X140297788Y-71787467D01*
X140292659Y-71768202D01*
X140287598Y-71748590D01*
X140282607Y-71728631D01*
X140277684Y-71708325D01*
X140272829Y-71687671D01*
X140268044Y-71666670D01*
X140263327Y-71645321D01*
X140258679Y-71623626D01*
X140256380Y-71612648D01*
X140250864Y-71585934D01*
X140245550Y-71559769D01*
X140240438Y-71534154D01*
X140235528Y-71509089D01*
X140230821Y-71484573D01*
X140226315Y-71460607D01*
X140222013Y-71437190D01*
X140217912Y-71414323D01*
X140214014Y-71392005D01*
X140210318Y-71370237D01*
X140206824Y-71349018D01*
X140203532Y-71328349D01*
X140200443Y-71308230D01*
X140197556Y-71288660D01*
X140193605Y-71260335D01*
X140192389Y-71251168D01*
X140188922Y-71224379D01*
X140185851Y-71198784D01*
X140183175Y-71174382D01*
X140180894Y-71151174D01*
X140179216Y-71131587D01*
X140401478Y-71131587D01*
X140402140Y-71154227D01*
X140403477Y-71178252D01*
X140405490Y-71203663D01*
X140408179Y-71230459D01*
X140411543Y-71258641D01*
X140415583Y-71288207D01*
X140420298Y-71319159D01*
X140425688Y-71351497D01*
X140431754Y-71385220D01*
X140438496Y-71420328D01*
X140445913Y-71456821D01*
X140478641Y-71614113D01*
X140486386Y-71650607D01*
X140494235Y-71685715D01*
X140502186Y-71719437D01*
X140510240Y-71751775D01*
X140518397Y-71782727D01*
X140526658Y-71812293D01*
X140535021Y-71840475D01*
X140543488Y-71867271D01*
X140552057Y-71892682D01*
X140560730Y-71916707D01*
X140569505Y-71939347D01*
X140578384Y-71960602D01*
X140587366Y-71980472D01*
X140596450Y-71998956D01*
X140610270Y-72024085D01*
X140614929Y-72031769D01*
X140628212Y-72052471D01*
X140642784Y-72071714D01*
X140658643Y-72089497D01*
X140675791Y-72105820D01*
X140694227Y-72120683D01*
X140713950Y-72134087D01*
X140734962Y-72146031D01*
X140757261Y-72156516D01*
X140780849Y-72165540D01*
X140805724Y-72173105D01*
X140823024Y-72177337D01*
X140845886Y-72182488D01*
X140872157Y-72187132D01*
X140891564Y-72189946D01*
X140912487Y-72192536D01*
X140934925Y-72194900D01*
X140958878Y-72197039D01*
X140984346Y-72198953D01*
X141011329Y-72200641D01*
X141039827Y-72202105D01*
X141069841Y-72203343D01*
X141101369Y-72204357D01*
X141134412Y-72205145D01*
X141168971Y-72205708D01*
X141205044Y-72206045D01*
X141242633Y-72206158D01*
X141431677Y-72206158D01*
X141468874Y-72206045D01*
X141504507Y-72205708D01*
X141538575Y-72205145D01*
X141571078Y-72204357D01*
X141602017Y-72203343D01*
X141631391Y-72202105D01*
X141659200Y-72200641D01*
X141685445Y-72198953D01*
X141710125Y-72197039D01*
X141733240Y-72194900D01*
X141754791Y-72192536D01*
X141774777Y-72189946D01*
X141801822Y-72185640D01*
X141825347Y-72180827D01*
X141839074Y-72177337D01*
X141862039Y-72170746D01*
X141883123Y-72162694D01*
X141902328Y-72153183D01*
X141919651Y-72142212D01*
X141935094Y-72129781D01*
X141952760Y-72110937D01*
X141967082Y-72089497D01*
X141975630Y-72071714D01*
X141982298Y-72052471D01*
X141987085Y-72031769D01*
X141991068Y-72011883D01*
X141993859Y-71989780D01*
X141995457Y-71965458D01*
X141995877Y-71944404D01*
X141995533Y-71921929D01*
X141994427Y-71898036D01*
X141992557Y-71872722D01*
X141991970Y-71866172D01*
X141989958Y-71845945D01*
X141987585Y-71825013D01*
X141984852Y-71803378D01*
X141981758Y-71781038D01*
X141978303Y-71757994D01*
X141974487Y-71734246D01*
X141970311Y-71709794D01*
X141965775Y-71684638D01*
X141960878Y-71658778D01*
X141955620Y-71632214D01*
X141951914Y-71614113D01*
X141919186Y-71456821D01*
X141911385Y-71420328D01*
X141903493Y-71385220D01*
X141895509Y-71351497D01*
X141887434Y-71319159D01*
X141879267Y-71288207D01*
X141871009Y-71258641D01*
X141862659Y-71230459D01*
X141854217Y-71203663D01*
X141845684Y-71178252D01*
X141837059Y-71154227D01*
X141828342Y-71131587D01*
X141819534Y-71110332D01*
X141810635Y-71090462D01*
X141801644Y-71071978D01*
X141787985Y-71046849D01*
X141783387Y-71039166D01*
X141769347Y-71017441D01*
X141754158Y-70997331D01*
X141737817Y-70978836D01*
X141720326Y-70961954D01*
X141701684Y-70946687D01*
X141681892Y-70933034D01*
X141660949Y-70920996D01*
X141638856Y-70910572D01*
X141615612Y-70901762D01*
X141591217Y-70894566D01*
X141574315Y-70890666D01*
X141550518Y-70885515D01*
X141523459Y-70880871D01*
X141503606Y-70878057D01*
X141482304Y-70875468D01*
X141459551Y-70873103D01*
X141435348Y-70870964D01*
X141409695Y-70869050D01*
X141382592Y-70867362D01*
X141354038Y-70865898D01*
X141324034Y-70864660D01*
X141292581Y-70863647D01*
X141259676Y-70862859D01*
X141225322Y-70862296D01*
X141189518Y-70861958D01*
X141152263Y-70861845D01*
X140963219Y-70861845D01*
X140925676Y-70861958D01*
X140889740Y-70862296D01*
X140855411Y-70862859D01*
X140822688Y-70863647D01*
X140791572Y-70864660D01*
X140762062Y-70865898D01*
X140734159Y-70867362D01*
X140707863Y-70869050D01*
X140683174Y-70870964D01*
X140660091Y-70873103D01*
X140638615Y-70875468D01*
X140618745Y-70878057D01*
X140591953Y-70882363D01*
X140568776Y-70887176D01*
X140555333Y-70890666D01*
X140531713Y-70896287D01*
X140510128Y-70903626D01*
X140490577Y-70912682D01*
X140473062Y-70923456D01*
X140457581Y-70935946D01*
X140444136Y-70950154D01*
X140432726Y-70966080D01*
X140423351Y-70983722D01*
X140416011Y-71003083D01*
X140410705Y-71024160D01*
X140408299Y-71039166D01*
X140404480Y-71063255D01*
X140402180Y-71090462D01*
X140401491Y-71110332D01*
X140401478Y-71131587D01*
X140179216Y-71131587D01*
X140179008Y-71129159D01*
X140177517Y-71108338D01*
X140176420Y-71088710D01*
X140175573Y-71064397D01*
X140175428Y-71042205D01*
X140175780Y-71026953D01*
X140178137Y-70999841D01*
X140181665Y-70973823D01*
X140186365Y-70948901D01*
X140192236Y-70925074D01*
X140199279Y-70902342D01*
X140207494Y-70880705D01*
X140216880Y-70860164D01*
X140227437Y-70840718D01*
X140239167Y-70822368D01*
X140252068Y-70805112D01*
X140266140Y-70788952D01*
X140281385Y-70773887D01*
X140297800Y-70759918D01*
X140315388Y-70747044D01*
X140334147Y-70735265D01*
X140354077Y-70724581D01*
X140375504Y-70714702D01*
X140398751Y-70705461D01*
X140423818Y-70696857D01*
X140450706Y-70688891D01*
X140479414Y-70681562D01*
X140509942Y-70674870D01*
X140542291Y-70668815D01*
X140576460Y-70663398D01*
X140612450Y-70658618D01*
X140650260Y-70654475D01*
X140669848Y-70652643D01*
X140689890Y-70650970D01*
X140710388Y-70649457D01*
X140731341Y-70648102D01*
X140752749Y-70646907D01*
X140774612Y-70645872D01*
X140796930Y-70644995D01*
X140819703Y-70644278D01*
X140842932Y-70643721D01*
X140866615Y-70643322D01*
X140890754Y-70643083D01*
X140915347Y-70643004D01*
X141106834Y-70643004D01*
X141129056Y-70643056D01*
G37*
G36*
X138102647Y-71247749D02*
G01*
X138097752Y-71223182D01*
X138093450Y-71199183D01*
X138089738Y-71175753D01*
X138086618Y-71152891D01*
X138084090Y-71130598D01*
X138082153Y-71108874D01*
X138080808Y-71087718D01*
X138080054Y-71067131D01*
X138079892Y-71047113D01*
X138080758Y-71018152D01*
X138082955Y-70990470D01*
X138086482Y-70964067D01*
X138091341Y-70938944D01*
X138095320Y-70922906D01*
X138102266Y-70899816D01*
X138110466Y-70877809D01*
X138119920Y-70856883D01*
X138130628Y-70837039D01*
X138142589Y-70818278D01*
X138155804Y-70800598D01*
X138170273Y-70784000D01*
X138185995Y-70768483D01*
X138202971Y-70754049D01*
X138221200Y-70740697D01*
X138234049Y-70732397D01*
X138253085Y-70720963D01*
X138274288Y-70710354D01*
X138297659Y-70700569D01*
X138316610Y-70693771D01*
X138336780Y-70687437D01*
X138358170Y-70681566D01*
X138380778Y-70676160D01*
X138404606Y-70671217D01*
X138429654Y-70666737D01*
X138447029Y-70664009D01*
X138473978Y-70660255D01*
X138502070Y-70656870D01*
X138531303Y-70653855D01*
X138551426Y-70652050D01*
X138572057Y-70650409D01*
X138593196Y-70648932D01*
X138614842Y-70647619D01*
X138636995Y-70646470D01*
X138659656Y-70645486D01*
X138682825Y-70644665D01*
X138706501Y-70644009D01*
X138730685Y-70643517D01*
X138755377Y-70643188D01*
X138780576Y-70643024D01*
X138793366Y-70643004D01*
X138993156Y-70643004D01*
X139016408Y-70643069D01*
X139039270Y-70643265D01*
X139061742Y-70643592D01*
X139083824Y-70644049D01*
X139105515Y-70644638D01*
X139126816Y-70645356D01*
X139147727Y-70646206D01*
X139168248Y-70647186D01*
X139188378Y-70648297D01*
X139208119Y-70649539D01*
X139246428Y-70652415D01*
X139283177Y-70655813D01*
X139318366Y-70659734D01*
X139351993Y-70664178D01*
X139384059Y-70669145D01*
X139414565Y-70674635D01*
X139443510Y-70680648D01*
X139470893Y-70687183D01*
X139496716Y-70694241D01*
X139520978Y-70701822D01*
X139543680Y-70709926D01*
X139562619Y-70716642D01*
X139581091Y-70723785D01*
X139616632Y-70739350D01*
X139650303Y-70756620D01*
X139682104Y-70775597D01*
X139712035Y-70796279D01*
X139740097Y-70818668D01*
X139766288Y-70842762D01*
X139790609Y-70868562D01*
X139813060Y-70896068D01*
X139833642Y-70925280D01*
X139852353Y-70956197D01*
X139869194Y-70988821D01*
X139884166Y-71023151D01*
X139897267Y-71059186D01*
X139903116Y-71077843D01*
X139908498Y-71096927D01*
X139913413Y-71116437D01*
X139917860Y-71136374D01*
X139915467Y-71156194D01*
X139900763Y-71161775D01*
X139714161Y-71161775D01*
X139694860Y-71156914D01*
X139683519Y-71140914D01*
X139682410Y-71136374D01*
X139676181Y-71113728D01*
X139668732Y-71091953D01*
X139660061Y-71071047D01*
X139650169Y-71051011D01*
X139639056Y-71031846D01*
X139626722Y-71013551D01*
X139613167Y-70996125D01*
X139598390Y-70979570D01*
X139582316Y-70964114D01*
X139564868Y-70949986D01*
X139546046Y-70937187D01*
X139525850Y-70925715D01*
X139504280Y-70915571D01*
X139481337Y-70906755D01*
X139457019Y-70899268D01*
X139437880Y-70894524D01*
X139431328Y-70893108D01*
X139408407Y-70888002D01*
X139387313Y-70884062D01*
X139364405Y-70880408D01*
X139344774Y-70877691D01*
X139323983Y-70875157D01*
X139302032Y-70872806D01*
X139278920Y-70870638D01*
X139254435Y-70868577D01*
X139228362Y-70866791D01*
X139207766Y-70865632D01*
X139186276Y-70864627D01*
X139163893Y-70863777D01*
X139140618Y-70863082D01*
X139116449Y-70862541D01*
X139091388Y-70862154D01*
X139065433Y-70861923D01*
X139038585Y-70861845D01*
X138839283Y-70861845D01*
X138800689Y-70862013D01*
X138763797Y-70862517D01*
X138728607Y-70863357D01*
X138695119Y-70864532D01*
X138663333Y-70866043D01*
X138633249Y-70867890D01*
X138604867Y-70870073D01*
X138578188Y-70872592D01*
X138553210Y-70875447D01*
X138529934Y-70878637D01*
X138508361Y-70882163D01*
X138488489Y-70886025D01*
X138461874Y-70892448D01*
X138439088Y-70899627D01*
X138426024Y-70904832D01*
X138406851Y-70915022D01*
X138389388Y-70926783D01*
X138373634Y-70940117D01*
X138359590Y-70955024D01*
X138347256Y-70971503D01*
X138336631Y-70989554D01*
X138327717Y-71009177D01*
X138320511Y-71030373D01*
X138314978Y-71052889D01*
X138311078Y-71076718D01*
X138308811Y-71101860D01*
X138308182Y-71121578D01*
X138308473Y-71142034D01*
X138309682Y-71163229D01*
X138311810Y-71185162D01*
X138314857Y-71207833D01*
X138318823Y-71231244D01*
X138321977Y-71247260D01*
X138327625Y-71271557D01*
X138334311Y-71294865D01*
X138342035Y-71317185D01*
X138350798Y-71338516D01*
X138360598Y-71358858D01*
X138371436Y-71378213D01*
X138383312Y-71396579D01*
X138396227Y-71413956D01*
X138410179Y-71430345D01*
X138425169Y-71445746D01*
X138441198Y-71460158D01*
X138458264Y-71473582D01*
X138476369Y-71486017D01*
X138495511Y-71497464D01*
X138515692Y-71507923D01*
X138536911Y-71517393D01*
X138564079Y-71528742D01*
X138583374Y-71535687D01*
X138603616Y-71542137D01*
X138624804Y-71548090D01*
X138646938Y-71553548D01*
X138670019Y-71558509D01*
X138694047Y-71562974D01*
X138719020Y-71566943D01*
X138744941Y-71570416D01*
X138771807Y-71573392D01*
X138799620Y-71575873D01*
X138828380Y-71577857D01*
X138858086Y-71579346D01*
X138888739Y-71580338D01*
X138920338Y-71580834D01*
X138936492Y-71580896D01*
X138956709Y-71580896D01*
X138977106Y-71580896D01*
X138996989Y-71580896D01*
X139010253Y-71580896D01*
X139031960Y-71580896D01*
X139052907Y-71580896D01*
X139075678Y-71580896D01*
X139096647Y-71580896D01*
X139111370Y-71580896D01*
X139132401Y-71580896D01*
X139152265Y-71580896D01*
X139173964Y-71580896D01*
X139194073Y-71580896D01*
X139210044Y-71580896D01*
X139230224Y-71580896D01*
X139251541Y-71580896D01*
X139271389Y-71580896D01*
X139283805Y-71580896D01*
X139304725Y-71580980D01*
X139325353Y-71581230D01*
X139345689Y-71581648D01*
X139365733Y-71582232D01*
X139385486Y-71582983D01*
X139424114Y-71584987D01*
X139461575Y-71587658D01*
X139497868Y-71590997D01*
X139532993Y-71595005D01*
X139566950Y-71599680D01*
X139599740Y-71605022D01*
X139631362Y-71611033D01*
X139661816Y-71617712D01*
X139691102Y-71625058D01*
X139719221Y-71633072D01*
X139746171Y-71641754D01*
X139771954Y-71651104D01*
X139796569Y-71661122D01*
X139808439Y-71666381D01*
X139840047Y-71682999D01*
X139870148Y-71701102D01*
X139898742Y-71720689D01*
X139925828Y-71741761D01*
X139951407Y-71764317D01*
X139975478Y-71788358D01*
X139998042Y-71813883D01*
X140019098Y-71840893D01*
X140038647Y-71869387D01*
X140056689Y-71899366D01*
X140073223Y-71930829D01*
X140088250Y-71963777D01*
X140101769Y-71998210D01*
X140113781Y-72034127D01*
X140124285Y-72071529D01*
X140128972Y-72090786D01*
X140133282Y-72110415D01*
X140193366Y-72400087D01*
X140191683Y-72420231D01*
X140179688Y-72425000D01*
X138380107Y-72425000D01*
X138360934Y-72419016D01*
X138351286Y-72401064D01*
X138315627Y-72230094D01*
X138319250Y-72210739D01*
X138334678Y-72206158D01*
X139931537Y-72206158D01*
X139911998Y-72112857D01*
X139906434Y-72088761D01*
X139899999Y-72065810D01*
X139892695Y-72044004D01*
X139884521Y-72023342D01*
X139875476Y-72003826D01*
X139865561Y-71985454D01*
X139854776Y-71968227D01*
X139843121Y-71952145D01*
X139830634Y-71936987D01*
X139817354Y-71922531D01*
X139803279Y-71908777D01*
X139788411Y-71895725D01*
X139772749Y-71883376D01*
X139756293Y-71871728D01*
X139739043Y-71860783D01*
X139721000Y-71850540D01*
X139721488Y-71853471D01*
X139697139Y-71843868D01*
X139670438Y-71835210D01*
X139651330Y-71829963D01*
X139631176Y-71825135D01*
X139609976Y-71820727D01*
X139587731Y-71816739D01*
X139564440Y-71813171D01*
X139540104Y-71810023D01*
X139514722Y-71807294D01*
X139488294Y-71804985D01*
X139460820Y-71803096D01*
X139432301Y-71801627D01*
X139402736Y-71800577D01*
X139372126Y-71799948D01*
X139340470Y-71799738D01*
X139319980Y-71799738D01*
X139299738Y-71799738D01*
X139288690Y-71799738D01*
X139268740Y-71799738D01*
X139247360Y-71799738D01*
X139226893Y-71799738D01*
X139219814Y-71799738D01*
X139181712Y-71799738D01*
X139168034Y-71799738D01*
X139148495Y-71799738D01*
X139130909Y-71799738D01*
X139113324Y-71799738D01*
X139080595Y-71799738D01*
X138949193Y-71799738D01*
X138927690Y-71799650D01*
X138906534Y-71799387D01*
X138885726Y-71798948D01*
X138865265Y-71798333D01*
X138845151Y-71797543D01*
X138825384Y-71796578D01*
X138796386Y-71794800D01*
X138768168Y-71792628D01*
X138740733Y-71790061D01*
X138714078Y-71787098D01*
X138688205Y-71783741D01*
X138663114Y-71779988D01*
X138646820Y-71777267D01*
X138622932Y-71772810D01*
X138599628Y-71767862D01*
X138576907Y-71762425D01*
X138554771Y-71756499D01*
X138533218Y-71750084D01*
X138512250Y-71743178D01*
X138491865Y-71735784D01*
X138472064Y-71727900D01*
X138452847Y-71719526D01*
X138434214Y-71710664D01*
X138422116Y-71704483D01*
X138425047Y-71704483D01*
X138401384Y-71691938D01*
X138378571Y-71678483D01*
X138356607Y-71664117D01*
X138335494Y-71648842D01*
X138315231Y-71632656D01*
X138295818Y-71615560D01*
X138277255Y-71597553D01*
X138259542Y-71578637D01*
X138242680Y-71558810D01*
X138226667Y-71538074D01*
X138216464Y-71523743D01*
X138201768Y-71501563D01*
X138187905Y-71478618D01*
X138174874Y-71454908D01*
X138162677Y-71430435D01*
X138151313Y-71405197D01*
X138140781Y-71379196D01*
X138131082Y-71352429D01*
X138122217Y-71324899D01*
X138116769Y-71306121D01*
X138111691Y-71287003D01*
X138106984Y-71267546D01*
X138102647Y-71247749D01*
G37*
G36*
X138135864Y-71841259D02*
G01*
X138133910Y-71846632D01*
X138171523Y-72027372D01*
X138166715Y-72046683D01*
X138153938Y-72049842D01*
X136800832Y-72049842D01*
X136873617Y-72399598D01*
X136870778Y-72419418D01*
X136854077Y-72425000D01*
X136682130Y-72425000D01*
X136663068Y-72419418D01*
X136652592Y-72402674D01*
X136651844Y-72399598D01*
X136579060Y-72049842D01*
X136379758Y-72049842D01*
X136359974Y-72044469D01*
X136350449Y-72028349D01*
X136314789Y-71855425D01*
X136318327Y-71835676D01*
X136334329Y-71831001D01*
X136533631Y-71831001D01*
X136349818Y-70945865D01*
X136571244Y-70945865D01*
X136755403Y-71831001D01*
X137788062Y-71831001D01*
X136571244Y-70945865D01*
X136349818Y-70945865D01*
X136292807Y-70671336D01*
X136294074Y-70651000D01*
X136311858Y-70643004D01*
X136503833Y-70643004D01*
X138135864Y-71841259D01*
G37*
D12*
%TO.C,C2*%
X162324166Y-64717142D02*
X162371785Y-64764761D01*
X162371785Y-64764761D02*
X162514642Y-64812380D01*
X162514642Y-64812380D02*
X162609880Y-64812380D01*
X162609880Y-64812380D02*
X162752737Y-64764761D01*
X162752737Y-64764761D02*
X162847975Y-64669523D01*
X162847975Y-64669523D02*
X162895594Y-64574285D01*
X162895594Y-64574285D02*
X162943213Y-64383809D01*
X162943213Y-64383809D02*
X162943213Y-64240952D01*
X162943213Y-64240952D02*
X162895594Y-64050476D01*
X162895594Y-64050476D02*
X162847975Y-63955238D01*
X162847975Y-63955238D02*
X162752737Y-63860000D01*
X162752737Y-63860000D02*
X162609880Y-63812380D01*
X162609880Y-63812380D02*
X162514642Y-63812380D01*
X162514642Y-63812380D02*
X162371785Y-63860000D01*
X162371785Y-63860000D02*
X162324166Y-63907619D01*
X161943213Y-63907619D02*
X161895594Y-63860000D01*
X161895594Y-63860000D02*
X161800356Y-63812380D01*
X161800356Y-63812380D02*
X161562261Y-63812380D01*
X161562261Y-63812380D02*
X161467023Y-63860000D01*
X161467023Y-63860000D02*
X161419404Y-63907619D01*
X161419404Y-63907619D02*
X161371785Y-64002857D01*
X161371785Y-64002857D02*
X161371785Y-64098095D01*
X161371785Y-64098095D02*
X161419404Y-64240952D01*
X161419404Y-64240952D02*
X161990832Y-64812380D01*
X161990832Y-64812380D02*
X161371785Y-64812380D01*
%TO.C,R4*%
X133041666Y-72212380D02*
X133374999Y-71736190D01*
X133613094Y-72212380D02*
X133613094Y-71212380D01*
X133613094Y-71212380D02*
X133232142Y-71212380D01*
X133232142Y-71212380D02*
X133136904Y-71260000D01*
X133136904Y-71260000D02*
X133089285Y-71307619D01*
X133089285Y-71307619D02*
X133041666Y-71402857D01*
X133041666Y-71402857D02*
X133041666Y-71545714D01*
X133041666Y-71545714D02*
X133089285Y-71640952D01*
X133089285Y-71640952D02*
X133136904Y-71688571D01*
X133136904Y-71688571D02*
X133232142Y-71736190D01*
X133232142Y-71736190D02*
X133613094Y-71736190D01*
X132184523Y-71545714D02*
X132184523Y-72212380D01*
X132422618Y-71164761D02*
X132660713Y-71879047D01*
X132660713Y-71879047D02*
X132041666Y-71879047D01*
%TO.C,C4*%
X162324166Y-72707142D02*
X162371785Y-72754761D01*
X162371785Y-72754761D02*
X162514642Y-72802380D01*
X162514642Y-72802380D02*
X162609880Y-72802380D01*
X162609880Y-72802380D02*
X162752737Y-72754761D01*
X162752737Y-72754761D02*
X162847975Y-72659523D01*
X162847975Y-72659523D02*
X162895594Y-72564285D01*
X162895594Y-72564285D02*
X162943213Y-72373809D01*
X162943213Y-72373809D02*
X162943213Y-72230952D01*
X162943213Y-72230952D02*
X162895594Y-72040476D01*
X162895594Y-72040476D02*
X162847975Y-71945238D01*
X162847975Y-71945238D02*
X162752737Y-71850000D01*
X162752737Y-71850000D02*
X162609880Y-71802380D01*
X162609880Y-71802380D02*
X162514642Y-71802380D01*
X162514642Y-71802380D02*
X162371785Y-71850000D01*
X162371785Y-71850000D02*
X162324166Y-71897619D01*
X161467023Y-72135714D02*
X161467023Y-72802380D01*
X161705118Y-71754761D02*
X161943213Y-72469047D01*
X161943213Y-72469047D02*
X161324166Y-72469047D01*
%TO.C,R3*%
X133141666Y-68232380D02*
X133474999Y-67756190D01*
X133713094Y-68232380D02*
X133713094Y-67232380D01*
X133713094Y-67232380D02*
X133332142Y-67232380D01*
X133332142Y-67232380D02*
X133236904Y-67280000D01*
X133236904Y-67280000D02*
X133189285Y-67327619D01*
X133189285Y-67327619D02*
X133141666Y-67422857D01*
X133141666Y-67422857D02*
X133141666Y-67565714D01*
X133141666Y-67565714D02*
X133189285Y-67660952D01*
X133189285Y-67660952D02*
X133236904Y-67708571D01*
X133236904Y-67708571D02*
X133332142Y-67756190D01*
X133332142Y-67756190D02*
X133713094Y-67756190D01*
X132808332Y-67232380D02*
X132189285Y-67232380D01*
X132189285Y-67232380D02*
X132522618Y-67613333D01*
X132522618Y-67613333D02*
X132379761Y-67613333D01*
X132379761Y-67613333D02*
X132284523Y-67660952D01*
X132284523Y-67660952D02*
X132236904Y-67708571D01*
X132236904Y-67708571D02*
X132189285Y-67803809D01*
X132189285Y-67803809D02*
X132189285Y-68041904D01*
X132189285Y-68041904D02*
X132236904Y-68137142D01*
X132236904Y-68137142D02*
X132284523Y-68184761D01*
X132284523Y-68184761D02*
X132379761Y-68232380D01*
X132379761Y-68232380D02*
X132665475Y-68232380D01*
X132665475Y-68232380D02*
X132760713Y-68184761D01*
X132760713Y-68184761D02*
X132808332Y-68137142D01*
%TO.C,U1*%
X158331904Y-87707380D02*
X158331904Y-88516904D01*
X158331904Y-88516904D02*
X158284285Y-88612142D01*
X158284285Y-88612142D02*
X158236666Y-88659761D01*
X158236666Y-88659761D02*
X158141428Y-88707380D01*
X158141428Y-88707380D02*
X157950952Y-88707380D01*
X157950952Y-88707380D02*
X157855714Y-88659761D01*
X157855714Y-88659761D02*
X157808095Y-88612142D01*
X157808095Y-88612142D02*
X157760476Y-88516904D01*
X157760476Y-88516904D02*
X157760476Y-87707380D01*
X156760476Y-88707380D02*
X157331904Y-88707380D01*
X157046190Y-88707380D02*
X157046190Y-87707380D01*
X157046190Y-87707380D02*
X157141428Y-87850238D01*
X157141428Y-87850238D02*
X157236666Y-87945476D01*
X157236666Y-87945476D02*
X157331904Y-87993095D01*
%TO.C,C1*%
X157531666Y-58637142D02*
X157579285Y-58684761D01*
X157579285Y-58684761D02*
X157722142Y-58732380D01*
X157722142Y-58732380D02*
X157817380Y-58732380D01*
X157817380Y-58732380D02*
X157960237Y-58684761D01*
X157960237Y-58684761D02*
X158055475Y-58589523D01*
X158055475Y-58589523D02*
X158103094Y-58494285D01*
X158103094Y-58494285D02*
X158150713Y-58303809D01*
X158150713Y-58303809D02*
X158150713Y-58160952D01*
X158150713Y-58160952D02*
X158103094Y-57970476D01*
X158103094Y-57970476D02*
X158055475Y-57875238D01*
X158055475Y-57875238D02*
X157960237Y-57780000D01*
X157960237Y-57780000D02*
X157817380Y-57732380D01*
X157817380Y-57732380D02*
X157722142Y-57732380D01*
X157722142Y-57732380D02*
X157579285Y-57780000D01*
X157579285Y-57780000D02*
X157531666Y-57827619D01*
X156579285Y-58732380D02*
X157150713Y-58732380D01*
X156864999Y-58732380D02*
X156864999Y-57732380D01*
X156864999Y-57732380D02*
X156960237Y-57875238D01*
X156960237Y-57875238D02*
X157055475Y-57970476D01*
X157055475Y-57970476D02*
X157150713Y-58018095D01*
%TO.C,R5*%
X133041666Y-76192380D02*
X133374999Y-75716190D01*
X133613094Y-76192380D02*
X133613094Y-75192380D01*
X133613094Y-75192380D02*
X133232142Y-75192380D01*
X133232142Y-75192380D02*
X133136904Y-75240000D01*
X133136904Y-75240000D02*
X133089285Y-75287619D01*
X133089285Y-75287619D02*
X133041666Y-75382857D01*
X133041666Y-75382857D02*
X133041666Y-75525714D01*
X133041666Y-75525714D02*
X133089285Y-75620952D01*
X133089285Y-75620952D02*
X133136904Y-75668571D01*
X133136904Y-75668571D02*
X133232142Y-75716190D01*
X133232142Y-75716190D02*
X133613094Y-75716190D01*
X132136904Y-75192380D02*
X132613094Y-75192380D01*
X132613094Y-75192380D02*
X132660713Y-75668571D01*
X132660713Y-75668571D02*
X132613094Y-75620952D01*
X132613094Y-75620952D02*
X132517856Y-75573333D01*
X132517856Y-75573333D02*
X132279761Y-75573333D01*
X132279761Y-75573333D02*
X132184523Y-75620952D01*
X132184523Y-75620952D02*
X132136904Y-75668571D01*
X132136904Y-75668571D02*
X132089285Y-75763809D01*
X132089285Y-75763809D02*
X132089285Y-76001904D01*
X132089285Y-76001904D02*
X132136904Y-76097142D01*
X132136904Y-76097142D02*
X132184523Y-76144761D01*
X132184523Y-76144761D02*
X132279761Y-76192380D01*
X132279761Y-76192380D02*
X132517856Y-76192380D01*
X132517856Y-76192380D02*
X132613094Y-76144761D01*
X132613094Y-76144761D02*
X132660713Y-76097142D01*
%TO.C,R1*%
X133081666Y-60002380D02*
X133414999Y-59526190D01*
X133653094Y-60002380D02*
X133653094Y-59002380D01*
X133653094Y-59002380D02*
X133272142Y-59002380D01*
X133272142Y-59002380D02*
X133176904Y-59050000D01*
X133176904Y-59050000D02*
X133129285Y-59097619D01*
X133129285Y-59097619D02*
X133081666Y-59192857D01*
X133081666Y-59192857D02*
X133081666Y-59335714D01*
X133081666Y-59335714D02*
X133129285Y-59430952D01*
X133129285Y-59430952D02*
X133176904Y-59478571D01*
X133176904Y-59478571D02*
X133272142Y-59526190D01*
X133272142Y-59526190D02*
X133653094Y-59526190D01*
X132129285Y-60002380D02*
X132700713Y-60002380D01*
X132414999Y-60002380D02*
X132414999Y-59002380D01*
X132414999Y-59002380D02*
X132510237Y-59145238D01*
X132510237Y-59145238D02*
X132605475Y-59240476D01*
X132605475Y-59240476D02*
X132700713Y-59288095D01*
%TO.C,R2*%
X133141666Y-64252380D02*
X133474999Y-63776190D01*
X133713094Y-64252380D02*
X133713094Y-63252380D01*
X133713094Y-63252380D02*
X133332142Y-63252380D01*
X133332142Y-63252380D02*
X133236904Y-63300000D01*
X133236904Y-63300000D02*
X133189285Y-63347619D01*
X133189285Y-63347619D02*
X133141666Y-63442857D01*
X133141666Y-63442857D02*
X133141666Y-63585714D01*
X133141666Y-63585714D02*
X133189285Y-63680952D01*
X133189285Y-63680952D02*
X133236904Y-63728571D01*
X133236904Y-63728571D02*
X133332142Y-63776190D01*
X133332142Y-63776190D02*
X133713094Y-63776190D01*
X132760713Y-63347619D02*
X132713094Y-63300000D01*
X132713094Y-63300000D02*
X132617856Y-63252380D01*
X132617856Y-63252380D02*
X132379761Y-63252380D01*
X132379761Y-63252380D02*
X132284523Y-63300000D01*
X132284523Y-63300000D02*
X132236904Y-63347619D01*
X132236904Y-63347619D02*
X132189285Y-63442857D01*
X132189285Y-63442857D02*
X132189285Y-63538095D01*
X132189285Y-63538095D02*
X132236904Y-63680952D01*
X132236904Y-63680952D02*
X132808332Y-64252380D01*
X132808332Y-64252380D02*
X132189285Y-64252380D01*
%TO.C,R6*%
X133041666Y-80172380D02*
X133374999Y-79696190D01*
X133613094Y-80172380D02*
X133613094Y-79172380D01*
X133613094Y-79172380D02*
X133232142Y-79172380D01*
X133232142Y-79172380D02*
X133136904Y-79220000D01*
X133136904Y-79220000D02*
X133089285Y-79267619D01*
X133089285Y-79267619D02*
X133041666Y-79362857D01*
X133041666Y-79362857D02*
X133041666Y-79505714D01*
X133041666Y-79505714D02*
X133089285Y-79600952D01*
X133089285Y-79600952D02*
X133136904Y-79648571D01*
X133136904Y-79648571D02*
X133232142Y-79696190D01*
X133232142Y-79696190D02*
X133613094Y-79696190D01*
X132184523Y-79172380D02*
X132374999Y-79172380D01*
X132374999Y-79172380D02*
X132470237Y-79220000D01*
X132470237Y-79220000D02*
X132517856Y-79267619D01*
X132517856Y-79267619D02*
X132613094Y-79410476D01*
X132613094Y-79410476D02*
X132660713Y-79600952D01*
X132660713Y-79600952D02*
X132660713Y-79981904D01*
X132660713Y-79981904D02*
X132613094Y-80077142D01*
X132613094Y-80077142D02*
X132565475Y-80124761D01*
X132565475Y-80124761D02*
X132470237Y-80172380D01*
X132470237Y-80172380D02*
X132279761Y-80172380D01*
X132279761Y-80172380D02*
X132184523Y-80124761D01*
X132184523Y-80124761D02*
X132136904Y-80077142D01*
X132136904Y-80077142D02*
X132089285Y-79981904D01*
X132089285Y-79981904D02*
X132089285Y-79743809D01*
X132089285Y-79743809D02*
X132136904Y-79648571D01*
X132136904Y-79648571D02*
X132184523Y-79600952D01*
X132184523Y-79600952D02*
X132279761Y-79553333D01*
X132279761Y-79553333D02*
X132470237Y-79553333D01*
X132470237Y-79553333D02*
X132565475Y-79600952D01*
X132565475Y-79600952D02*
X132613094Y-79648571D01*
X132613094Y-79648571D02*
X132660713Y-79743809D01*
%TO.C,U2*%
X138147380Y-83058095D02*
X138956904Y-83058095D01*
X138956904Y-83058095D02*
X139052142Y-83105714D01*
X139052142Y-83105714D02*
X139099761Y-83153333D01*
X139099761Y-83153333D02*
X139147380Y-83248571D01*
X139147380Y-83248571D02*
X139147380Y-83439047D01*
X139147380Y-83439047D02*
X139099761Y-83534285D01*
X139099761Y-83534285D02*
X139052142Y-83581904D01*
X139052142Y-83581904D02*
X138956904Y-83629523D01*
X138956904Y-83629523D02*
X138147380Y-83629523D01*
X138242619Y-84058095D02*
X138195000Y-84105714D01*
X138195000Y-84105714D02*
X138147380Y-84200952D01*
X138147380Y-84200952D02*
X138147380Y-84439047D01*
X138147380Y-84439047D02*
X138195000Y-84534285D01*
X138195000Y-84534285D02*
X138242619Y-84581904D01*
X138242619Y-84581904D02*
X138337857Y-84629523D01*
X138337857Y-84629523D02*
X138433095Y-84629523D01*
X138433095Y-84629523D02*
X138575952Y-84581904D01*
X138575952Y-84581904D02*
X139147380Y-84010476D01*
X139147380Y-84010476D02*
X139147380Y-84629523D01*
%TO.C,C3*%
X162324166Y-68712142D02*
X162371785Y-68759761D01*
X162371785Y-68759761D02*
X162514642Y-68807380D01*
X162514642Y-68807380D02*
X162609880Y-68807380D01*
X162609880Y-68807380D02*
X162752737Y-68759761D01*
X162752737Y-68759761D02*
X162847975Y-68664523D01*
X162847975Y-68664523D02*
X162895594Y-68569285D01*
X162895594Y-68569285D02*
X162943213Y-68378809D01*
X162943213Y-68378809D02*
X162943213Y-68235952D01*
X162943213Y-68235952D02*
X162895594Y-68045476D01*
X162895594Y-68045476D02*
X162847975Y-67950238D01*
X162847975Y-67950238D02*
X162752737Y-67855000D01*
X162752737Y-67855000D02*
X162609880Y-67807380D01*
X162609880Y-67807380D02*
X162514642Y-67807380D01*
X162514642Y-67807380D02*
X162371785Y-67855000D01*
X162371785Y-67855000D02*
X162324166Y-67902619D01*
X161990832Y-67807380D02*
X161371785Y-67807380D01*
X161371785Y-67807380D02*
X161705118Y-68188333D01*
X161705118Y-68188333D02*
X161562261Y-68188333D01*
X161562261Y-68188333D02*
X161467023Y-68235952D01*
X161467023Y-68235952D02*
X161419404Y-68283571D01*
X161419404Y-68283571D02*
X161371785Y-68378809D01*
X161371785Y-68378809D02*
X161371785Y-68616904D01*
X161371785Y-68616904D02*
X161419404Y-68712142D01*
X161419404Y-68712142D02*
X161467023Y-68759761D01*
X161467023Y-68759761D02*
X161562261Y-68807380D01*
X161562261Y-68807380D02*
X161847975Y-68807380D01*
X161847975Y-68807380D02*
X161943213Y-68759761D01*
X161943213Y-68759761D02*
X161990832Y-68712142D01*
D13*
%TO.C,C2*%
X162868752Y-67205000D02*
X161446248Y-67205000D01*
X162868752Y-65385000D02*
X161446248Y-65385000D01*
%TO.C,R4*%
X133602064Y-74575000D02*
X132147936Y-74575000D01*
X133602064Y-72755000D02*
X132147936Y-72755000D01*
%TO.C,C4*%
X162868752Y-75195000D02*
X161446248Y-75195000D01*
X162868752Y-73375000D02*
X161446248Y-73375000D01*
%TO.C,R3*%
X133702064Y-70595000D02*
X132247936Y-70595000D01*
X133702064Y-68775000D02*
X132247936Y-68775000D01*
%TO.C,U1*%
X157570000Y-77380000D02*
X155620000Y-77380000D01*
X157570000Y-77380000D02*
X159520000Y-77380000D01*
X157570000Y-87500000D02*
X154120000Y-87500000D01*
X157570000Y-87500000D02*
X159520000Y-87500000D01*
%TO.C,C1*%
X162868752Y-62935000D02*
X161446248Y-62935000D01*
X162868752Y-61115000D02*
X161446248Y-61115000D01*
%TO.C,R5*%
X133602064Y-78555000D02*
X132147936Y-78555000D01*
X133602064Y-76735000D02*
X132147936Y-76735000D01*
%TO.C,R1*%
X133642064Y-62365000D02*
X132187936Y-62365000D01*
X133642064Y-60545000D02*
X132187936Y-60545000D01*
%TO.C,R2*%
X133702064Y-66615000D02*
X132247936Y-66615000D01*
X133702064Y-64795000D02*
X132247936Y-64795000D01*
%TO.C,R6*%
X133602064Y-82535000D02*
X132147936Y-82535000D01*
X133602064Y-80715000D02*
X132147936Y-80715000D01*
%TO.C,U2*%
X149740000Y-83820000D02*
X149740000Y-81870000D01*
X149740000Y-83820000D02*
X149740000Y-85770000D01*
X139620000Y-83820000D02*
X139620000Y-80370000D01*
X139620000Y-83820000D02*
X139620000Y-85770000D01*
%TO.C,C3*%
X162868752Y-71200000D02*
X161446248Y-71200000D01*
X162868752Y-69380000D02*
X161446248Y-69380000D01*
%TD*%
%LPC*%
D14*
%TO.C,D4*%
X159227779Y-95668735D03*
X167262221Y-70941265D03*
%TD*%
D15*
%TO.C,D3*%
X154651307Y-66862919D03*
X155558693Y-92847081D03*
%TD*%
D16*
%TO.C,D1*%
X134832221Y-95668735D03*
X126797779Y-70941265D03*
%TD*%
D17*
%TO.C,D6*%
X138920022Y-55396515D03*
X125389978Y-68013485D03*
%TD*%
D18*
%TO.C,J1*%
X149575759Y-91861764D03*
D19*
X149575759Y-94401764D03*
X147035759Y-91861764D03*
X147035759Y-94401764D03*
X144495759Y-91861764D03*
X144495759Y-94401764D03*
%TD*%
D20*
%TO.C,D5*%
X155257590Y-55396515D03*
X168787634Y-68013485D03*
%TD*%
D21*
%TO.C,D2*%
X139331881Y-66856980D03*
X138878119Y-92853020D03*
%TD*%
D22*
%TO.C,C2*%
X163720000Y-66295000D03*
X160595000Y-66295000D03*
%TD*%
D23*
%TO.C,R4*%
X134425000Y-73665000D03*
X131325000Y-73665000D03*
%TD*%
D22*
%TO.C,C4*%
X163720000Y-74285000D03*
X160595000Y-74285000D03*
%TD*%
D23*
%TO.C,R3*%
X134525000Y-69685000D03*
X131425000Y-69685000D03*
%TD*%
D24*
%TO.C,U1*%
X155095000Y-86885000D03*
X155095000Y-85615000D03*
X155095000Y-84345000D03*
X155095000Y-83075000D03*
X155095000Y-81805000D03*
X155095000Y-80535000D03*
X155095000Y-79265000D03*
X155095000Y-77995000D03*
X160045000Y-77995000D03*
X160045000Y-79265000D03*
X160045000Y-80535000D03*
X160045000Y-81805000D03*
X160045000Y-83075000D03*
X160045000Y-84345000D03*
X160045000Y-85615000D03*
X160045000Y-86885000D03*
%TD*%
D22*
%TO.C,C1*%
X163720000Y-62025000D03*
X160595000Y-62025000D03*
%TD*%
D23*
%TO.C,R5*%
X134425000Y-77645000D03*
X131325000Y-77645000D03*
%TD*%
%TO.C,R1*%
X134465000Y-61455000D03*
X131365000Y-61455000D03*
%TD*%
%TO.C,R2*%
X134525000Y-65705000D03*
X131425000Y-65705000D03*
%TD*%
%TO.C,R6*%
X134425000Y-81625000D03*
X131325000Y-81625000D03*
%TD*%
D25*
%TO.C,U2*%
X140235000Y-81245000D03*
X141505000Y-81245000D03*
X142775000Y-81245000D03*
X144045000Y-81245000D03*
X145315000Y-81245000D03*
X146585000Y-81245000D03*
X147855000Y-81245000D03*
X149125000Y-81245000D03*
X149125000Y-86395000D03*
X147855000Y-86395000D03*
X146585000Y-86395000D03*
X145315000Y-86395000D03*
X144045000Y-86395000D03*
X142775000Y-86395000D03*
X141505000Y-86395000D03*
X140235000Y-86395000D03*
%TD*%
D22*
%TO.C,C3*%
X163720000Y-70290000D03*
X160595000Y-70290000D03*
%TD*%
M02*
