M48
; DRILL file {KiCad (7.0.0)} date Mon Dec 18 14:13:47 2023
; FORMAT={-:-/ absolute / inch / decimal}
; #@! TF.CreationDate,2023-12-18T14:13:47-05:00
; #@! TF.GenerationSoftware,Kicad,Pcbnew,(7.0.0)
; #@! TF.FileFunction,Plated,1,2,PTH
FMAT,2
INCH
; #@! TA.AperFunction,Plated,PTH,ViaDrill
T1C0.0157
; #@! TA.AperFunction,Plated,PTH,ComponentDrill
T2C0.0197
; #@! TA.AperFunction,Plated,PTH,ComponentDrill
T3C0.0394
%
G90
G05
T1
X5.4317Y-3.0844
X5.6888Y-2.9569
X5.9384Y-3.4419
X5.9463Y-3.3967
X5.9915Y-3.4915
X6.0482Y-3.4789
X6.2313Y-3.048
X6.2459Y-2.8392
X6.4589Y-3.0116
T2
X4.9366Y-2.6777
X4.992Y-2.793
X5.3084Y-3.7665
X5.4676Y-3.6556
X5.4693Y-2.181
X5.4855Y-2.6322
X6.0886Y-2.6324
X6.1125Y-2.181
X6.1244Y-3.6554
X6.2688Y-3.7665
X6.5851Y-2.793
X6.6452Y-2.6777
T3
X5.6888Y-3.6166
X5.6888Y-3.7166
X5.7888Y-3.6166
X5.7888Y-3.7166
X5.8888Y-3.6166
X5.8888Y-3.7166
T0
M30
