%TF.GenerationSoftware,KiCad,Pcbnew,(7.0.0)*%
%TF.CreationDate,2023-12-18T14:13:41-05:00*%
%TF.ProjectId,MAGFest2023SolderingClass_variant1,4d414746-6573-4743-9230-3233536f6c64,rev?*%
%TF.SameCoordinates,Original*%
%TF.FileFunction,Legend,Top*%
%TF.FilePolarity,Positive*%
%FSLAX46Y46*%
G04 Gerber Fmt 4.6, Leading zero omitted, Abs format (unit mm)*
G04 Created by KiCad (PCBNEW (7.0.0)) date 2023-12-18 14:13:41*
%MOMM*%
%LPD*%
G01*
G04 APERTURE LIST*
G04 Aperture macros list*
%AMRoundRect*
0 Rectangle with rounded corners*
0 $1 Rounding radius*
0 $2 $3 $4 $5 $6 $7 $8 $9 X,Y pos of 4 corners*
0 Add a 4 corners polygon primitive as box body*
4,1,4,$2,$3,$4,$5,$6,$7,$8,$9,$2,$3,0*
0 Add four circle primitives for the rounded corners*
1,1,$1+$1,$2,$3*
1,1,$1+$1,$4,$5*
1,1,$1+$1,$6,$7*
1,1,$1+$1,$8,$9*
0 Add four rect primitives between the rounded corners*
20,1,$1+$1,$2,$3,$4,$5,0*
20,1,$1+$1,$4,$5,$6,$7,0*
20,1,$1+$1,$6,$7,$8,$9,0*
20,1,$1+$1,$8,$9,$2,$3,0*%
G04 Aperture macros list end*
%ADD10C,0.250000*%
%ADD11C,0.000000*%
%ADD12C,0.150000*%
%ADD13C,0.120000*%
%ADD14RoundRect,0.381000X-0.016563X1.181968X-0.708143X-0.946497X0.016563X-1.181968X0.708143X0.946497X0*%
%ADD15RoundRect,0.381000X-0.419820X1.105022X-0.341715X-1.131615X0.419820X-1.105022X0.341715X1.131615X0*%
%ADD16RoundRect,0.381000X-0.708143X0.946497X-0.016563X-1.181968X0.708143X-0.946497X0.016563X1.181968X0*%
%ADD17RoundRect,0.381000X0.558543X1.041802X-1.078226X-0.484510X-0.558543X-1.041802X1.078226X0.484510X0*%
%ADD18R,1.700000X1.700000*%
%ADD19O,1.700000X1.700000*%
%ADD20RoundRect,0.381000X-1.078226X0.484510X0.558543X-1.041802X1.078226X-0.484510X-0.558543X1.041802X0*%
%ADD21RoundRect,0.381000X-0.361413X1.125479X-0.400471X-1.112180X0.361413X-1.125479X0.400471X1.112180X0*%
G04 APERTURE END LIST*
D10*
G36*
X142143122Y-92095000D02*
G01*
X141982411Y-92095000D01*
X141982411Y-91016423D01*
X142143122Y-91016423D01*
X142143122Y-92095000D01*
G37*
G36*
X142728894Y-91016756D02*
G01*
X142739934Y-91017755D01*
X142750212Y-91019420D01*
X142759729Y-91021751D01*
X142772576Y-91026495D01*
X142783711Y-91032739D01*
X142793133Y-91040480D01*
X142800842Y-91049720D01*
X142806837Y-91060459D01*
X142811120Y-91072695D01*
X142813689Y-91086430D01*
X142814451Y-91096420D01*
X142814546Y-91101664D01*
X142814546Y-92009759D01*
X142814165Y-92020081D01*
X142812167Y-92034315D01*
X142808455Y-92047052D01*
X142803030Y-92058289D01*
X142795893Y-92068029D01*
X142787042Y-92076270D01*
X142776478Y-92083013D01*
X142764202Y-92088257D01*
X142750212Y-92092003D01*
X142739934Y-92093668D01*
X142728894Y-92094667D01*
X142717093Y-92095000D01*
X142368070Y-92095000D01*
X142356506Y-92094667D01*
X142345687Y-92093668D01*
X142335615Y-92092003D01*
X142321906Y-92088257D01*
X142309875Y-92083013D01*
X142299523Y-92076270D01*
X142290850Y-92068029D01*
X142283856Y-92058289D01*
X142278540Y-92047052D01*
X142274903Y-92034315D01*
X142272944Y-92020081D01*
X142272571Y-92009759D01*
X142272571Y-91172739D01*
X142433527Y-91172739D01*
X142433527Y-91938684D01*
X142653834Y-91938684D01*
X142653834Y-91172739D01*
X142433527Y-91172739D01*
X142272571Y-91172739D01*
X142272571Y-91101664D01*
X142272944Y-91091342D01*
X142274903Y-91077107D01*
X142278540Y-91064371D01*
X142283856Y-91053133D01*
X142290850Y-91043394D01*
X142299523Y-91035153D01*
X142309875Y-91028410D01*
X142321906Y-91023166D01*
X142335615Y-91019420D01*
X142345687Y-91017755D01*
X142356506Y-91016756D01*
X142368070Y-91016423D01*
X142717093Y-91016423D01*
X142728894Y-91016756D01*
G37*
G36*
X151641196Y-95476524D02*
G01*
X151640813Y-95486846D01*
X151638799Y-95501080D01*
X151635060Y-95513817D01*
X151629594Y-95525054D01*
X151622403Y-95534794D01*
X151613486Y-95543035D01*
X151602843Y-95549778D01*
X151590473Y-95555022D01*
X151576378Y-95558768D01*
X151566023Y-95560433D01*
X151554900Y-95561432D01*
X151543011Y-95561765D01*
X151204979Y-95561765D01*
X151193414Y-95561432D01*
X151182596Y-95560433D01*
X151172524Y-95558768D01*
X151158815Y-95555022D01*
X151146784Y-95549778D01*
X151136432Y-95543035D01*
X151127759Y-95534794D01*
X151120764Y-95525054D01*
X151115448Y-95513817D01*
X151111811Y-95501080D01*
X151109853Y-95486846D01*
X151109480Y-95476524D01*
X151109480Y-94568429D01*
X151109861Y-94558107D01*
X151111865Y-94543872D01*
X151115586Y-94531136D01*
X151121024Y-94519898D01*
X151128179Y-94510159D01*
X151137052Y-94501918D01*
X151147643Y-94495175D01*
X151159950Y-94489931D01*
X151173975Y-94486185D01*
X151184279Y-94484520D01*
X151195346Y-94483521D01*
X151207177Y-94483188D01*
X151543011Y-94483188D01*
X151554900Y-94483521D01*
X151566023Y-94484520D01*
X151576378Y-94486185D01*
X151585967Y-94488516D01*
X151598911Y-94493260D01*
X151610130Y-94499504D01*
X151619622Y-94507245D01*
X151627389Y-94516485D01*
X151633430Y-94527224D01*
X151637744Y-94539460D01*
X151640333Y-94553195D01*
X151641100Y-94563185D01*
X151641196Y-94568429D01*
X151641196Y-94811450D01*
X151479752Y-94811450D01*
X151479752Y-94639504D01*
X151270436Y-94639504D01*
X151270436Y-95405449D01*
X151479752Y-95405449D01*
X151479752Y-95139713D01*
X151360317Y-95139713D01*
X151360317Y-94983397D01*
X151641196Y-94983397D01*
X151641196Y-95476524D01*
G37*
G36*
X152310910Y-95561765D02*
G01*
X152169982Y-95561765D01*
X151912306Y-94883014D01*
X151914767Y-94895077D01*
X151916901Y-94906476D01*
X151918706Y-94917211D01*
X151920183Y-94927283D01*
X151921567Y-94938938D01*
X151922439Y-94949555D01*
X151922808Y-94960927D01*
X151922808Y-95561765D01*
X151766004Y-95561765D01*
X151766004Y-94483188D01*
X151906933Y-94483188D01*
X152164609Y-95148261D01*
X152162147Y-95136198D01*
X152160014Y-95124799D01*
X152158209Y-95114064D01*
X152156732Y-95103992D01*
X152155347Y-95092337D01*
X152154475Y-95081719D01*
X152154106Y-95070348D01*
X152154106Y-94483188D01*
X152310910Y-94483188D01*
X152310910Y-95561765D01*
G37*
G36*
X152775764Y-94483401D02*
G01*
X152787241Y-94484039D01*
X152798410Y-94485103D01*
X152809272Y-94486592D01*
X152819827Y-94488507D01*
X152830075Y-94490847D01*
X152840016Y-94493613D01*
X152849649Y-94496805D01*
X152858975Y-94500422D01*
X152867994Y-94504464D01*
X152876705Y-94508932D01*
X152889197Y-94516432D01*
X152900997Y-94524889D01*
X152912106Y-94534303D01*
X152915655Y-94537654D01*
X152925738Y-94548175D01*
X152934829Y-94559404D01*
X152942929Y-94571342D01*
X152950036Y-94583988D01*
X152956152Y-94597342D01*
X152959679Y-94606639D01*
X152962764Y-94616250D01*
X152965409Y-94626176D01*
X152967613Y-94636417D01*
X152969376Y-94646973D01*
X152970698Y-94657844D01*
X152971580Y-94669029D01*
X152972020Y-94680530D01*
X152972076Y-94686398D01*
X152972076Y-95358554D01*
X152971855Y-95370271D01*
X152971194Y-95381670D01*
X152970092Y-95392749D01*
X152968549Y-95403510D01*
X152966566Y-95413953D01*
X152964141Y-95424076D01*
X152961276Y-95433881D01*
X152957971Y-95443368D01*
X152954224Y-95452535D01*
X152950036Y-95461385D01*
X152942929Y-95474061D01*
X152934829Y-95486020D01*
X152925738Y-95497262D01*
X152915655Y-95507787D01*
X152904777Y-95517433D01*
X152893207Y-95526131D01*
X152880946Y-95533880D01*
X152867994Y-95540679D01*
X152858975Y-95544686D01*
X152849649Y-95548270D01*
X152840016Y-95551433D01*
X152830075Y-95554174D01*
X152819827Y-95556493D01*
X152809272Y-95558391D01*
X152798410Y-95559867D01*
X152787241Y-95560921D01*
X152775764Y-95561554D01*
X152763981Y-95561765D01*
X152436207Y-95561765D01*
X152436207Y-94639504D01*
X152597163Y-94639504D01*
X152597163Y-95405449D01*
X152712445Y-95405449D01*
X152724335Y-95405107D01*
X152735458Y-95404079D01*
X152745813Y-95402366D01*
X152755402Y-95399969D01*
X152768346Y-95395088D01*
X152779564Y-95388666D01*
X152789057Y-95380703D01*
X152796824Y-95371198D01*
X152802864Y-95360152D01*
X152807179Y-95347564D01*
X152809768Y-95333436D01*
X152810535Y-95323160D01*
X152810631Y-95317766D01*
X152810631Y-94725721D01*
X152810264Y-94715281D01*
X152809162Y-94705514D01*
X152806131Y-94692127D01*
X152801448Y-94680255D01*
X152795112Y-94669899D01*
X152787123Y-94661058D01*
X152777481Y-94653733D01*
X152766186Y-94647923D01*
X152753238Y-94643629D01*
X152738637Y-94640851D01*
X152727984Y-94639840D01*
X152716598Y-94639504D01*
X152597163Y-94639504D01*
X152436207Y-94639504D01*
X152436207Y-94483188D01*
X152763981Y-94483188D01*
X152775764Y-94483401D01*
G37*
G36*
X151631671Y-92169759D02*
G01*
X151631292Y-92180081D01*
X151629304Y-92194315D01*
X151625611Y-92207052D01*
X151620213Y-92218289D01*
X151613111Y-92228029D01*
X151604305Y-92236270D01*
X151593794Y-92243013D01*
X151581579Y-92248257D01*
X151567659Y-92252003D01*
X151557432Y-92253668D01*
X151546448Y-92254667D01*
X151534706Y-92255000D01*
X151204979Y-92255000D01*
X151193414Y-92254667D01*
X151182596Y-92253668D01*
X151172524Y-92252003D01*
X151158815Y-92248257D01*
X151146784Y-92243013D01*
X151136432Y-92236270D01*
X151127759Y-92228029D01*
X151120764Y-92218289D01*
X151115448Y-92207052D01*
X151111811Y-92194315D01*
X151109853Y-92180081D01*
X151109480Y-92169759D01*
X151109480Y-91911106D01*
X151267505Y-91911106D01*
X151267505Y-92098684D01*
X151474378Y-92098684D01*
X151474378Y-91844183D01*
X151277274Y-91716444D01*
X151277274Y-91682739D01*
X151474378Y-91553046D01*
X151474378Y-91332739D01*
X151267505Y-91332739D01*
X151267505Y-91504685D01*
X151109480Y-91504685D01*
X151109480Y-91261664D01*
X151109861Y-91251342D01*
X151111865Y-91237107D01*
X151115586Y-91224371D01*
X151121024Y-91213133D01*
X151128179Y-91203394D01*
X151137052Y-91195153D01*
X151147643Y-91188410D01*
X151159950Y-91183166D01*
X151173975Y-91179420D01*
X151184279Y-91177755D01*
X151195346Y-91176756D01*
X151207177Y-91176423D01*
X151534706Y-91176423D01*
X151546448Y-91176756D01*
X151557432Y-91177755D01*
X151567659Y-91179420D01*
X151581579Y-91183166D01*
X151593794Y-91188410D01*
X151604305Y-91195153D01*
X151613111Y-91203394D01*
X151620213Y-91213133D01*
X151625611Y-91224371D01*
X151629304Y-91237107D01*
X151631292Y-91251342D01*
X151631671Y-91261664D01*
X151631671Y-91524713D01*
X151631201Y-91537307D01*
X151629790Y-91549351D01*
X151627440Y-91560846D01*
X151624149Y-91571791D01*
X151619918Y-91582187D01*
X151614747Y-91592033D01*
X151608635Y-91601329D01*
X151601583Y-91610076D01*
X151593591Y-91618274D01*
X151584659Y-91625922D01*
X151578182Y-91630715D01*
X151478531Y-91700080D01*
X151579403Y-91767979D01*
X151588744Y-91774743D01*
X151597166Y-91782121D01*
X151604669Y-91790114D01*
X151611254Y-91798720D01*
X151616919Y-91807939D01*
X151621666Y-91817773D01*
X151625495Y-91828221D01*
X151628404Y-91839283D01*
X151630395Y-91850959D01*
X151631467Y-91863248D01*
X151631671Y-91871782D01*
X151631671Y-92169759D01*
G37*
G36*
X152288440Y-91176423D02*
G01*
X152082543Y-92255000D01*
X151922320Y-92255000D01*
X151716912Y-91176423D01*
X151878356Y-91176423D01*
X151998524Y-91914769D01*
X151999011Y-91925395D01*
X151999559Y-91937428D01*
X152000040Y-91948068D01*
X152000559Y-91959609D01*
X152001116Y-91972050D01*
X152001559Y-91981972D01*
X152002023Y-91992400D01*
X152002509Y-92003335D01*
X152002676Y-92007093D01*
X152002648Y-91996467D01*
X152002871Y-91984434D01*
X152003230Y-91973794D01*
X152003749Y-91962253D01*
X152004428Y-91949812D01*
X152005043Y-91939890D01*
X152005748Y-91929462D01*
X152006543Y-91918527D01*
X152006828Y-91914769D01*
X152127728Y-91176423D01*
X152288440Y-91176423D01*
G37*
G36*
X152897826Y-92169759D02*
G01*
X152897447Y-92180081D01*
X152895458Y-92194315D01*
X152891765Y-92207052D01*
X152886368Y-92218289D01*
X152879266Y-92228029D01*
X152870460Y-92236270D01*
X152859949Y-92243013D01*
X152847734Y-92248257D01*
X152833814Y-92252003D01*
X152823587Y-92253668D01*
X152812603Y-92254667D01*
X152800861Y-92255000D01*
X152471133Y-92255000D01*
X152459569Y-92254667D01*
X152448751Y-92253668D01*
X152438679Y-92252003D01*
X152424969Y-92248257D01*
X152412939Y-92243013D01*
X152402587Y-92236270D01*
X152393914Y-92228029D01*
X152386919Y-92218289D01*
X152381603Y-92207052D01*
X152377966Y-92194315D01*
X152376008Y-92180081D01*
X152375635Y-92169759D01*
X152375635Y-91911106D01*
X152533660Y-91911106D01*
X152533660Y-92098684D01*
X152740533Y-92098684D01*
X152740533Y-91844183D01*
X152543429Y-91716444D01*
X152543429Y-91682739D01*
X152740533Y-91553046D01*
X152740533Y-91332739D01*
X152533660Y-91332739D01*
X152533660Y-91504685D01*
X152375635Y-91504685D01*
X152375635Y-91261664D01*
X152376016Y-91251342D01*
X152378020Y-91237107D01*
X152381741Y-91224371D01*
X152387179Y-91213133D01*
X152394334Y-91203394D01*
X152403207Y-91195153D01*
X152413797Y-91188410D01*
X152426105Y-91183166D01*
X152440130Y-91179420D01*
X152450434Y-91177755D01*
X152461501Y-91176756D01*
X152473332Y-91176423D01*
X152800861Y-91176423D01*
X152812603Y-91176756D01*
X152823587Y-91177755D01*
X152833814Y-91179420D01*
X152847734Y-91183166D01*
X152859949Y-91188410D01*
X152870460Y-91195153D01*
X152879266Y-91203394D01*
X152886368Y-91213133D01*
X152891765Y-91224371D01*
X152895458Y-91237107D01*
X152897447Y-91251342D01*
X152897826Y-91261664D01*
X152897826Y-91524713D01*
X152897356Y-91537307D01*
X152895945Y-91549351D01*
X152893595Y-91560846D01*
X152890304Y-91571791D01*
X152886073Y-91582187D01*
X152880901Y-91592033D01*
X152874790Y-91601329D01*
X152867738Y-91610076D01*
X152859746Y-91618274D01*
X152850814Y-91625922D01*
X152844337Y-91630715D01*
X152744685Y-91700080D01*
X152845558Y-91767979D01*
X152854899Y-91774743D01*
X152863321Y-91782121D01*
X152870824Y-91790114D01*
X152877409Y-91798720D01*
X152883074Y-91807939D01*
X152887821Y-91817773D01*
X152891650Y-91828221D01*
X152894559Y-91839283D01*
X152896550Y-91850959D01*
X152897622Y-91863248D01*
X152897826Y-91871782D01*
X152897826Y-92169759D01*
G37*
D11*
G36*
X161291342Y-62832540D02*
G01*
X166581155Y-67756848D01*
X156614697Y-99015118D01*
X156110665Y-70397260D01*
X156110665Y-69880925D01*
X154214135Y-69880925D01*
X152874350Y-69883686D01*
X152466520Y-69886673D01*
X152355359Y-69888432D01*
X152316411Y-69890317D01*
X152167052Y-75453975D01*
X152059268Y-79379464D01*
X152008435Y-81017369D01*
X150953996Y-81912104D01*
X149296060Y-83296075D01*
X147760062Y-84566416D01*
X147264490Y-84970581D01*
X147071443Y-85120263D01*
X146862810Y-84954916D01*
X146327996Y-84512364D01*
X144603673Y-83065375D01*
X142181018Y-81020806D01*
X142161571Y-80830705D01*
X142097772Y-79262322D01*
X141971465Y-75758378D01*
X141776999Y-70378472D01*
X141753318Y-69880925D01*
X138121251Y-69880925D01*
X138121251Y-70247107D01*
X137802163Y-84490289D01*
X137482944Y-98703309D01*
X137482762Y-98739748D01*
X137482275Y-98774287D01*
X137481493Y-98806831D01*
X137480425Y-98837280D01*
X137479084Y-98865538D01*
X137477478Y-98891508D01*
X137475619Y-98915091D01*
X137473517Y-98936190D01*
X137471183Y-98954709D01*
X137468626Y-98970548D01*
X137465858Y-98983612D01*
X137464398Y-98989072D01*
X137462889Y-98993802D01*
X137461332Y-98997789D01*
X137459729Y-99001021D01*
X137458080Y-99003486D01*
X137456388Y-99005171D01*
X137454654Y-99006065D01*
X137452878Y-99006156D01*
X137451062Y-99005430D01*
X137449208Y-99003877D01*
X132450039Y-83438702D01*
X127469522Y-67883849D01*
X132637942Y-63007562D01*
X137938821Y-58059341D01*
X138227658Y-58155972D01*
X138952189Y-58439338D01*
X141131464Y-59327670D01*
X143322919Y-60247133D01*
X144062673Y-60569411D01*
X144372825Y-60720520D01*
X144611562Y-66379742D01*
X144842063Y-72800864D01*
X144843783Y-72922971D01*
X147022098Y-72922971D01*
X147608782Y-72922472D01*
X148086995Y-72920842D01*
X148466065Y-72917878D01*
X148755316Y-72913380D01*
X148869175Y-72910492D01*
X148964077Y-72907145D01*
X149041187Y-72903313D01*
X149101673Y-72898972D01*
X149146698Y-72894096D01*
X149177431Y-72888661D01*
X149187801Y-72885725D01*
X149195035Y-72882639D01*
X149199278Y-72879402D01*
X149200677Y-72876008D01*
X149772441Y-60583201D01*
X152881429Y-59256051D01*
X155987241Y-57939088D01*
X161291342Y-62832540D01*
G37*
G36*
X145904254Y-61323784D02*
G01*
X145906334Y-61323853D01*
X145908359Y-61323967D01*
X145910326Y-61324127D01*
X145912231Y-61324330D01*
X145914073Y-61324577D01*
X145915847Y-61324867D01*
X145917551Y-61325199D01*
X145919182Y-61325572D01*
X145920738Y-61325986D01*
X145922214Y-61326440D01*
X145923608Y-61326933D01*
X145924918Y-61327465D01*
X145926140Y-61328035D01*
X145927271Y-61328642D01*
X145928308Y-61329286D01*
X145929249Y-61329965D01*
X145930090Y-61330679D01*
X145930828Y-61331428D01*
X145931461Y-61332210D01*
X145931986Y-61333025D01*
X145932399Y-61333873D01*
X145932698Y-61334752D01*
X145932879Y-61335662D01*
X145932940Y-61336602D01*
X146066704Y-62398045D01*
X146217631Y-63543227D01*
X146239989Y-63684117D01*
X147763062Y-63684117D01*
X147788066Y-63505656D01*
X147833277Y-63148039D01*
X147906865Y-62538605D01*
X147938431Y-62277788D01*
X147967773Y-62045053D01*
X147994641Y-61842103D01*
X148018784Y-61670639D01*
X148039950Y-61532364D01*
X148057888Y-61428979D01*
X148065568Y-61390903D01*
X148072348Y-61362188D01*
X148078194Y-61343046D01*
X148083077Y-61333691D01*
X148086691Y-61332004D01*
X148093522Y-61330797D01*
X148115979Y-61329731D01*
X148190096Y-61332348D01*
X148291766Y-61340068D01*
X148407323Y-61351419D01*
X148523104Y-61364927D01*
X148625444Y-61379121D01*
X148700678Y-61392528D01*
X148723861Y-61398475D01*
X148735143Y-61403674D01*
X148740028Y-61437693D01*
X148741516Y-61521860D01*
X148735652Y-61813679D01*
X148698050Y-62702514D01*
X148644003Y-63638775D01*
X148617584Y-63989877D01*
X148595178Y-64191059D01*
X148554564Y-64416485D01*
X147050937Y-64409472D01*
X146464874Y-64404423D01*
X145980648Y-64395665D01*
X145792439Y-64390287D01*
X145648548Y-64384451D01*
X145555262Y-64378315D01*
X145529560Y-64375183D01*
X145518867Y-64372035D01*
X145503168Y-64237544D01*
X145483940Y-63905909D01*
X145443742Y-62911369D01*
X145415971Y-61908743D01*
X145412277Y-61567000D01*
X145418326Y-61418359D01*
X145421866Y-61411021D01*
X145426692Y-61404087D01*
X145432824Y-61397550D01*
X145440281Y-61391404D01*
X145449081Y-61385642D01*
X145459243Y-61380258D01*
X145470785Y-61375247D01*
X145483728Y-61370601D01*
X145498089Y-61366315D01*
X145513888Y-61362383D01*
X145531142Y-61358797D01*
X145549872Y-61355553D01*
X145570095Y-61352644D01*
X145591831Y-61350063D01*
X145615098Y-61347805D01*
X145639914Y-61345863D01*
X145720946Y-61339900D01*
X145794349Y-61333973D01*
X145852050Y-61328766D01*
X145872490Y-61326646D01*
X145885978Y-61324961D01*
X145888394Y-61324639D01*
X145890778Y-61324369D01*
X145893128Y-61324149D01*
X145895440Y-61323979D01*
X145897712Y-61323858D01*
X145899940Y-61323786D01*
X145902122Y-61323762D01*
X145904254Y-61323784D01*
G37*
G36*
X138795541Y-84196072D02*
G01*
X138807591Y-84201048D01*
X138821422Y-84208120D01*
X138853857Y-84228022D01*
X138891712Y-84254703D01*
X138933852Y-84287092D01*
X138979143Y-84324114D01*
X139026448Y-84364698D01*
X139074635Y-84407769D01*
X139122567Y-84452254D01*
X139169110Y-84497080D01*
X139213129Y-84541174D01*
X139253489Y-84583463D01*
X139289056Y-84622874D01*
X139318695Y-84658332D01*
X139341270Y-84688767D01*
X139349554Y-84701764D01*
X139355647Y-84713103D01*
X139359407Y-84722648D01*
X139360692Y-84730267D01*
X139359175Y-84739914D01*
X139354745Y-84753135D01*
X139337859Y-84789302D01*
X139311465Y-84836774D01*
X139276997Y-84893556D01*
X139189563Y-85027067D01*
X139087013Y-85173873D01*
X138980805Y-85318012D01*
X138882395Y-85443524D01*
X138839694Y-85494306D01*
X138803240Y-85534445D01*
X138774463Y-85561946D01*
X138763401Y-85570334D01*
X138754796Y-85574815D01*
X138749104Y-85576135D01*
X138744030Y-85576100D01*
X138741724Y-85575561D01*
X138739570Y-85574668D01*
X138737569Y-85573415D01*
X138735719Y-85571798D01*
X138732471Y-85567449D01*
X138729823Y-85561580D01*
X138727768Y-85554149D01*
X138726303Y-85545117D01*
X138725422Y-85534441D01*
X138725121Y-85522080D01*
X138725395Y-85507994D01*
X138726239Y-85492142D01*
X138727647Y-85474482D01*
X138729616Y-85454973D01*
X138735215Y-85410245D01*
X138740141Y-85363516D01*
X138744732Y-85299267D01*
X138752512Y-85129737D01*
X138757762Y-84924712D01*
X138759688Y-84707246D01*
X138760344Y-84594385D01*
X138762258Y-84493207D01*
X138765346Y-84404865D01*
X138767306Y-84365868D01*
X138769528Y-84330513D01*
X138772003Y-84298944D01*
X138774720Y-84271305D01*
X138777670Y-84247739D01*
X138780841Y-84228393D01*
X138784224Y-84213408D01*
X138785992Y-84207597D01*
X138787809Y-84202931D01*
X138789673Y-84199427D01*
X138791584Y-84197104D01*
X138793541Y-84195980D01*
X138795541Y-84196072D01*
G37*
G36*
X155520780Y-92460198D02*
G01*
X155533867Y-92675883D01*
X155538357Y-92761669D01*
X155540222Y-92834787D01*
X155538520Y-92896763D01*
X155536036Y-92924049D01*
X155532308Y-92949123D01*
X155527217Y-92972174D01*
X155520645Y-92993394D01*
X155512474Y-93012974D01*
X155502588Y-93031104D01*
X155490867Y-93047975D01*
X155477195Y-93063778D01*
X155461453Y-93078704D01*
X155443524Y-93092943D01*
X155423289Y-93106687D01*
X155400632Y-93120127D01*
X155347578Y-93146854D01*
X155283419Y-93174653D01*
X155207214Y-93205050D01*
X155014894Y-93279744D01*
X154350763Y-93525849D01*
X153646639Y-93757992D01*
X152917418Y-93972517D01*
X152177999Y-94165768D01*
X151443280Y-94334092D01*
X150728161Y-94473830D01*
X150047538Y-94581329D01*
X149416310Y-94652932D01*
X149357847Y-94658452D01*
X149303306Y-94664371D01*
X149253880Y-94670508D01*
X149210764Y-94676678D01*
X149191945Y-94679720D01*
X149175151Y-94682701D01*
X149160531Y-94685599D01*
X149148235Y-94688391D01*
X149138412Y-94691054D01*
X149131210Y-94693566D01*
X149128639Y-94694759D01*
X149126780Y-94695904D01*
X149125650Y-94697000D01*
X149125270Y-94698045D01*
X149131587Y-94743874D01*
X149150094Y-94802980D01*
X149221013Y-94957581D01*
X149332695Y-95154978D01*
X149479807Y-95388300D01*
X149657019Y-95650679D01*
X149858997Y-95935242D01*
X150315928Y-96543446D01*
X150807945Y-97157951D01*
X151053781Y-97450391D01*
X151292393Y-97723795D01*
X151518450Y-97971294D01*
X151726618Y-98186018D01*
X151911568Y-98361097D01*
X152067966Y-98489659D01*
X152250396Y-98623536D01*
X152556254Y-98574986D01*
X152835852Y-98521485D01*
X153187380Y-98440394D01*
X153588511Y-98338017D01*
X154016919Y-98220660D01*
X154450275Y-98094627D01*
X154866253Y-97966223D01*
X155242525Y-97841754D01*
X155556764Y-97727525D01*
X155567552Y-97724006D01*
X155577098Y-97722812D01*
X155585477Y-97724669D01*
X155592765Y-97730301D01*
X155599036Y-97740435D01*
X155604366Y-97755796D01*
X155608831Y-97777108D01*
X155612506Y-97805097D01*
X155617788Y-97884010D01*
X155620813Y-97998335D01*
X155622510Y-98356439D01*
X155622510Y-99010888D01*
X154843179Y-99260121D01*
X153870337Y-99558198D01*
X152975712Y-99801896D01*
X152548540Y-99904768D01*
X152129893Y-99995745D01*
X151716095Y-100075392D01*
X151303470Y-100144277D01*
X150888341Y-100202965D01*
X150467031Y-100252024D01*
X150035866Y-100292019D01*
X149591167Y-100323518D01*
X148646467Y-100363289D01*
X147603520Y-100375871D01*
X146646582Y-100363273D01*
X145711906Y-100324038D01*
X144793812Y-100257484D01*
X143886620Y-100162930D01*
X142984649Y-100039695D01*
X142082219Y-99887100D01*
X141173650Y-99704462D01*
X140253263Y-99491101D01*
X139823327Y-99383610D01*
X139481473Y-99293543D01*
X139144083Y-99198042D01*
X138727542Y-99074250D01*
X138413613Y-98979932D01*
X138440602Y-98448247D01*
X138449843Y-98240654D01*
X138453507Y-98159063D01*
X138457627Y-98091063D01*
X138463020Y-98035745D01*
X138466451Y-98012558D01*
X138470508Y-97992201D01*
X138475292Y-97974559D01*
X138480908Y-97959520D01*
X138487456Y-97946969D01*
X138495040Y-97936794D01*
X138503762Y-97928880D01*
X138513725Y-97923114D01*
X138525030Y-97919383D01*
X138537780Y-97917571D01*
X138552078Y-97917567D01*
X138568026Y-97919256D01*
X138585726Y-97922525D01*
X138605281Y-97927260D01*
X138650365Y-97940673D01*
X138704098Y-97958587D01*
X138840785Y-98004281D01*
X139506653Y-98207188D01*
X140183735Y-98393847D01*
X140870814Y-98564126D01*
X141566671Y-98717893D01*
X142270087Y-98855015D01*
X142979844Y-98975363D01*
X143694723Y-99078803D01*
X144413505Y-99165203D01*
X145134973Y-99234433D01*
X145857907Y-99286360D01*
X146581089Y-99320852D01*
X147303301Y-99337778D01*
X148023324Y-99337006D01*
X148739939Y-99318403D01*
X149451928Y-99281839D01*
X150158072Y-99227181D01*
X150396491Y-99205382D01*
X150493013Y-99196210D01*
X150575677Y-99187921D01*
X150612110Y-99184044D01*
X150645435Y-99180312D01*
X150675770Y-99176699D01*
X150703236Y-99173181D01*
X150727950Y-99169732D01*
X150750031Y-99166328D01*
X150769598Y-99162941D01*
X150786771Y-99159549D01*
X150801667Y-99156124D01*
X150814406Y-99152642D01*
X150820003Y-99150872D01*
X150825106Y-99149079D01*
X150829729Y-99147258D01*
X150833886Y-99145407D01*
X150837594Y-99143524D01*
X150840866Y-99141603D01*
X150843717Y-99139644D01*
X150846163Y-99137641D01*
X150848218Y-99135593D01*
X150849897Y-99133496D01*
X150851215Y-99131347D01*
X150852187Y-99129142D01*
X150852827Y-99126879D01*
X150853151Y-99124555D01*
X150853173Y-99122166D01*
X150852908Y-99119708D01*
X150852371Y-99117180D01*
X150851577Y-99114578D01*
X150850540Y-99111898D01*
X150849276Y-99109138D01*
X150846126Y-99103363D01*
X150842243Y-99097229D01*
X150837748Y-99090709D01*
X150832759Y-99083779D01*
X150247369Y-98306298D01*
X149923537Y-97869699D01*
X149620602Y-97446219D01*
X149339045Y-97036602D01*
X149079349Y-96641590D01*
X148841996Y-96261927D01*
X148627467Y-95898353D01*
X148436246Y-95551612D01*
X148268813Y-95222447D01*
X148054898Y-94781785D01*
X147078454Y-94780862D01*
X146541722Y-94774766D01*
X146011177Y-94757535D01*
X145486528Y-94729115D01*
X144967482Y-94689452D01*
X144453746Y-94638492D01*
X143945029Y-94576180D01*
X143441037Y-94502465D01*
X142941478Y-94417290D01*
X142446060Y-94320603D01*
X141954491Y-94212350D01*
X141466478Y-94092477D01*
X140981728Y-93960929D01*
X140499949Y-93817654D01*
X140020849Y-93662597D01*
X139544136Y-93495704D01*
X139069516Y-93316922D01*
X138571967Y-93122845D01*
X138571967Y-92562199D01*
X138572599Y-92430954D01*
X138573389Y-92371864D01*
X138574493Y-92317133D01*
X138575912Y-92266764D01*
X138577646Y-92220759D01*
X138579694Y-92179122D01*
X138582055Y-92141856D01*
X138584729Y-92108963D01*
X138587716Y-92080447D01*
X138591016Y-92056309D01*
X138594627Y-92036554D01*
X138598550Y-92021184D01*
X138600629Y-92015144D01*
X138602785Y-92010202D01*
X138605018Y-92006357D01*
X138607330Y-92003610D01*
X138609719Y-92001962D01*
X138612185Y-92001412D01*
X138633486Y-92006710D01*
X138678938Y-92021893D01*
X138830995Y-92077645D01*
X139045758Y-92160137D01*
X139300630Y-92260835D01*
X139714818Y-92420897D01*
X140139343Y-92574100D01*
X140570962Y-92719461D01*
X141006432Y-92856000D01*
X141442510Y-92982734D01*
X141875952Y-93098684D01*
X142303515Y-93202866D01*
X142721957Y-93294301D01*
X143521044Y-93441707D01*
X144327846Y-93557779D01*
X145140379Y-93642721D01*
X145956658Y-93696735D01*
X146774700Y-93720024D01*
X147592520Y-93712790D01*
X148408136Y-93675237D01*
X149219562Y-93607566D01*
X150024814Y-93509981D01*
X150821910Y-93382684D01*
X151608864Y-93225879D01*
X152383692Y-93039766D01*
X153144412Y-92824550D01*
X153889039Y-92580433D01*
X154615588Y-92307618D01*
X155322076Y-92006306D01*
X155491014Y-91929711D01*
X155520780Y-92460198D01*
G37*
G36*
X140833897Y-85542504D02*
G01*
X140841890Y-85544741D01*
X140865684Y-85553338D01*
X140898771Y-85566926D01*
X140939806Y-85584902D01*
X140987446Y-85606661D01*
X141040346Y-85631598D01*
X141097162Y-85659108D01*
X141156550Y-85688588D01*
X141433203Y-85821016D01*
X141745068Y-85958806D01*
X142080575Y-86097581D01*
X142428154Y-86232967D01*
X142776235Y-86360589D01*
X143113248Y-86476072D01*
X143427624Y-86575042D01*
X143707793Y-86653123D01*
X143816830Y-86677684D01*
X143859607Y-86688251D01*
X143894339Y-86700946D01*
X143920867Y-86718224D01*
X143931004Y-86729347D01*
X143939028Y-86742536D01*
X143944921Y-86758097D01*
X143948662Y-86776337D01*
X143949606Y-86822079D01*
X143941700Y-86882215D01*
X143924782Y-86959199D01*
X143898690Y-87055483D01*
X143863264Y-87173522D01*
X143624980Y-87912278D01*
X143487727Y-88340015D01*
X143376470Y-88690995D01*
X143302618Y-88928940D01*
X143283284Y-88994188D01*
X143277581Y-89017575D01*
X143575679Y-89077274D01*
X144217631Y-89198812D01*
X144863328Y-89318465D01*
X145172662Y-89372510D01*
X145181972Y-89368821D01*
X145191390Y-89357508D01*
X145200979Y-89338196D01*
X145210800Y-89310513D01*
X145231384Y-89228540D01*
X145253639Y-89108605D01*
X145278058Y-88947724D01*
X145305135Y-88742913D01*
X145369245Y-88189561D01*
X145401233Y-87909259D01*
X145433556Y-87645874D01*
X145462431Y-87428973D01*
X145474393Y-87347194D01*
X145484075Y-87288125D01*
X145524819Y-87062833D01*
X146987041Y-87062833D01*
X147554855Y-87064317D01*
X148019990Y-87068355D01*
X148334437Y-87074328D01*
X148420150Y-87077847D01*
X148442503Y-87079705D01*
X148450187Y-87081616D01*
X148511851Y-87491195D01*
X148641381Y-88265017D01*
X148772846Y-89017482D01*
X148818700Y-89265205D01*
X148840314Y-89362988D01*
X148857385Y-89367254D01*
X148894360Y-89367424D01*
X149019673Y-89356803D01*
X149199562Y-89333780D01*
X149417338Y-89301009D01*
X149656309Y-89261143D01*
X149899785Y-89216837D01*
X150131076Y-89170746D01*
X150333491Y-89125523D01*
X150734334Y-89029084D01*
X150701129Y-88928540D01*
X150571015Y-88500255D01*
X150355450Y-87769501D01*
X150153477Y-87074515D01*
X150064143Y-86753533D01*
X150064573Y-86751874D01*
X150065848Y-86750004D01*
X150070851Y-86745659D01*
X150078983Y-86740560D01*
X150090076Y-86734768D01*
X150120470Y-86721354D01*
X150160683Y-86705908D01*
X150209367Y-86688925D01*
X150265174Y-86670896D01*
X150326754Y-86652315D01*
X150392758Y-86633675D01*
X150693293Y-86546556D01*
X151013904Y-86444193D01*
X151346155Y-86329788D01*
X151681609Y-86206540D01*
X152011829Y-86077649D01*
X152328378Y-85946315D01*
X152622821Y-85815737D01*
X152886720Y-85689114D01*
X152946544Y-85659530D01*
X153004239Y-85631992D01*
X153058406Y-85607100D01*
X153107646Y-85585449D01*
X153150561Y-85567637D01*
X153185753Y-85554259D01*
X153200015Y-85549421D01*
X153211823Y-85545914D01*
X153221000Y-85543815D01*
X153227372Y-85543198D01*
X153234975Y-85548137D01*
X153247717Y-85562340D01*
X153287438Y-85616641D01*
X153344185Y-85702305D01*
X153415605Y-85815535D01*
X153593060Y-86109507D01*
X153800988Y-86468182D01*
X154191363Y-87151964D01*
X154391538Y-87498998D01*
X154456357Y-87606152D01*
X154922689Y-87325036D01*
X155016798Y-87268599D01*
X155105501Y-87215944D01*
X155186791Y-87168226D01*
X155258659Y-87126598D01*
X155319099Y-87092213D01*
X155366103Y-87066224D01*
X155397662Y-87049785D01*
X155407024Y-87045507D01*
X155411771Y-87044049D01*
X155414097Y-87046143D01*
X155416356Y-87052287D01*
X155420625Y-87075900D01*
X155424485Y-87113232D01*
X155427844Y-87162630D01*
X155430606Y-87222440D01*
X155432681Y-87291008D01*
X155433974Y-87366680D01*
X155434392Y-87447800D01*
X155433995Y-87851556D01*
X154772271Y-88227132D01*
X154513309Y-88373750D01*
X154297197Y-88495402D01*
X154146544Y-88579424D01*
X154102830Y-88603368D01*
X154083959Y-88613156D01*
X154078147Y-88608869D01*
X154066432Y-88594175D01*
X154026567Y-88535665D01*
X153890036Y-88316859D01*
X153694792Y-87990350D01*
X153461263Y-87589749D01*
X153340874Y-87382034D01*
X153227290Y-87188258D01*
X153123085Y-87012661D01*
X153030834Y-86859482D01*
X152953113Y-86732962D01*
X152892496Y-86637341D01*
X152851558Y-86576859D01*
X152839274Y-86561120D01*
X152835319Y-86557108D01*
X152832875Y-86555756D01*
X152813954Y-86560701D01*
X152772330Y-86574871D01*
X152631479Y-86626913D01*
X152431320Y-86703933D01*
X152192849Y-86797982D01*
X152066004Y-86847953D01*
X151938398Y-86897114D01*
X151694738Y-86987973D01*
X151585597Y-87027156D01*
X151489525Y-87060500D01*
X151409980Y-87086746D01*
X151350417Y-87104638D01*
X151258973Y-87129856D01*
X151222766Y-87141345D01*
X151192672Y-87153395D01*
X151179862Y-87159936D01*
X151168516Y-87166985D01*
X151158612Y-87174665D01*
X151150127Y-87183097D01*
X151143040Y-87192406D01*
X151137330Y-87202712D01*
X151132975Y-87214139D01*
X151129953Y-87226809D01*
X151128242Y-87240845D01*
X151127822Y-87256369D01*
X151128669Y-87273505D01*
X151130764Y-87292373D01*
X151138605Y-87335802D01*
X151151173Y-87387635D01*
X151168294Y-87448854D01*
X151189795Y-87520439D01*
X151245244Y-87698628D01*
X151326009Y-87963448D01*
X151411122Y-88251962D01*
X151574618Y-88828463D01*
X151643117Y-89080645D01*
X151696194Y-89284910D01*
X151728905Y-89423357D01*
X151736080Y-89462303D01*
X151736310Y-89478082D01*
X151689791Y-89504138D01*
X151598718Y-89536375D01*
X151301451Y-89615865D01*
X150881600Y-89709498D01*
X150376253Y-89810216D01*
X149822500Y-89910966D01*
X149257430Y-90004691D01*
X148718131Y-90084336D01*
X148241694Y-90142846D01*
X148015344Y-90166661D01*
X147875512Y-89012280D01*
X147819519Y-88562281D01*
X147770372Y-88190503D01*
X147750025Y-88046005D01*
X147733380Y-87935531D01*
X147721101Y-87863903D01*
X147716806Y-87844164D01*
X147713851Y-87835946D01*
X147708062Y-87833632D01*
X147695452Y-87831268D01*
X147651219Y-87826453D01*
X147496859Y-87816961D01*
X147273989Y-87808561D01*
X147005826Y-87802342D01*
X146319629Y-87790700D01*
X146276767Y-88065205D01*
X146254101Y-88223643D01*
X146224032Y-88452143D01*
X146157308Y-88996938D01*
X146128929Y-89235777D01*
X146101929Y-89453751D01*
X146076743Y-89647779D01*
X146053806Y-89814781D01*
X146033554Y-89951676D01*
X146016423Y-90055383D01*
X146002848Y-90122823D01*
X145997530Y-90141980D01*
X145993264Y-90150914D01*
X145949423Y-90159067D01*
X145851046Y-90155420D01*
X145516637Y-90117329D01*
X145041935Y-90045852D01*
X144478840Y-89950196D01*
X143879252Y-89839570D01*
X143295068Y-89723183D01*
X142778189Y-89610244D01*
X142380513Y-89509961D01*
X142226920Y-89466439D01*
X142590592Y-88333230D01*
X142954129Y-87200150D01*
X142443748Y-87023675D01*
X142216611Y-86942504D01*
X141975634Y-86851845D01*
X141749539Y-86762798D01*
X141651049Y-86722348D01*
X141567052Y-86686463D01*
X141201001Y-86525597D01*
X140988540Y-86888074D01*
X140766912Y-87255414D01*
X140441464Y-87785062D01*
X140131420Y-88284025D01*
X139956004Y-88559312D01*
X139947014Y-88561941D01*
X139928054Y-88558749D01*
X139861862Y-88535700D01*
X139760695Y-88491765D01*
X139627821Y-88428544D01*
X139466509Y-88347637D01*
X139280027Y-88250645D01*
X139071642Y-88139166D01*
X138844623Y-88014802D01*
X138685210Y-87926564D01*
X138684945Y-87541730D01*
X138685502Y-87464377D01*
X138687192Y-87392223D01*
X138689896Y-87326845D01*
X138691591Y-87297189D01*
X138693494Y-87269818D01*
X138695592Y-87244929D01*
X138697868Y-87222719D01*
X138700308Y-87203385D01*
X138702898Y-87187125D01*
X138705621Y-87174135D01*
X138708463Y-87164613D01*
X138709925Y-87161213D01*
X138711410Y-87158755D01*
X138712918Y-87157261D01*
X138714446Y-87156758D01*
X138719447Y-87157829D01*
X138728111Y-87160971D01*
X138755599Y-87173045D01*
X138795257Y-87192135D01*
X138845431Y-87217398D01*
X138970709Y-87283058D01*
X139118199Y-87363267D01*
X139271495Y-87449347D01*
X139332581Y-87482827D01*
X139385168Y-87509204D01*
X139408714Y-87519557D01*
X139430663Y-87527928D01*
X139451190Y-87534250D01*
X139470471Y-87538454D01*
X139488683Y-87540471D01*
X139506000Y-87540232D01*
X139522599Y-87537670D01*
X139538656Y-87532716D01*
X139554346Y-87525301D01*
X139569845Y-87515356D01*
X139585329Y-87502814D01*
X139600974Y-87487606D01*
X139616955Y-87469663D01*
X139633449Y-87448918D01*
X139668678Y-87398743D01*
X139708065Y-87336534D01*
X139753019Y-87261743D01*
X139865251Y-87072224D01*
X140167950Y-86569086D01*
X140477893Y-86058209D01*
X140541916Y-85954469D01*
X140603051Y-85857686D01*
X140659861Y-85769977D01*
X140710909Y-85693464D01*
X140754757Y-85630264D01*
X140773532Y-85604319D01*
X140789968Y-85582497D01*
X140803886Y-85565064D01*
X140815106Y-85552283D01*
X140823448Y-85544421D01*
X140826484Y-85542417D01*
X140828732Y-85541741D01*
X140833897Y-85542504D01*
G37*
G36*
X155367494Y-84081476D02*
G01*
X155370734Y-84094194D01*
X155376823Y-84143068D01*
X155382282Y-84220337D01*
X155386983Y-84322575D01*
X155393595Y-84588254D01*
X155395631Y-84912694D01*
X155394311Y-85748383D01*
X155226163Y-85560525D01*
X155144242Y-85466583D01*
X155046820Y-85351142D01*
X154941798Y-85224017D01*
X154837078Y-85095026D01*
X154740562Y-84973984D01*
X154660152Y-84870709D01*
X154603750Y-84795016D01*
X154587022Y-84770581D01*
X154579259Y-84756722D01*
X154579215Y-84754818D01*
X154580159Y-84752096D01*
X154584915Y-84744289D01*
X154593337Y-84733484D01*
X154605236Y-84719862D01*
X154638699Y-84684889D01*
X154683786Y-84640820D01*
X154738974Y-84589105D01*
X154802743Y-84531193D01*
X154873572Y-84468534D01*
X154949941Y-84402577D01*
X155027197Y-84337204D01*
X155100571Y-84276217D01*
X155168364Y-84220950D01*
X155228877Y-84172738D01*
X155280411Y-84132917D01*
X155321266Y-84102821D01*
X155337158Y-84091836D01*
X155349743Y-84083784D01*
X155358810Y-84078830D01*
X155361957Y-84077567D01*
X155364144Y-84077142D01*
X155367494Y-84081476D01*
G37*
G36*
X121037228Y-80662698D02*
G01*
X122139287Y-80662698D01*
X122141856Y-80713430D01*
X122149699Y-80772041D01*
X122162587Y-80840197D01*
X122180291Y-80919564D01*
X122202582Y-81011810D01*
X122260009Y-81241603D01*
X122455641Y-81941976D01*
X122697840Y-82662355D01*
X122984207Y-83398997D01*
X123312346Y-84148159D01*
X123679858Y-84906100D01*
X124084347Y-85669078D01*
X124523413Y-86433349D01*
X124994660Y-87195173D01*
X125495689Y-87950806D01*
X126024104Y-88696507D01*
X126577505Y-89428533D01*
X127153497Y-90143142D01*
X127749679Y-90836592D01*
X128363656Y-91505140D01*
X128993030Y-92145045D01*
X129635402Y-92752564D01*
X129988574Y-93065836D01*
X130384627Y-93403646D01*
X130796642Y-93744644D01*
X131197700Y-94067478D01*
X131560881Y-94350798D01*
X131859266Y-94573254D01*
X131975748Y-94654986D01*
X132065936Y-94713495D01*
X132126465Y-94746112D01*
X132144556Y-94751877D01*
X132153971Y-94750169D01*
X132156634Y-94745380D01*
X132159883Y-94736523D01*
X132167954Y-94707499D01*
X132177827Y-94664897D01*
X132189143Y-94610518D01*
X132214674Y-94473626D01*
X132241680Y-94311223D01*
X132329480Y-93792911D01*
X132430497Y-93269776D01*
X132543005Y-92748703D01*
X132665277Y-92236577D01*
X132795586Y-91740282D01*
X132932205Y-91266703D01*
X133073406Y-90822726D01*
X133217463Y-90415234D01*
X133244421Y-90342545D01*
X133269566Y-90273386D01*
X133292347Y-90209365D01*
X133312217Y-90152089D01*
X133328627Y-90103167D01*
X133341028Y-90064205D01*
X133348871Y-90036810D01*
X133350912Y-90027953D01*
X133351607Y-90022591D01*
X133349318Y-90017142D01*
X133342601Y-90007980D01*
X133316790Y-89979366D01*
X133275984Y-89938449D01*
X133221994Y-89886927D01*
X133156632Y-89826501D01*
X133081707Y-89758869D01*
X132999031Y-89685731D01*
X132910414Y-89608785D01*
X132336406Y-89093200D01*
X131784174Y-88553207D01*
X131254539Y-87990205D01*
X130748323Y-87405591D01*
X130266349Y-86800765D01*
X129809438Y-86177125D01*
X129378411Y-85536069D01*
X128974092Y-84878995D01*
X128597301Y-84207302D01*
X128248860Y-83522387D01*
X127929591Y-82825651D01*
X127640317Y-82118489D01*
X127381859Y-81402303D01*
X127155038Y-80678488D01*
X126960677Y-79948445D01*
X126799597Y-79213570D01*
X126764864Y-79026377D01*
X126725876Y-78800858D01*
X126645990Y-78305124D01*
X126581657Y-77866937D01*
X126562110Y-77713351D01*
X126554594Y-77626864D01*
X126544902Y-77602851D01*
X126517273Y-77592243D01*
X126472723Y-77594388D01*
X126412271Y-77608639D01*
X126247723Y-77670859D01*
X126031764Y-77773705D01*
X125772529Y-77911984D01*
X125478152Y-78080499D01*
X124816513Y-78487456D01*
X124111924Y-78953015D01*
X123429463Y-79435611D01*
X123116869Y-79670309D01*
X122834210Y-79893681D01*
X122589623Y-80100531D01*
X122391243Y-80285662D01*
X122288190Y-80388182D01*
X122247435Y-80430428D01*
X122213556Y-80468886D01*
X122186324Y-80505224D01*
X122175129Y-80523118D01*
X122165510Y-80541107D01*
X122157438Y-80559399D01*
X122150885Y-80578203D01*
X122145822Y-80597726D01*
X122142220Y-80618178D01*
X122140051Y-80639765D01*
X122139287Y-80662698D01*
X121037228Y-80662698D01*
X121027961Y-80622106D01*
X120910257Y-80032058D01*
X120809898Y-79442593D01*
X120726843Y-78852578D01*
X120661047Y-78260884D01*
X120612468Y-77666379D01*
X120581063Y-77067932D01*
X120566788Y-76464413D01*
X120569601Y-75854691D01*
X120589459Y-75237634D01*
X120626319Y-74612112D01*
X120680137Y-73976993D01*
X120750871Y-73331147D01*
X120838477Y-72673443D01*
X120942913Y-72002749D01*
X121058405Y-71367452D01*
X121194396Y-70722329D01*
X121349562Y-70070870D01*
X121522576Y-69416567D01*
X121712115Y-68762911D01*
X121916852Y-68113392D01*
X122135462Y-67471501D01*
X122366620Y-66840729D01*
X122609000Y-66224567D01*
X122861278Y-65626506D01*
X123122128Y-65050037D01*
X123390224Y-64498650D01*
X123664242Y-63975837D01*
X123942856Y-63485088D01*
X124224741Y-63029894D01*
X124508571Y-62613746D01*
X124815719Y-62180921D01*
X125250859Y-61562160D01*
X125620617Y-61060513D01*
X126029268Y-60554713D01*
X126474670Y-60046486D01*
X126954678Y-59537560D01*
X127467151Y-59029660D01*
X128009944Y-58524513D01*
X128580915Y-58023844D01*
X129177921Y-57529381D01*
X129798818Y-57042848D01*
X130441464Y-56565974D01*
X131103715Y-56100483D01*
X131783428Y-55648102D01*
X132478461Y-55210558D01*
X133186669Y-54789576D01*
X133905911Y-54386883D01*
X134634043Y-54004205D01*
X135285053Y-53681656D01*
X135929004Y-53379740D01*
X136567109Y-53098117D01*
X137200577Y-52836448D01*
X137830619Y-52594391D01*
X138458448Y-52371609D01*
X139085273Y-52167761D01*
X139712305Y-51982507D01*
X140340756Y-51815508D01*
X140971836Y-51666424D01*
X141606757Y-51534915D01*
X142246730Y-51420642D01*
X142892964Y-51323264D01*
X143546672Y-51242443D01*
X144209065Y-51177838D01*
X144881352Y-51129110D01*
X145825117Y-51089010D01*
X146781977Y-51081295D01*
X147748670Y-51105331D01*
X148721931Y-51160482D01*
X149698499Y-51246112D01*
X150675109Y-51361587D01*
X151648499Y-51506270D01*
X152615405Y-51679526D01*
X153572565Y-51880720D01*
X154516715Y-52109217D01*
X155444592Y-52364380D01*
X156352933Y-52645576D01*
X157238474Y-52952167D01*
X158097953Y-53283519D01*
X158928106Y-53638996D01*
X159725671Y-54017963D01*
X160625327Y-54497148D01*
X161512657Y-55027104D01*
X162385570Y-55605602D01*
X163241974Y-56230415D01*
X164079777Y-56899314D01*
X164896888Y-57610071D01*
X165691216Y-58360459D01*
X166460670Y-59148250D01*
X167203159Y-59971215D01*
X167916590Y-60827127D01*
X168598872Y-61713758D01*
X169247915Y-62628879D01*
X169861627Y-63570263D01*
X170437916Y-64535681D01*
X170974691Y-65522907D01*
X171469861Y-66529712D01*
X171711733Y-67070476D01*
X171951277Y-67646224D01*
X172179272Y-68230784D01*
X172386494Y-68797984D01*
X172563721Y-69321651D01*
X172701730Y-69775615D01*
X172753146Y-69968278D01*
X172791299Y-70133702D01*
X172815036Y-70268613D01*
X172823205Y-70369740D01*
X172823280Y-70373407D01*
X172823502Y-70377111D01*
X172823869Y-70380845D01*
X172824375Y-70384602D01*
X172825018Y-70388377D01*
X172825793Y-70392162D01*
X172827727Y-70399736D01*
X172830149Y-70407272D01*
X172833027Y-70414717D01*
X172836333Y-70422019D01*
X172840038Y-70429123D01*
X172844112Y-70435978D01*
X172848525Y-70442531D01*
X172853249Y-70448728D01*
X172858253Y-70454517D01*
X172863508Y-70459845D01*
X172866221Y-70462320D01*
X172868985Y-70464659D01*
X172871798Y-70466857D01*
X172874654Y-70468906D01*
X172877552Y-70470800D01*
X172880486Y-70472533D01*
X172891018Y-70483931D01*
X172902609Y-70507585D01*
X172929795Y-70596282D01*
X172963696Y-70747867D01*
X173005966Y-70971586D01*
X173122222Y-71672403D01*
X173291783Y-72772687D01*
X173397781Y-73595511D01*
X173468439Y-74428861D01*
X173504006Y-75271323D01*
X173504732Y-76121487D01*
X173470866Y-76977939D01*
X173402657Y-77839268D01*
X173300353Y-78704061D01*
X173164204Y-79570907D01*
X172994458Y-80438393D01*
X172791365Y-81305108D01*
X172555174Y-82169638D01*
X172286133Y-83030573D01*
X171984492Y-83886499D01*
X171650500Y-84736005D01*
X171284405Y-85577678D01*
X170886456Y-86410107D01*
X170635644Y-86904036D01*
X170410209Y-87327432D01*
X170302476Y-87519599D01*
X170195646Y-87702435D01*
X170087907Y-87878706D01*
X169977446Y-88051182D01*
X169862448Y-88222628D01*
X169741101Y-88395811D01*
X169611591Y-88573500D01*
X169472104Y-88758462D01*
X169155945Y-89161271D01*
X168778119Y-89626378D01*
X168271093Y-90234764D01*
X167774692Y-90811384D01*
X167286451Y-91358374D01*
X166803907Y-91877865D01*
X166324598Y-92371991D01*
X165846058Y-92842887D01*
X165365826Y-93292685D01*
X164881438Y-93723520D01*
X164390429Y-94137525D01*
X163890338Y-94536833D01*
X163378700Y-94923579D01*
X162853052Y-95299895D01*
X162310931Y-95667915D01*
X161749873Y-96029774D01*
X161167415Y-96387604D01*
X160561093Y-96743539D01*
X160256745Y-96913121D01*
X159881838Y-97114189D01*
X159469225Y-97330068D01*
X159051758Y-97544085D01*
X158662290Y-97739567D01*
X158333673Y-97899840D01*
X158098758Y-98008230D01*
X158026706Y-98037760D01*
X157990399Y-98048066D01*
X157973302Y-98048690D01*
X157967039Y-98047201D01*
X157962834Y-98042493D01*
X157961083Y-98033054D01*
X157962188Y-98017371D01*
X157974559Y-97961217D01*
X158003139Y-97861928D01*
X158051123Y-97707399D01*
X158218076Y-97184201D01*
X158440324Y-96489404D01*
X158937341Y-96230248D01*
X159535573Y-95910393D01*
X160122284Y-95580805D01*
X160697401Y-95241537D01*
X161260853Y-94892647D01*
X161812569Y-94534188D01*
X162352476Y-94166216D01*
X162880504Y-93788785D01*
X163396581Y-93401951D01*
X163900635Y-93005769D01*
X164392595Y-92600294D01*
X164872390Y-92185580D01*
X165339947Y-91761683D01*
X165795196Y-91328658D01*
X166238065Y-90886560D01*
X166668483Y-90435444D01*
X167086377Y-89975365D01*
X167189364Y-89858512D01*
X167284925Y-89748989D01*
X167371005Y-89649226D01*
X167445548Y-89561655D01*
X167506498Y-89488707D01*
X167551799Y-89432812D01*
X167567939Y-89412019D01*
X167579396Y-89396401D01*
X167585912Y-89386262D01*
X167587238Y-89383342D01*
X167587232Y-89381905D01*
X167571606Y-89377322D01*
X167532052Y-89369324D01*
X167391755Y-89344848D01*
X167187536Y-89312011D01*
X166940591Y-89274350D01*
X166392168Y-89187861D01*
X165847789Y-89092512D01*
X165313646Y-88989667D01*
X164795928Y-88880685D01*
X164300826Y-88766928D01*
X163834530Y-88649757D01*
X163403229Y-88530533D01*
X163013116Y-88410619D01*
X162498105Y-88242608D01*
X162229951Y-88524922D01*
X162131950Y-88625850D01*
X162020135Y-88737129D01*
X161765887Y-88981151D01*
X161488869Y-89237804D01*
X161210741Y-89487906D01*
X160953163Y-89712272D01*
X160737798Y-89891721D01*
X160652713Y-89958606D01*
X160586305Y-90007067D01*
X160541279Y-90034707D01*
X160527631Y-90039970D01*
X160520345Y-90039128D01*
X160519842Y-90032301D01*
X160522358Y-90016306D01*
X160535882Y-89958740D01*
X160592955Y-89754786D01*
X160682548Y-89458087D01*
X160795644Y-89099461D01*
X161091184Y-88179902D01*
X161583837Y-87658936D01*
X161745800Y-87477909D01*
X163205385Y-87477909D01*
X163207916Y-87489189D01*
X163213356Y-87499863D01*
X163221822Y-87510047D01*
X163233431Y-87519857D01*
X163248299Y-87529410D01*
X163288283Y-87548209D01*
X163342707Y-87567375D01*
X163412506Y-87587838D01*
X163601969Y-87636377D01*
X163864148Y-87701272D01*
X164340425Y-87813226D01*
X164830251Y-87913780D01*
X165326489Y-88001954D01*
X165822001Y-88076765D01*
X166309649Y-88137234D01*
X166782297Y-88182378D01*
X167232807Y-88211216D01*
X167654042Y-88222768D01*
X168325025Y-88227132D01*
X168475839Y-88058061D01*
X168554701Y-87964114D01*
X168644296Y-87847546D01*
X168850024Y-87555907D01*
X169081697Y-87201872D01*
X169327993Y-86804169D01*
X169577589Y-86381524D01*
X169819160Y-85952665D01*
X170041383Y-85536320D01*
X170232934Y-85151215D01*
X170497012Y-84576167D01*
X170743362Y-84000625D01*
X170972082Y-83424151D01*
X171183273Y-82846306D01*
X171377033Y-82266653D01*
X171553463Y-81684753D01*
X171712663Y-81100168D01*
X171854731Y-80512461D01*
X171979768Y-79921192D01*
X172087873Y-79325924D01*
X172179145Y-78726219D01*
X172253685Y-78121639D01*
X172311592Y-77511745D01*
X172352965Y-76896099D01*
X172377905Y-76274263D01*
X172386510Y-75645799D01*
X172385740Y-75206116D01*
X172382010Y-74834408D01*
X172374234Y-74510877D01*
X172361325Y-74215725D01*
X172342196Y-73929156D01*
X172315761Y-73631372D01*
X172280932Y-73302576D01*
X172236623Y-72922971D01*
X172223874Y-72820588D01*
X172211061Y-72724051D01*
X172198527Y-72635548D01*
X172186616Y-72557266D01*
X172175673Y-72491393D01*
X172166040Y-72440116D01*
X172161824Y-72420634D01*
X172158063Y-72405622D01*
X172154803Y-72395353D01*
X172152085Y-72390099D01*
X172145880Y-72390012D01*
X172132433Y-72394899D01*
X172085355Y-72418649D01*
X172013935Y-72459453D01*
X171921255Y-72515412D01*
X171810400Y-72584630D01*
X171684452Y-72665208D01*
X171399613Y-72852856D01*
X170921931Y-73165866D01*
X170432901Y-73472847D01*
X169941824Y-73768551D01*
X169458003Y-74047731D01*
X168990738Y-74305138D01*
X168549333Y-74535526D01*
X168143089Y-74733646D01*
X167781308Y-74894250D01*
X167527833Y-74999818D01*
X167527440Y-75698317D01*
X167510077Y-76485512D01*
X167459042Y-77267846D01*
X167374647Y-78044451D01*
X167257204Y-78814456D01*
X167107028Y-79576992D01*
X166924429Y-80331188D01*
X166709722Y-81076176D01*
X166463218Y-81811086D01*
X166185231Y-82535047D01*
X165876074Y-83247190D01*
X165536058Y-83946646D01*
X165165498Y-84632545D01*
X164764705Y-85304016D01*
X164333993Y-85960191D01*
X163873674Y-86600200D01*
X163384061Y-87223172D01*
X163294243Y-87329914D01*
X163259312Y-87372202D01*
X163232279Y-87408343D01*
X163214079Y-87439268D01*
X163208583Y-87453065D01*
X163205646Y-87465906D01*
X163205385Y-87477909D01*
X161745800Y-87477909D01*
X162291320Y-86868181D01*
X162946345Y-86048278D01*
X163548200Y-85201518D01*
X164096173Y-84330190D01*
X164589552Y-83436585D01*
X165027624Y-82522992D01*
X165409678Y-81591700D01*
X165735000Y-80645000D01*
X166002880Y-79685182D01*
X166212604Y-78714534D01*
X166363461Y-77735348D01*
X166454738Y-76749912D01*
X166485724Y-75760517D01*
X166455706Y-74769452D01*
X166363972Y-73779007D01*
X166209809Y-72791472D01*
X166132024Y-72378325D01*
X166425580Y-71450168D01*
X166485086Y-71264259D01*
X166541588Y-71091883D01*
X166593780Y-70936737D01*
X166640356Y-70802518D01*
X166680012Y-70692924D01*
X166711442Y-70611652D01*
X166723665Y-70582793D01*
X166733342Y-70562400D01*
X166740309Y-70550937D01*
X166742726Y-70548698D01*
X166744405Y-70548865D01*
X166765171Y-70584351D01*
X166791235Y-70650659D01*
X166856466Y-70863429D01*
X166934512Y-71162557D01*
X167019786Y-71523424D01*
X167106704Y-71921411D01*
X167189679Y-72331899D01*
X167263125Y-72730271D01*
X167321458Y-73091906D01*
X167438405Y-73891875D01*
X167446933Y-73941971D01*
X167452710Y-73961064D01*
X167460841Y-73975861D01*
X167466106Y-73981573D01*
X167472339Y-73986119D01*
X167479665Y-73989469D01*
X167488212Y-73991592D01*
X167498105Y-73992458D01*
X167509472Y-73992036D01*
X167537128Y-73987207D01*
X167572192Y-73976861D01*
X167615674Y-73960753D01*
X167668584Y-73938638D01*
X167731932Y-73910273D01*
X167893986Y-73833814D01*
X168109918Y-73729420D01*
X168346771Y-73611583D01*
X168588015Y-73485696D01*
X168832141Y-73352757D01*
X169077641Y-73213760D01*
X169566738Y-72921577D01*
X170043245Y-72617112D01*
X170495102Y-72308331D01*
X170708018Y-72154811D01*
X170910250Y-72003200D01*
X171100289Y-71854492D01*
X171276628Y-71709684D01*
X171437760Y-71569770D01*
X171582177Y-71435748D01*
X171899808Y-71129493D01*
X171831281Y-70758679D01*
X171679675Y-70072752D01*
X171474262Y-69355064D01*
X171218121Y-68610741D01*
X170914331Y-67844910D01*
X170565972Y-67062697D01*
X170176122Y-66269228D01*
X169747862Y-65469630D01*
X169284270Y-64669029D01*
X168788426Y-63872553D01*
X168263409Y-63085326D01*
X167712298Y-62312476D01*
X167138172Y-61559129D01*
X166544112Y-60830412D01*
X165933195Y-60131451D01*
X165308502Y-59467372D01*
X164673112Y-58843302D01*
X164328001Y-58525792D01*
X163936784Y-58177860D01*
X163527125Y-57822664D01*
X163126688Y-57483360D01*
X162763135Y-57183104D01*
X162464130Y-56945054D01*
X162347478Y-56856593D01*
X162257337Y-56792367D01*
X162197165Y-56755270D01*
X162179397Y-56747800D01*
X162170419Y-56748198D01*
X162156362Y-56804999D01*
X162124844Y-56953068D01*
X162028073Y-57433072D01*
X161904707Y-58015267D01*
X161759588Y-58630225D01*
X161602016Y-59245450D01*
X161441293Y-59828444D01*
X161286722Y-60346711D01*
X161147604Y-60767752D01*
X161086747Y-60931658D01*
X161033241Y-61059072D01*
X160988250Y-61145930D01*
X160969310Y-61172882D01*
X160952935Y-61188171D01*
X160947612Y-61188611D01*
X160938939Y-61185654D01*
X160912450Y-61170378D01*
X160875288Y-61144003D01*
X160829273Y-61108186D01*
X160776224Y-61064588D01*
X160717961Y-61014868D01*
X160593071Y-60903694D01*
X160469162Y-60787938D01*
X160360789Y-60680872D01*
X160316978Y-60634744D01*
X160282510Y-60595766D01*
X160259205Y-60565597D01*
X160252308Y-60554333D01*
X160248883Y-60545894D01*
X160248378Y-60538594D01*
X160249252Y-60527269D01*
X160254887Y-60493505D01*
X160265288Y-60446517D01*
X160279954Y-60388220D01*
X160298385Y-60320527D01*
X160320079Y-60245355D01*
X160344536Y-60164617D01*
X160371255Y-60080229D01*
X160455690Y-59804886D01*
X160537334Y-59511457D01*
X160615498Y-59204397D01*
X160689496Y-58888161D01*
X160758637Y-58567204D01*
X160822233Y-58245982D01*
X160879596Y-57928950D01*
X160930037Y-57620563D01*
X160972868Y-57325275D01*
X161007400Y-57047543D01*
X161032944Y-56791821D01*
X161048813Y-56562564D01*
X161054316Y-56364228D01*
X161048767Y-56201268D01*
X161031477Y-56078138D01*
X161018213Y-56032903D01*
X161001756Y-55999295D01*
X160969664Y-55963770D01*
X160913144Y-55916518D01*
X160735559Y-55791845D01*
X160486474Y-55635299D01*
X160183364Y-55456899D01*
X159843706Y-55266668D01*
X159484972Y-55074626D01*
X159124640Y-54890795D01*
X158780183Y-54725194D01*
X157965176Y-54366502D01*
X157123954Y-54032472D01*
X156259462Y-53723611D01*
X155374645Y-53440423D01*
X154472444Y-53183415D01*
X153555804Y-52953093D01*
X152627670Y-52749962D01*
X151690985Y-52574529D01*
X150748692Y-52427298D01*
X149803735Y-52308776D01*
X148859059Y-52219468D01*
X147917607Y-52159881D01*
X146982322Y-52130520D01*
X146056150Y-52131891D01*
X145142033Y-52164499D01*
X144242915Y-52228851D01*
X144081705Y-52242785D01*
X143934211Y-52254399D01*
X143816782Y-52262467D01*
X143774449Y-52264787D01*
X143745761Y-52265760D01*
X143728869Y-52266383D01*
X143715002Y-52268219D01*
X143704531Y-52271890D01*
X143700685Y-52274607D01*
X143697827Y-52278016D01*
X143696003Y-52282194D01*
X143695260Y-52287218D01*
X143695644Y-52293167D01*
X143697202Y-52300118D01*
X143704024Y-52317337D01*
X143716096Y-52339496D01*
X143733789Y-52367216D01*
X143757475Y-52401117D01*
X143824306Y-52489951D01*
X143919558Y-52610966D01*
X144046197Y-52769130D01*
X144396180Y-53218915D01*
X144728117Y-53673945D01*
X145040120Y-54131142D01*
X145330302Y-54587429D01*
X145596777Y-55039729D01*
X145720535Y-55263422D01*
X145837659Y-55484964D01*
X145947912Y-55703971D01*
X146051060Y-55920057D01*
X146146865Y-56132839D01*
X146235093Y-56341931D01*
X146372809Y-56679936D01*
X146800773Y-56688006D01*
X147731744Y-56719546D01*
X148639406Y-56778003D01*
X149522279Y-56863160D01*
X150378882Y-56974797D01*
X151207736Y-57112697D01*
X152007358Y-57276639D01*
X152776270Y-57466407D01*
X153148746Y-57570906D01*
X153512990Y-57681780D01*
X153634021Y-57721451D01*
X153679869Y-57738897D01*
X153715149Y-57755613D01*
X153728640Y-57763901D01*
X153739267Y-57772249D01*
X153746956Y-57780738D01*
X153751632Y-57789450D01*
X153753221Y-57798466D01*
X153751649Y-57807866D01*
X153746842Y-57817732D01*
X153738727Y-57828144D01*
X153727228Y-57839184D01*
X153712272Y-57850932D01*
X153671692Y-57876878D01*
X153616394Y-57906630D01*
X153545785Y-57940834D01*
X153356264Y-58025195D01*
X153098386Y-58135144D01*
X152842642Y-58243382D01*
X152738624Y-58286480D01*
X152647871Y-58322661D01*
X152568406Y-58352248D01*
X152498251Y-58375564D01*
X152435428Y-58392931D01*
X152406148Y-58399485D01*
X152377959Y-58404672D01*
X152350614Y-58408533D01*
X152323867Y-58411109D01*
X152297469Y-58412439D01*
X152271173Y-58412565D01*
X152244733Y-58411526D01*
X152217901Y-58409363D01*
X152162071Y-58401825D01*
X152101707Y-58390275D01*
X152034831Y-58375034D01*
X151873630Y-58334772D01*
X151308071Y-58202778D01*
X150730846Y-58088035D01*
X150143467Y-57990550D01*
X149547445Y-57910329D01*
X148944292Y-57847377D01*
X148335519Y-57801700D01*
X147722638Y-57773305D01*
X147107160Y-57762197D01*
X146490597Y-57768383D01*
X145874460Y-57791869D01*
X145260261Y-57832660D01*
X144649512Y-57890762D01*
X144043724Y-57966182D01*
X143444408Y-58058926D01*
X142853076Y-58168999D01*
X142271239Y-58296408D01*
X141845790Y-58396106D01*
X141614015Y-58449072D01*
X141581266Y-58445967D01*
X141520924Y-58430411D01*
X141333860Y-58368546D01*
X141085612Y-58276676D01*
X140808970Y-58168002D01*
X140536726Y-58055725D01*
X140301668Y-57953047D01*
X140136587Y-57873167D01*
X140090535Y-57845901D01*
X140078424Y-57836159D01*
X140074273Y-57829286D01*
X140074457Y-57827901D01*
X140075004Y-57826428D01*
X140077147Y-57823236D01*
X140080631Y-57819743D01*
X140085383Y-57815984D01*
X140091332Y-57811994D01*
X140098404Y-57807806D01*
X140106527Y-57803454D01*
X140115630Y-57798974D01*
X140125640Y-57794400D01*
X140136484Y-57789765D01*
X140160387Y-57780452D01*
X140186762Y-57771309D01*
X140215030Y-57762611D01*
X140938005Y-57551738D01*
X141373183Y-57430917D01*
X141829179Y-57316464D01*
X142300144Y-57209510D01*
X142780231Y-57111190D01*
X143263593Y-57022637D01*
X143744381Y-56944984D01*
X144216749Y-56879365D01*
X144674848Y-56826912D01*
X144923723Y-56801001D01*
X145129450Y-56778278D01*
X145270661Y-56761186D01*
X145310395Y-56755514D01*
X145321375Y-56753531D01*
X145325986Y-56752167D01*
X145331476Y-56739733D01*
X145329755Y-56717373D01*
X145305947Y-56644866D01*
X145257111Y-56538630D01*
X145185793Y-56402648D01*
X144985894Y-56057386D01*
X144726623Y-55640950D01*
X144428353Y-55185211D01*
X144111456Y-54722040D01*
X143796305Y-54283307D01*
X143503272Y-53900885D01*
X143357305Y-53720640D01*
X143219149Y-53554337D01*
X143088512Y-53401723D01*
X142965103Y-53262547D01*
X142848631Y-53136554D01*
X142738805Y-53023494D01*
X142635332Y-52923114D01*
X142537923Y-52835160D01*
X142446285Y-52759380D01*
X142402540Y-52725977D01*
X142360128Y-52695523D01*
X142319014Y-52667986D01*
X142279160Y-52643335D01*
X142240531Y-52621538D01*
X142203091Y-52602564D01*
X142166801Y-52586381D01*
X142131627Y-52572958D01*
X142097532Y-52562262D01*
X142064480Y-52554263D01*
X142032433Y-52548929D01*
X142001356Y-52546228D01*
X141971213Y-52546129D01*
X141941966Y-52548600D01*
X141298300Y-52653436D01*
X140615357Y-52804024D01*
X139898467Y-52997820D01*
X139152960Y-53232279D01*
X138384169Y-53504854D01*
X137597422Y-53813001D01*
X136798052Y-54154175D01*
X135991388Y-54525831D01*
X135182762Y-54925422D01*
X134377503Y-55350405D01*
X133580943Y-55798234D01*
X132798413Y-56266363D01*
X132035243Y-56752248D01*
X131296763Y-57253343D01*
X130588305Y-57767103D01*
X129915198Y-58290984D01*
X129700114Y-58468724D01*
X129463569Y-58671231D01*
X128945602Y-59131695D01*
X128400303Y-59634671D01*
X127866679Y-60142455D01*
X127383737Y-60617342D01*
X126990484Y-61021626D01*
X126839681Y-61185510D01*
X126725927Y-61317604D01*
X126654100Y-61413196D01*
X126635432Y-61445830D01*
X126629074Y-61467571D01*
X126631265Y-61470339D01*
X126637696Y-61473699D01*
X126662409Y-61482016D01*
X126701481Y-61492156D01*
X126753180Y-61503753D01*
X126815774Y-61516441D01*
X126887532Y-61529855D01*
X126966723Y-61543629D01*
X127051613Y-61557397D01*
X127654240Y-61662102D01*
X128326820Y-61796078D01*
X129028816Y-61949417D01*
X129719688Y-62112212D01*
X130358898Y-62274553D01*
X130905908Y-62426535D01*
X131320179Y-62558247D01*
X131464869Y-62613406D01*
X131561172Y-62659783D01*
X131564374Y-62662180D01*
X131566725Y-62665118D01*
X131568202Y-62668623D01*
X131568784Y-62672716D01*
X131567173Y-62682767D01*
X131561719Y-62695458D01*
X131552248Y-62710980D01*
X131538584Y-62729521D01*
X131520555Y-62751270D01*
X131497985Y-62776415D01*
X131438529Y-62837653D01*
X131358821Y-62914745D01*
X131257468Y-63009204D01*
X131133076Y-63122540D01*
X130848648Y-63379582D01*
X130550992Y-63287772D01*
X130239519Y-63198026D01*
X129901859Y-63112173D01*
X129543972Y-63030922D01*
X129171820Y-62954986D01*
X128791366Y-62885075D01*
X128408572Y-62821900D01*
X128029398Y-62766173D01*
X127659807Y-62718604D01*
X127305761Y-62679904D01*
X126973222Y-62650784D01*
X126668151Y-62631955D01*
X126396511Y-62624129D01*
X126164263Y-62628016D01*
X125977368Y-62644327D01*
X125841790Y-62673773D01*
X125795107Y-62693644D01*
X125763489Y-62717066D01*
X125572714Y-62938138D01*
X125371363Y-63207459D01*
X125161364Y-63520866D01*
X124944647Y-63874194D01*
X124723141Y-64263280D01*
X124498774Y-64683962D01*
X124049171Y-65603454D01*
X123611271Y-66599364D01*
X123200502Y-67638383D01*
X122832295Y-68687203D01*
X122668973Y-69204879D01*
X122522079Y-69712516D01*
X122370823Y-70292127D01*
X122232604Y-70883792D01*
X122107618Y-71485047D01*
X121996061Y-72093433D01*
X121898130Y-72706487D01*
X121814022Y-73321749D01*
X121743934Y-73936757D01*
X121688063Y-74549050D01*
X121646604Y-75156166D01*
X121619756Y-75755645D01*
X121607713Y-76345024D01*
X121610674Y-76921843D01*
X121628835Y-77483641D01*
X121662392Y-78027956D01*
X121711543Y-78552326D01*
X121776483Y-79054292D01*
X121803074Y-79233018D01*
X122290701Y-78907184D01*
X122754049Y-78607261D01*
X123259096Y-78297389D01*
X123787591Y-77987598D01*
X124321279Y-77687917D01*
X124841907Y-77408378D01*
X125331222Y-77159011D01*
X125770971Y-76949846D01*
X126142901Y-76790913D01*
X126463974Y-76664708D01*
X126467546Y-75685750D01*
X126478541Y-75062512D01*
X126507562Y-74460689D01*
X126555356Y-73874732D01*
X126622674Y-73299092D01*
X126710263Y-72728220D01*
X126818873Y-72156570D01*
X126949252Y-71578590D01*
X127102149Y-70988734D01*
X127129287Y-70890780D01*
X127153703Y-70804258D01*
X127175623Y-70728757D01*
X127195274Y-70663865D01*
X127212881Y-70609170D01*
X127220989Y-70585518D01*
X127228671Y-70564260D01*
X127235956Y-70545346D01*
X127242871Y-70528724D01*
X127249445Y-70514342D01*
X127255706Y-70502149D01*
X127261683Y-70492093D01*
X127267404Y-70484124D01*
X127272896Y-70478189D01*
X127275566Y-70475968D01*
X127278189Y-70474237D01*
X127280770Y-70472989D01*
X127283311Y-70472217D01*
X127285817Y-70471915D01*
X127288290Y-70472077D01*
X127290735Y-70472695D01*
X127293154Y-70473765D01*
X127295552Y-70475279D01*
X127297932Y-70477230D01*
X127302651Y-70482422D01*
X127307341Y-70489287D01*
X127312029Y-70497775D01*
X127316744Y-70507834D01*
X127321514Y-70519413D01*
X127326367Y-70532461D01*
X127336437Y-70562754D01*
X127625098Y-71468819D01*
X127874203Y-72249343D01*
X127778027Y-72783271D01*
X127625989Y-73800788D01*
X127536478Y-74816430D01*
X127508886Y-75828268D01*
X127542601Y-76834370D01*
X127637016Y-77832807D01*
X127791519Y-78821649D01*
X128005502Y-79798964D01*
X128278354Y-80762823D01*
X128609466Y-81711295D01*
X128998229Y-82642450D01*
X129444032Y-83554358D01*
X129946266Y-84445088D01*
X130504322Y-85312710D01*
X131117590Y-86155294D01*
X131785459Y-86970910D01*
X132507321Y-87757626D01*
X132999314Y-88264569D01*
X133463658Y-89719247D01*
X133609623Y-90177656D01*
X133669261Y-90366468D01*
X133720699Y-90531000D01*
X133764458Y-90673235D01*
X133801063Y-90795161D01*
X133831034Y-90898762D01*
X133854894Y-90986023D01*
X133864695Y-91024146D01*
X133873165Y-91058930D01*
X133880368Y-91090621D01*
X133886370Y-91119468D01*
X133891235Y-91145719D01*
X133895030Y-91169622D01*
X133897819Y-91191426D01*
X133899668Y-91211379D01*
X133900642Y-91229728D01*
X133900807Y-91246723D01*
X133900227Y-91262610D01*
X133898968Y-91277639D01*
X133897095Y-91292057D01*
X133894674Y-91306113D01*
X133888447Y-91334130D01*
X133709985Y-92038983D01*
X133634987Y-92346643D01*
X133566924Y-92653266D01*
X133505967Y-92956609D01*
X133452289Y-93254425D01*
X133406061Y-93544469D01*
X133367457Y-93824497D01*
X133336647Y-94092263D01*
X133313804Y-94345521D01*
X133299101Y-94582027D01*
X133292708Y-94799535D01*
X133294798Y-94995801D01*
X133305544Y-95168578D01*
X133325117Y-95315621D01*
X133338268Y-95378792D01*
X133353690Y-95434686D01*
X133371405Y-95483025D01*
X133391434Y-95523528D01*
X133413800Y-95555913D01*
X133438522Y-95579900D01*
X133558846Y-95664599D01*
X133721016Y-95768642D01*
X133916602Y-95887211D01*
X134137171Y-96015489D01*
X134374290Y-96148660D01*
X134619529Y-96281906D01*
X134864454Y-96410411D01*
X135100635Y-96529359D01*
X135741852Y-96844479D01*
X135939363Y-97465054D01*
X135978825Y-97590419D01*
X136015146Y-97708643D01*
X136047566Y-97817049D01*
X136075327Y-97912963D01*
X136097667Y-97993709D01*
X136113828Y-98056611D01*
X136119354Y-98080534D01*
X136123050Y-98098993D01*
X136124821Y-98111653D01*
X136124573Y-98118180D01*
X136116325Y-98122836D01*
X136097733Y-98122022D01*
X136031734Y-98105039D01*
X135800024Y-98017043D01*
X135464971Y-97871079D01*
X135062105Y-97684032D01*
X134626956Y-97472789D01*
X134195053Y-97254234D01*
X133801926Y-97045255D01*
X133483105Y-96862737D01*
X133398184Y-96812268D01*
X133315266Y-96764858D01*
X133236424Y-96721569D01*
X133163736Y-96683462D01*
X133099276Y-96651601D01*
X133070781Y-96638344D01*
X133045122Y-96627046D01*
X133022558Y-96617840D01*
X133003348Y-96610860D01*
X132987752Y-96606237D01*
X132976030Y-96604104D01*
X132936553Y-96589955D01*
X132867160Y-96552986D01*
X132650672Y-96419050D01*
X132350659Y-96219217D01*
X131991218Y-95970409D01*
X131596443Y-95689547D01*
X131190428Y-95393553D01*
X130797268Y-95099348D01*
X130441058Y-94823853D01*
X129653429Y-94174250D01*
X128881218Y-93483469D01*
X128127330Y-92755650D01*
X127394668Y-91994938D01*
X126686138Y-91205474D01*
X126004643Y-90391400D01*
X125353087Y-89556860D01*
X124734376Y-88705994D01*
X124151413Y-87842947D01*
X123607102Y-86971860D01*
X123104348Y-86096875D01*
X122646055Y-85222135D01*
X122235127Y-84351783D01*
X121874469Y-83489960D01*
X121566985Y-82640809D01*
X121315579Y-81808472D01*
X121163054Y-81213867D01*
X121037228Y-80662698D01*
G37*
D12*
%TO.C,D4*%
X165253683Y-75739503D02*
X166204740Y-76048520D01*
X166204740Y-76048520D02*
X166131164Y-76274962D01*
X166131164Y-76274962D02*
X166041731Y-76396112D01*
X166041731Y-76396112D02*
X165921724Y-76457258D01*
X165921724Y-76457258D02*
X165816432Y-76473117D01*
X165816432Y-76473117D02*
X165620563Y-76459545D01*
X165620563Y-76459545D02*
X165484698Y-76415399D01*
X165484698Y-76415399D02*
X165318259Y-76311251D01*
X165318259Y-76311251D02*
X165242398Y-76236532D01*
X165242398Y-76236532D02*
X165181251Y-76116525D01*
X165181251Y-76116525D02*
X165180108Y-75965945D01*
X165180108Y-75965945D02*
X165253683Y-75739503D01*
X165446268Y-77304166D02*
X164812230Y-77098155D01*
X165882151Y-77195445D02*
X165276400Y-76748276D01*
X165276400Y-76748276D02*
X165085104Y-77337026D01*
%TO.C,D3*%
X154402083Y-74370176D02*
X155401474Y-74335276D01*
X155401474Y-74335276D02*
X155409783Y-74573226D01*
X155409783Y-74573226D02*
X155367179Y-74717658D01*
X155367179Y-74717658D02*
X155275323Y-74816162D01*
X155275323Y-74816162D02*
X155181805Y-74867076D01*
X155181805Y-74867076D02*
X154993106Y-74921314D01*
X154993106Y-74921314D02*
X154850336Y-74926299D01*
X154850336Y-74926299D02*
X154658314Y-74885357D01*
X154658314Y-74885357D02*
X154561472Y-74841091D01*
X154561472Y-74841091D02*
X154462968Y-74749234D01*
X154462968Y-74749234D02*
X154410393Y-74608126D01*
X154410393Y-74608126D02*
X154402083Y-74370176D01*
X155433050Y-75239487D02*
X155454654Y-75858158D01*
X155454654Y-75858158D02*
X155062301Y-75538322D01*
X155062301Y-75538322D02*
X155067286Y-75681092D01*
X155067286Y-75681092D02*
X155023020Y-75777934D01*
X155023020Y-75777934D02*
X154977092Y-75827186D01*
X154977092Y-75827186D02*
X154883574Y-75878100D01*
X154883574Y-75878100D02*
X154645624Y-75886410D01*
X154645624Y-75886410D02*
X154548782Y-75842143D01*
X154548782Y-75842143D02*
X154499530Y-75796215D01*
X154499530Y-75796215D02*
X154448616Y-75702697D01*
X154448616Y-75702697D02*
X154438645Y-75417157D01*
X154438645Y-75417157D02*
X154482911Y-75320315D01*
X154482911Y-75320315D02*
X154528839Y-75271063D01*
%TO.C,D1*%
X127837516Y-75386557D02*
X128788572Y-75077540D01*
X128788572Y-75077540D02*
X128862148Y-75303982D01*
X128862148Y-75303982D02*
X128861004Y-75454562D01*
X128861004Y-75454562D02*
X128799858Y-75574569D01*
X128799858Y-75574569D02*
X128723996Y-75649288D01*
X128723996Y-75649288D02*
X128557558Y-75753436D01*
X128557558Y-75753436D02*
X128421692Y-75797582D01*
X128421692Y-75797582D02*
X128225824Y-75811154D01*
X128225824Y-75811154D02*
X128120532Y-75795295D01*
X128120532Y-75795295D02*
X128000525Y-75734149D01*
X128000525Y-75734149D02*
X127911091Y-75612999D01*
X127911091Y-75612999D02*
X127837516Y-75386557D01*
X128308399Y-76835786D02*
X128131818Y-76292325D01*
X128220108Y-76564055D02*
X129171165Y-76255038D01*
X129171165Y-76255038D02*
X129005869Y-76208607D01*
X129005869Y-76208607D02*
X128885862Y-76147460D01*
X128885862Y-76147460D02*
X128811144Y-76071598D01*
%TO.C,D6*%
X133830076Y-62419046D02*
X134512074Y-63150399D01*
X134512074Y-63150399D02*
X134337942Y-63312780D01*
X134337942Y-63312780D02*
X134200987Y-63375382D01*
X134200987Y-63375382D02*
X134066382Y-63370681D01*
X134066382Y-63370681D02*
X133966603Y-63333505D01*
X133966603Y-63333505D02*
X133801873Y-63226675D01*
X133801873Y-63226675D02*
X133704444Y-63122196D01*
X133704444Y-63122196D02*
X133609366Y-62950415D01*
X133609366Y-62950415D02*
X133579240Y-62848286D01*
X133579240Y-62848286D02*
X133583941Y-62713681D01*
X133583941Y-62713681D02*
X133655944Y-62581426D01*
X133655944Y-62581426D02*
X133830076Y-62419046D01*
X133467283Y-64124683D02*
X133606588Y-63994778D01*
X133606588Y-63994778D02*
X133643765Y-63895000D01*
X133643765Y-63895000D02*
X133646115Y-63827697D01*
X133646115Y-63827697D02*
X133618340Y-63658266D01*
X133618340Y-63658266D02*
X133523262Y-63486484D01*
X133523262Y-63486484D02*
X133263453Y-63207873D01*
X133263453Y-63207873D02*
X133163674Y-63170697D01*
X133163674Y-63170697D02*
X133096372Y-63168347D01*
X133096372Y-63168347D02*
X132994243Y-63198472D01*
X132994243Y-63198472D02*
X132854937Y-63328377D01*
X132854937Y-63328377D02*
X132817761Y-63428155D01*
X132817761Y-63428155D02*
X132815410Y-63495458D01*
X132815410Y-63495458D02*
X132845536Y-63597587D01*
X132845536Y-63597587D02*
X133007917Y-63771719D01*
X133007917Y-63771719D02*
X133107695Y-63808895D01*
X133107695Y-63808895D02*
X133174998Y-63811245D01*
X133174998Y-63811245D02*
X133277127Y-63781120D01*
X133277127Y-63781120D02*
X133416432Y-63651215D01*
X133416432Y-63651215D02*
X133453609Y-63551437D01*
X133453609Y-63551437D02*
X133455959Y-63484134D01*
X133455959Y-63484134D02*
X133425833Y-63382005D01*
%TO.C,J1*%
X146701666Y-96042380D02*
X146701666Y-96756666D01*
X146701666Y-96756666D02*
X146654047Y-96899523D01*
X146654047Y-96899523D02*
X146558809Y-96994761D01*
X146558809Y-96994761D02*
X146415952Y-97042380D01*
X146415952Y-97042380D02*
X146320714Y-97042380D01*
X147701666Y-97042380D02*
X147130238Y-97042380D01*
X147415952Y-97042380D02*
X147415952Y-96042380D01*
X147415952Y-96042380D02*
X147320714Y-96185238D01*
X147320714Y-96185238D02*
X147225476Y-96280476D01*
X147225476Y-96280476D02*
X147130238Y-96328095D01*
%TO.C,D5*%
X157825570Y-58174195D02*
X158507568Y-57442841D01*
X158507568Y-57442841D02*
X158681700Y-57605221D01*
X158681700Y-57605221D02*
X158753703Y-57737476D01*
X158753703Y-57737476D02*
X158758404Y-57872081D01*
X158758404Y-57872081D02*
X158728278Y-57974210D01*
X158728278Y-57974210D02*
X158633200Y-58145991D01*
X158633200Y-58145991D02*
X158535771Y-58250471D01*
X158535771Y-58250471D02*
X158371041Y-58357300D01*
X158371041Y-58357300D02*
X158271262Y-58394477D01*
X158271262Y-58394477D02*
X158136657Y-58399177D01*
X158136657Y-58399177D02*
X157999702Y-58336575D01*
X157999702Y-58336575D02*
X157825570Y-58174195D01*
X159587186Y-58449600D02*
X159238922Y-58124839D01*
X159238922Y-58124839D02*
X158879335Y-58440627D01*
X158879335Y-58440627D02*
X158946637Y-58438276D01*
X158946637Y-58438276D02*
X159048766Y-58468402D01*
X159048766Y-58468402D02*
X159222898Y-58630783D01*
X159222898Y-58630783D02*
X159260074Y-58730561D01*
X159260074Y-58730561D02*
X159262425Y-58797864D01*
X159262425Y-58797864D02*
X159232299Y-58899993D01*
X159232299Y-58899993D02*
X159069918Y-59074125D01*
X159069918Y-59074125D02*
X158970140Y-59111301D01*
X158970140Y-59111301D02*
X158902837Y-59113652D01*
X158902837Y-59113652D02*
X158800708Y-59083526D01*
X158800708Y-59083526D02*
X158626576Y-58921145D01*
X158626576Y-58921145D02*
X158589400Y-58821366D01*
X158589400Y-58821366D02*
X158587050Y-58754064D01*
%TO.C,D2*%
X138440556Y-80440605D02*
X139440404Y-80458058D01*
X139440404Y-80458058D02*
X139436248Y-80696117D01*
X139436248Y-80696117D02*
X139386143Y-80838121D01*
X139386143Y-80838121D02*
X139289258Y-80931683D01*
X139289258Y-80931683D02*
X139193203Y-80977632D01*
X139193203Y-80977632D02*
X139001925Y-81021920D01*
X139001925Y-81021920D02*
X138859089Y-81019427D01*
X138859089Y-81019427D02*
X138669473Y-80968491D01*
X138669473Y-80968491D02*
X138575081Y-80919217D01*
X138575081Y-80919217D02*
X138481519Y-80822331D01*
X138481519Y-80822331D02*
X138436401Y-80678664D01*
X138436401Y-80678664D02*
X138440556Y-80440605D01*
X139328559Y-81408632D02*
X139375340Y-81457075D01*
X139375340Y-81457075D02*
X139421289Y-81553129D01*
X139421289Y-81553129D02*
X139417134Y-81791188D01*
X139417134Y-81791188D02*
X139367860Y-81885581D01*
X139367860Y-81885581D02*
X139319417Y-81932361D01*
X139319417Y-81932361D02*
X139223362Y-81978311D01*
X139223362Y-81978311D02*
X139128139Y-81976649D01*
X139128139Y-81976649D02*
X138986134Y-81926544D01*
X138986134Y-81926544D02*
X138424766Y-81345230D01*
X138424766Y-81345230D02*
X138413962Y-81964183D01*
D13*
%TO.C,D4*%
X167523991Y-74180706D02*
X161343651Y-93201836D01*
X161343651Y-93201836D02*
X158966009Y-92429294D01*
X158966009Y-92429294D02*
X165146349Y-73408164D01*
X165146349Y-73408164D02*
X167523991Y-74180706D01*
%TO.C,D3*%
X156005244Y-69817467D02*
X156703234Y-89805284D01*
X156703234Y-89805284D02*
X154204756Y-89892533D01*
X154204756Y-89892533D02*
X153506766Y-69904716D01*
X153506766Y-69904716D02*
X156005244Y-69817467D01*
%TO.C,D1*%
X128913651Y-73408164D02*
X135093991Y-92429294D01*
X135093991Y-92429294D02*
X132716349Y-93201836D01*
X132716349Y-93201836D02*
X126536009Y-74180706D01*
X126536009Y-74180706D02*
X128913651Y-73408164D01*
%TO.C,D6*%
X138126974Y-57845204D02*
X127888022Y-67393181D01*
X127888022Y-67393181D02*
X126183026Y-65564796D01*
X126183026Y-65564796D02*
X136421978Y-56016819D01*
X136421978Y-56016819D02*
X138126974Y-57845204D01*
%TO.C,J1*%
X150905760Y-90531765D02*
X150905760Y-91861765D01*
X149575760Y-90531765D02*
X150905760Y-90531765D01*
X148305760Y-90531765D02*
X143165760Y-90531765D01*
X148305760Y-90531765D02*
X148305760Y-93131765D01*
X143165760Y-90531765D02*
X143165760Y-95731765D01*
X150905760Y-93131765D02*
X150905760Y-95731765D01*
X148305760Y-93131765D02*
X150905760Y-93131765D01*
X150905760Y-95731765D02*
X143165760Y-95731765D01*
%TO.C,D5*%
X157755634Y-56016819D02*
X167994586Y-65564796D01*
X167994586Y-65564796D02*
X166289590Y-67393181D01*
X166289590Y-67393181D02*
X156050638Y-57845204D01*
X156050638Y-57845204D02*
X157755634Y-56016819D01*
%TO.C,D2*%
X140529334Y-69878339D02*
X140180286Y-89875292D01*
X140180286Y-89875292D02*
X137680666Y-89831661D01*
X137680666Y-89831661D02*
X138029714Y-69834708D01*
X138029714Y-69834708D02*
X140529334Y-69878339D01*
%TD*%
%LPC*%
D14*
%TO.C,D4*%
X159227779Y-95668735D03*
X167262221Y-70941265D03*
%TD*%
D15*
%TO.C,D3*%
X154651307Y-66862919D03*
X155558693Y-92847081D03*
%TD*%
D16*
%TO.C,D1*%
X134832221Y-95668735D03*
X126797779Y-70941265D03*
%TD*%
D17*
%TO.C,D6*%
X138920022Y-55396515D03*
X125389978Y-68013485D03*
%TD*%
D18*
%TO.C,J1*%
X149575759Y-91861764D03*
D19*
X149575759Y-94401764D03*
X147035759Y-91861764D03*
X147035759Y-94401764D03*
X144495759Y-91861764D03*
X144495759Y-94401764D03*
%TD*%
D20*
%TO.C,D5*%
X155257590Y-55396515D03*
X168787634Y-68013485D03*
%TD*%
D21*
%TO.C,D2*%
X139331881Y-66856980D03*
X138878119Y-92853020D03*
%TD*%
M02*
